<svg xmlns="http://www.w3.org/2000/svg" width="251" height="145" viewBox="0 0 251 145">
    <g fill="none" fill-rule="evenodd">
        <path fill="#DF640D" d="M0 0h251v145H0z"/>
        <path fill="#7777AB" fill-opacity=".4" d="M226.447 63.447c.985-.965 2.17-1.447 3.553-1.447s2.557.482 3.522 1.447c.986.985 1.478 2.169 1.478 3.553 0 1.383-.492 2.557-1.478 3.522-.965.985-2.139 1.478-3.522 1.478s-2.568-.493-3.553-1.478C225.482 69.557 225 68.383 225 67c0-1.384.482-2.568 1.447-3.553"/>
        <path fill="#EEA13D" fill-opacity=".4" d="M221.447 13.447C222.433 12.482 223.616 12 225 12s2.557.482 3.522 1.447c.986.985 1.478 2.169 1.478 3.553 0 1.383-.492 2.558-1.478 3.522-.965.986-2.138 1.478-3.522 1.478s-2.567-.492-3.553-1.478C220.482 19.558 220 18.383 220 17c0-1.384.482-2.568 1.447-3.553M231.447 127.447c.986-.965 2.169-1.447 3.553-1.447s2.557.482 3.522 1.447c.986.985 1.478 2.169 1.478 3.553 0 1.383-.492 2.558-1.478 3.522-.965.986-2.138 1.478-3.522 1.478s-2.567-.492-3.553-1.478c-.965-.964-1.447-2.139-1.447-3.522 0-1.384.482-2.568 1.447-3.553M9.447 124.447C10.433 123.482 11.616 123 13 123s2.557.482 3.522 1.447c.986.985 1.478 2.169 1.478 3.553 0 1.383-.492 2.558-1.478 3.522-.965.986-2.138 1.478-3.522 1.478s-2.567-.492-3.553-1.478C8.482 130.558 8 129.383 8 128c0-1.384.482-2.568 1.447-3.553"/>
        <path fill="#7777AB" fill-opacity=".4" d="M34.463 13.301c1.547.788 1.926 1.956 1.138 3.504l-3.902 7.657c-.788 1.547-1.956 1.927-3.504 1.139l-7.657-3.902c-1.548-.788-1.927-1.956-1.139-3.503l3.902-7.658c.788-1.548 1.956-1.927 3.504-1.139l7.658 3.902"/>
        <path fill="#C4C0D5" fill-opacity=".4" d="M20.347 26.06l3.126-6.134c.286-.562.148-.986-.413-1.273l-6.135-3.125c-.561-.287-.985-.148-1.272.413l-3.125 6.134c-.286.562-.149.986.413 1.272l6.134 3.125c.562.287.986.149 1.272-.413zm5.159-5.099l-3.126 6.134c-.977 1.917-2.424 2.387-4.341 1.41l-6.134-3.125c-1.917-.977-2.387-2.424-1.41-4.341l3.125-6.134c.977-1.917 2.424-2.387 4.341-1.41l6.134 3.125c1.917.977 2.387 2.424 1.41 4.341z"/>
    </g>
</svg>
