<?xml version="1.0" encoding="UTF-8"?>
<svg width="251px" height="165px" viewBox="0 0 251 165" version="1.1" xmlns="http://www.w3.org/2000/svg" xmlns:xlink="http://www.w3.org/1999/xlink">
    <!-- Generator: Sketch 54.1 (76490) - https://sketchapp.com -->
    <title>Group 25</title>
    <desc>Created with Sketch.</desc>
    <g id="Page-1" stroke="none" stroke-width="1" fill="none" fill-rule="evenodd">
        <g id="homepage-slide-1" transform="translate(-120.000000, -337.000000)">
            <g id="Group-25" transform="translate(120.000000, 337.000000)">
                <rect id="Rectangle" fill="#F9E2DB" x="0" y="0" width="251" height="165"></rect>
                <path d="M231.446541,28.4465409 C232.431866,27.4821803 233.616851,27 234.999501,27 C236.383149,27 237.557153,27.4821803 238.521513,28.4465409 C239.507837,29.4318658 240,30.615853 240,31.9995008 C240,33.3831486 239.507837,34.5571528 238.521513,35.5215134 C237.557153,36.5068384 236.383149,37 234.999501,37 C233.616851,37 232.431866,36.5068384 231.446541,35.5215134 C230.48218,34.5571528 230,33.3831486 230,31.9995008 C230,30.615853 230.48218,29.4318658 231.446541,28.4465409" id="Fill-5" fill-opacity="0.4" fill="#7777AB" opacity="0.3"></path>
                <path d="M225.446541,121.446541 C226.431866,120.48218 227.616851,120 228.999501,120 C230.383149,120 231.557153,120.48218 232.521513,121.446541 C233.507837,122.431866 234,123.615853 234,124.999501 C234,126.383149 233.507837,127.557153 232.521513,128.521513 C231.557153,129.506838 230.383149,130 228.999501,130 C227.616851,130 226.431866,129.506838 225.446541,128.521513 C224.48218,127.557153 224,126.383149 224,124.999501 C224,123.615853 224.48218,122.431866 225.446541,121.446541" id="Fill-5-Copy" fill-opacity="0.4" fill="#7777AB" opacity="0.3"></path>
                <path d="M24.4465409,123.446541 C25.4318658,122.48218 26.6168514,122 27.9995008,122 C29.3831486,122 30.5571528,122.48218 31.5215134,123.446541 C32.5078367,124.431866 33,125.615853 33,126.999501 C33,128.383149 32.5078367,129.557153 31.5215134,130.521513 C30.5571528,131.506838 29.3831486,132 27.9995008,132 C26.6168514,132 25.4318658,131.506838 24.4465409,130.521513 C23.4821803,129.557153 23,128.383149 23,126.999501 C23,125.615853 23.4821803,124.431866 24.4465409,123.446541" id="Fill-5" fill-opacity="0.4" fill="#7777AB" opacity="0.3"></path>
                <path d="M225.446541,15.1017133 C226.432864,14.1373527 227.615853,13.6551724 229.000499,13.6551724 C230.384147,13.6551724 231.557153,14.1373527 232.521513,15.1017133 C233.507837,16.0870382 234,17.2710255 234,18.6556716 C234,20.0383211 233.507837,21.2133236 232.521513,22.1766858 C231.557153,23.1630091 230.384147,23.6551724 229.000499,23.6551724 C227.615853,23.6551724 226.432864,23.1630091 225.446541,22.1766858 C224.48218,21.2133236 224,20.0383211 224,18.6556716 C224,17.2710255 224.48218,16.0870382 225.446541,15.1017133" id="Fill-6" fill-opacity="0.4" fill="#EEA13D" opacity="0.3"></path>
                <path d="M17.4465409,45.4465409 C18.4328641,44.4821803 19.615853,44 21.0004992,44 C22.384147,44 23.5571528,44.4821803 24.5215134,45.4465409 C25.5078367,46.4318658 26,47.615853 26,49.0004992 C26,50.3831486 25.5078367,51.5581511 24.5215134,52.5215134 C23.5571528,53.5078367 22.384147,54 21.0004992,54 C19.615853,54 18.4328641,53.5078367 17.4465409,52.5215134 C16.4821803,51.5581511 16,50.3831486 16,49.0004992 C16,47.615853 16.4821803,46.4318658 17.4465409,45.4465409" id="Fill-6" fill-opacity="0.4" fill="#EEA13D" opacity="0.3"></path>
                <path d="M235.446541,108.446541 C236.432864,107.48218 237.615853,107 239.000499,107 C240.384147,107 241.557153,107.48218 242.521513,108.446541 C243.507837,109.431866 244,110.615853 244,112.000499 C244,113.383149 243.507837,114.558151 242.521513,115.521513 C241.557153,116.507837 240.384147,117 239.000499,117 C237.615853,117 236.432864,116.507837 235.446541,115.521513 C234.48218,114.558151 234,113.383149 234,112.000499 C234,110.615853 234.48218,109.431866 235.446541,108.446541" id="Fill-6-Copy" fill-opacity="0.4" fill="#EEA13D" opacity="0.3"></path>
                <path d="M13.4465409,111.446541 C14.4328641,110.48218 15.615853,110 17.0004992,110 C18.384147,110 19.5571528,110.48218 20.5215134,111.446541 C21.5078367,112.431866 22,113.615853 22,115.000499 C22,116.383149 21.5078367,117.558151 20.5215134,118.521513 C19.5571528,119.507837 18.384147,120 17.0004992,120 C15.615853,120 14.4328641,119.507837 13.4465409,118.521513 C12.4821803,117.558151 12,116.383149 12,115.000499 C12,113.615853 12.4821803,112.431866 13.4465409,111.446541" id="Fill-6-Copy-2" fill-opacity="0.4" fill="#EEA13D" opacity="0.3"></path>
                <path d="M32.4626177,19.8069563 C34.0096217,20.6880511 34.3894339,21.9936386 33.6005933,23.7231748 L29.6992411,32.2816034 C28.9108875,34.0105954 27.7427217,34.4350882 26.1952308,33.5539935 L18.5376341,29.193146 C16.9901432,28.3120512 16.610818,27.0064636 17.3991716,25.2774717 L21.3010107,16.7190431 C22.0893644,14.9889627 23.2570432,14.5650141 24.805021,15.4461088 L32.4626177,19.8069563" id="Fill-8" fill-opacity="0.4" fill="#7777AB" opacity="0.3"></path>
                <path d="M21,33 L24,26 C24.138426,25.606468 24.0031492,25.1159738 23,25 L17,21 C16.8978962,20.8363845 16.4824032,20.9962574 16,22 L13,29 C12.8616782,29.3939318 12.9964949,29.884426 14,30 L20,34 C20.1026681,34.1634715 20.517701,34.0041424 21,33 Z M27,27 L23,34 C22.40303,36.0138528 20.9560981,36.5425287 19,35 L13,32 C10.9878229,30.8286003 10.5178873,29.2002788 11,27 L15,20 C15.5974218,17.9865358 17.0443537,17.4573313 19,19 L25,22 C27.012159,23.1717883 27.4820947,24.7995812 27,27 L27,27 Z" id="Fill-9" fill-opacity="0.4" fill="#C4C0D5" opacity="0.689313616"></path>
            </g>
        </g>
    </g>
</svg>