<?xml version="1.0" encoding="UTF-8"?>
<svg width="251px" height="165px" viewBox="0 0 251 165" version="1.1" xmlns="http://www.w3.org/2000/svg" xmlns:xlink="http://www.w3.org/1999/xlink">
    <!-- Generator: Sketch 54.1 (76490) - https://sketchapp.com -->
    <title>Group 25</title>
    <desc>Created with Sketch.</desc>
    <g id="Page-1" stroke="none" stroke-width="1" fill="none" fill-rule="evenodd">
        <g id="homepage-slide-1" transform="translate(-120.000000, -337.000000)">
            <g id="Group-25" transform="translate(120.000000, 337.000000)">
                <rect id="Rectangle" fill="#F9E2DB" x="0" y="0" width="251" height="165"></rect>
                <path d="M226.446541,72.1977879 C227.431866,71.1004121 228.616851,70.5517241 229.999501,70.5517241 C231.383149,70.5517241 232.557153,71.1004121 233.521513,72.1977879 C234.507837,73.3190197 235,74.6663155 235,76.2408113 C235,77.8153071 234.507837,79.1512429 233.521513,80.2486187 C232.557153,81.3698506 231.383149,81.9310345 229.999501,81.9310345 C228.616851,81.9310345 227.431866,81.3698506 226.446541,80.2486187 C225.48218,79.1512429 225,77.8153071 225,76.2408113 C225,74.6663155 225.48218,73.3190197 226.446541,72.1977879" id="Fill-5" fill-opacity="0.4" fill="#7777AB"></path>
                <path d="M221.446541,15.3012362 C222.432864,14.2038603 223.615853,13.6551724 225.000499,13.6551724 C226.384147,13.6551724 227.557153,14.2038603 228.521513,15.3012362 C229.507837,16.422468 230,17.7697638 230,19.3453956 C230,20.9187554 229.507837,22.2558272 228.521513,23.352067 C227.557153,24.4744348 226.384147,25.0344828 225.000499,25.0344828 C223.615853,25.0344828 222.432864,24.4744348 221.446541,23.352067 C220.48218,22.2558272 220,20.9187554 220,19.3453956 C220,17.7697638 220.48218,16.422468 221.446541,15.3012362" id="Fill-6" fill-opacity="0.4" fill="#EEA13D"></path>
                <path d="M231.446541,125.025374 C232.432864,123.927998 233.615853,123.37931 235.000499,123.37931 C236.384147,123.37931 237.557153,123.927998 238.521513,125.025374 C239.507837,126.146606 240,127.493902 240,129.069534 C240,130.642893 239.507837,131.979965 238.521513,133.076205 C237.557153,134.198573 236.384147,134.758621 235.000499,134.758621 C233.615853,134.758621 232.432864,134.198573 231.446541,133.076205 C230.48218,131.979965 230,130.642893 230,129.069534 C230,127.493902 230.48218,126.146606 231.446541,125.025374" id="Fill-6-Copy" fill-opacity="0.4" fill="#EEA13D"></path>
                <path d="M9.44654088,121.611581 C10.4328641,120.514205 11.615853,119.965517 13.0004992,119.965517 C14.384147,119.965517 15.5571528,120.514205 16.5215134,121.611581 C17.5078367,122.732813 18,124.080109 18,125.65574 C18,127.2291 17.5078367,128.566172 16.5215134,129.662412 C15.5571528,130.78478 14.384147,131.344828 13.0004992,131.344828 C11.615853,131.344828 10.4328641,130.78478 9.44654088,129.662412 C8.48218029,128.566172 8,127.2291 8,125.65574 C8,124.080109 8.48218029,122.732813 9.44654088,121.611581" id="Fill-6-Copy-2" fill-opacity="0.4" fill="#EEA13D"></path>
                <path d="M34.4626177,15.1355762 C36.0096217,16.0326618 36.3894339,17.3619443 35.6005933,19.1228695 L31.6992411,27.8366235 C30.9108875,29.5969946 29.7427217,30.0291915 28.1952308,29.1321059 L20.5376341,24.6921141 C18.9901432,23.7950285 18.610818,22.4657461 19.3991716,20.705375 L23.3010107,11.991621 C24.0893644,10.2301417 25.2570432,9.79849889 26.805021,10.6955845 L34.4626177,15.1355762" id="Fill-8" fill-opacity="0.4" fill="#7777AB"></path>
                <path d="M20.3470846,29.653627 L23.4726267,22.6740365 C23.7588175,22.0344725 23.6206564,21.5521257 23.0595532,21.2259266 L16.9254831,17.6692873 C16.36391,17.343623 15.9395581,17.5008403 15.6533672,18.1398696 L12.5278252,25.11946 C12.2416344,25.7590241 12.3793255,26.2413709 12.9408986,26.5670352 L19.0749688,30.1236745 C19.6370118,30.4493388 20.0608938,30.2926563 20.3470846,29.653627 Z M25.5055684,23.8526312 L22.3795563,30.8322216 C21.40303,33.0140121 19.9560981,33.5487646 18.0387607,32.4370141 L11.9051604,28.8809095 C9.98782294,27.7691589 9.51788728,26.1221211 10.4944136,23.9408654 L13.6204256,16.9612749 C14.5974218,14.7794845 16.0443537,14.2441972 17.9612213,15.3559477 L24.0952914,18.912587 C26.012159,20.0243376 26.4820947,21.6708407 25.5055684,23.8526312 L25.5055684,23.8526312 Z" id="Fill-9" fill-opacity="0.4" fill="#C4C0D5"></path>
            </g>
        </g>
    </g>
</svg>