<svg xmlns="http://www.w3.org/2000/svg" width="69" height="69" viewBox="0 0 69 69">
    <g fill="none" fill-rule="evenodd">
        <path fill="#33302E" d="M14.15 24.809c-.195-.251-.514-.328-.673-.636-.38-.733.427-.971.963-.741.376.16 1.252-.078 1.685-.074.698.103 1.37.232 1.85.803.63.603.081.936-.538.933-.248-.201-1.14-.066-1.454-.041-.679.055-1.204.067-1.833-.244M27.262 28.632c-.3-.218-.685-.166-1.006-.345-.924-.517.48-1.104.956-1.101 1.67.009 2.096 1.378 3.227 2.254.327.319 1.881 1.439 1.61 1.939-.275.502-1.555-.086-1.869-.238-1.236-.598-1.787-1.854-2.918-2.51M39.957 21.306c-.388-.092-1.126-.16-1.093-.724.031-.526.763-.724 1.193-.767.734-.074 1.434.189 1.98.674.48.429.793.877 1.003 1.488.272.792.046 1.366-.808.862-.822-.487-1.365-1.164-2.275-1.533M35.591 41.069c-.193-.344-1.013-2.036-.395-2.323.63-.291 1.535 1.42 1.86 1.792.55.632 1.335 1.169 2.148 1.355.904.207 1.72-.032 2.604.054.497.08.972.282 1.1.815.1.417-.052.958-.526.568-.229-.188-.347-.24-.633-.151-.636.195-1.18.384-1.854.448-.752.047-1.537-.154-2.206-.465-.419-.233-.835-.475-1.188-.81-.116-.11-1.02-1.12-.91-1.283M28.1 16.02c-.522-.15-1.4-1.456-.396-1.553.54-.052 1.113.284 1.671.305 1.22.048 2.697-.361 3.271 1.112.383.98-.068 1.103-.862.714-.307-.15-.494-.29-.885-.27-1.045.05-1.83.346-2.799-.308M18.562 31.593c-.345-.147-.998-1.59-.58-1.891.54-.39 1.497.757 1.854 1.043 1.075.864 2.441 1.377 3.478 2.269.351.302.618.65.883 1.025.15.333.426 1.338-.325.972-.623-.302-1.166-.708-1.82-.988-1.34-.572-2.61-1.234-3.49-2.43"/>
        <path fill="#33302E" d="M14.748 49.197a53.055 53.055 0 0 1 1.905-2.131c-2.617-1.952-4.924-4.288-7.13-6.924-2.002-2.39-3.603-4.772-4.829-7.667-1.784-4.215-.77-8.064.402-12.217 1.026-3.633.638-4.895 4.73-7.05 1.99-1.05 3.65-2.204 5.851-2.844 6.196-1.8 13.302-1.69 19.481.107 4.635 1.347 9.116 4.29 13.026 7.215.626-.67 1.246-1.351 1.866-2.032-3.433-2.88-7.579-5-11.57-7.017-6.455-3.263-15.134-3.125-22.013-1.525-3.74.869-6.33 2.922-9.786 4.44-2.697 1.188-2.97 2.95-3.274 5.582-.419 3.654-2.237 6.869-2.028 10.627.175 3.163 1.183 6.41 2.741 9.157 2.588 4.56 6.32 8.978 10.628 12.279M53.613 19.32c-.569.614-1.145 1.22-1.72 1.823 3.815 5.113 2.98 12.16 1.912 18.364-.956 1.705-3.453 3.105-4.756 4.649-1.742 2.065-3.78 3.608-6.058 4.9a2.43 2.43 0 0 0-.314-.456c-.284-.324-.809-.855-1.264-.5-.397.304-.194.77-.08 1.154.05.203.093.409.138.615-.107.053-.21.109-.318.162-.782.384-1.584.713-2.399.998a4.432 4.432 0 0 0-.574-2.763c-.203-.346-.694-1.003-1.126-.524-.303.336-.097.95-.072 1.338.091.857.057 1.667-.006 2.49a22.52 22.52 0 0 1-2.406.486c.318-.833.485-1.658.242-2.546 0-.363-.385-1.146-.789-1.215-.704-.118-.663.855-.705 1.278-.12.916-.289 1.754-.499 2.653l-.002.007c-.73.048-1.46.06-2.19.037.217-.55.315-1.097.141-1.69-.33-1.132-1.269-1.16-1.495.004-.117.517-.199 1.05-.327 1.57a22.301 22.301 0 0 1-2.804-.483 3.1 3.1 0 0 0 .367-.357c.376-.44.62-.925.606-1.518-.022-.987-.989-1.482-1.434-.42-.363.574-.62 1.209-.989 1.778a.69.69 0 0 0-.05.102 21.568 21.568 0 0 1-1.533-.536c-.2-.08-.386-.175-.584-.26.234-.2.42-.445.508-.768.194-.703-.275-1.338-.885-1.063l-2.602 3.078-.323.382c6.945 3.669 13.928 3.934 21.352 1.329 3.394-1.192 6.328-3.392 8.86-5.882 2-1.97 4.646-3.738 6.088-6.14.158-.138.284-.358.362-.67.045-.13.072-.262.081-.394 1.008-5.813 2.306-13.224-.739-18.601a19.923 19.923 0 0 0-1.614-2.41"/>
        <path fill="#33302E" d="M14.148 18.084c2.296.26 4.497.859 6.722 1.458 2.574.675 5.117 1.374 7.612 2.297 2.992 1.107 5.646 2.845 8.374 4.47a24.73 24.73 0 0 0 1.77.945c.423-.404.85-.807 1.27-1.212-2.248-1.15-4.369-2.488-6.517-3.811-1.922-1.184-4.09-1.951-6.204-2.71-1.93-.55-3.896-.995-5.858-1.407-2.185-.46-4.372-.992-6.614-1.05-.38-.01-3.52-.004-3.506.57.01.412 2.655.416 2.951.45M44.48 28.566l-1.046 1c1.084.58 2.126 1.23 3.062 2.052 1.073.942 1.821 1.925 2.596 3.127.415.71.751 1.479 1.213 2.16.403.595.273-.305.22-.547-.785-3.545-3.192-5.936-6.046-7.792M40.312 33.037c-.112-.075-.237-.13-.355-.195-.457.427-.915.854-1.375 1.28.64.194 1.254.469 1.85.784.315.157 1.173.684 1.475.283.445-.59-1.159-1.86-1.595-2.152"/>
        <path fill="#FF0434" d="M31.991.01C23.578.2 16.395 3.83 10.977 9.35c1.706-.913 3.422-1.758 5.49-2.238 3.392-.79 7.223-1.22 11.01-1.066a28.495 28.495 0 0 1 6.01-.524c7.12.136 13.93 2.766 19.25 7.098-7.027 8.137-14.594 15.177-22.572 22.525-3.259 3-6.536 5.73-10.892 9.425-2.663 2.258-4.913 5.03-7.13 7.79-3.159-3.692-5.447-8.108-6.464-12.935a40.763 40.763 0 0 1-1.559-2.507c-1.558-2.747-2.566-5.994-2.74-9.157a11.03 11.03 0 0 1 .011-1.398 39.554 39.554 0 0 0-1.386 9.576c-.37 19.493 18.167 33.34 36.48 32.908 19.064-.45 31.65-19.047 31.985-36.68C68.01 12.645 50.748-.41 31.991.01zm3 63.325c-7.107-.142-13.843-2.876-19.118-7.287 1.225-1.448 2.448-2.895 3.673-4.341.891-1.054 1.783-2.11 2.675-3.162-.295.348.475-.48 1.24-1.128 3.675-3.117 7.402-6.172 10.946-9.436C42.155 30.844 49.562 24 56.443 16.195c4.156 4.75 6.786 10.784 6.945 17.492-.306 16.105-11.626 29.986-28.398 29.648z"/>
    </g>
</svg>
