<svg xmlns="http://www.w3.org/2000/svg" width="69" height="69" viewBox="0 0 69 69">
    <g fill="none" fill-rule="evenodd">
        <path fill="#33302E" d="M4.825 24.065c-.905-3.736-1.529-7.284.911-10.707 2.186-3.066 6.047-4.824 9.702-5.211 6.982-.74 11.934 4.161 16.034 9.025 3.198 3.791 5.576 6.195 10.172 7.594l2.413-2.223c-3.77-1.111-6.545-2.363-9.32-6.028-2.267-2.992-5.029-6.29-8.304-8.225-5.859-3.463-12.333-3.134-18.22-.087C1.472 11.691.358 18.24 2.005 24.978c.01.043.03.077.043.115.01.059.016.119.036.179C4.41 32.2 9.601 37.395 16.155 40.458c1.931.903 3.991 1.319 6.037 1.769.796-.67 1.59-1.341 2.382-2.013-2.147-.571-4.35-1.047-6.558-1.885-6.217-2.359-11.094-8.08-13.19-14.264M61.252 36.049c-1.992-5.508-6.93-9.847-12.333-12.008-.762.765-1.529 1.521-2.299 2.269 4.431 1.68 7.834 4.132 10.751 8.666 2.514 3.908 2.432 7.626.703 10.543a1.477 1.477 0 0 0-.735-.491c-.66-.205-1.277.509-.852 1.106.037.097.28.552.492.886a11.444 11.444 0 0 1-1.686 1.556 3.802 3.802 0 0 0-.112-.484c-.232-.753-.564-1.389-1.196-1.885-.298-.234-.834-.638-1.242-.468-.67.28-.142 1.018.071 1.397.407.741.875 1.504 1.171 2.309a14.48 14.48 0 0 1-2.518 1.139c.038-.24.061-.484.051-.732-.037-.913-.234-1.599-.707-2.378-.208-.343-.7-.965-1.16-.923-.764.071-.348 1.076-.235 1.476.251.958.557 1.978.604 2.98-.58.142-1.177.257-1.79.337-.293.038-.578.051-.864.066.118-.29.207-.581.258-.835.312-1.415.227-2.783-.404-4.097-.16-.334-.763-1.513-1.255-.892-.315.397-.052 1.176-.012 1.62.04.349.206 3.11.058 4.201a11.966 11.966 0 0 1-3.013-.613c.17-.298.31-.612.403-.931.35-1.195.4-2.322-.053-3.501-.14-.37-.58-1.4-1.13-.892-.35.323-.197 1.026-.212 1.44 0 .334-.072 2.334-.257 3.404a18.699 18.699 0 0 1-1.81-.925c.105-.191.193-.381.26-.559.35-.933.458-1.714.33-2.701-.054-.414-.263-1.294-.749-1.422-.727-.191-.704.975-.752 1.376-.112.821-.224 1.663-.433 2.474a41.93 41.93 0 0 1-2.393-1.738c.44-.553.76-1.153.72-1.886-.066-1.2-.902-1.355-1.428-.316-.204.378-.423.759-.637 1.142-.968-.776-1.92-1.551-2.867-2.268a15.524 15.524 0 0 0-2.424-1.501 424.1 424.1 0 0 1-2.17 1.853c.262.123.53.233.785.377 3.382 1.89 6.163 4.915 9.427 7.03 10.716 6.943 28.6-1.501 23.644-15.201"/>
        <path fill="#33302E" d="M12.671 20.243l.86.633c-.088.381-.153.77-.19 1.166-.105 1.102-.307 2.335-.14 3.444.132.873.564-.168.657-.492.285-.989.505-2.006.728-3.011.021-.095.054-.18.078-.272l2.101 1.546a31.485 31.485 0 0 0 2.743 1.765c-.173.595-.318 1.206-.306 1.829.004.237.11 1.237.577.862.475-.382.726-1.282.99-1.976 1.585.875 3.197 1.706 4.754 2.64a5.38 5.38 0 0 0-.097.624c-.04.436-.202 2.475.63 2.478.53.009.722-1.951.832-2.276a.221.221 0 0 1 .016-.037c1.672.909 3.401 1.688 5.115 2.502-.209.471-.386.964-.464 1.432-.182 1.111.925-.117 1.566-.899.097.048.191.101.288.149l1.252-1.153c-.158-.088-.31-.181-.47-.267.891-.917 1.953-1.638 3.04-2.321l.17.065a4866.7 4866.7 0 0 0 3.34-3.077c-.027-.01-.049-.022-.085-.029-.778-.147-1.79.446-2.489.714-.357.145-.713.307-1.067.479-1.58-.665-3.135-1.369-4.649-2.196-.458-.251-.888-.54-1.309-.843.405-.355 1.398-1.306.374-1.172-.45.059-.9.208-1.34.404-1.065-.898-2.047-1.905-3.002-2.917l-.418-.442c.635-.301 1.386-.692 1.5-1.079.126-.429-1.245-.145-2.376.167-1.373-1.409-2.882-2.822-4.544-3.909.071-.046.148-.083.218-.131.215-.144 1.064-.852.308-.843-.509.006-1.038.157-1.559.35-1.6-.87-3.34-1.397-5.239-1.307a9.204 9.204 0 0 0-2.158.371c-.125.037-.689.239-.309.379 1.083.401 2.41.124 3.542.359.898.187 1.715.493 2.488.88-2.204.881-3.863 2.64-4.705 4.788-1.31-.957-2.584-1.954-3.769-3.019-.105-.095-.94-.803-.74-.198.157.479.476.945.763 1.354.664.949 1.563 1.8 2.495 2.486zm17.176 4.634c1.683 1.212 3.51 2.136 5.418 2.942-.962.661-1.818 1.459-2.46 2.42-.117-.055-.224-.116-.34-.17-1.624-.751-3.2-1.585-4.766-2.436.298-.561.582-1.08.656-1.171.46-.57.966-1.087 1.492-1.585zm-4.224-4.022c.884 1.008 1.804 2.028 2.812 2.912.052.046.106.085.16.13-.287.211-.557.431-.803.647-.64.714-1.23 1.437-1.666 2.238a209.042 209.042 0 0 0-4.598-2.475c.975-1.574 2.13-2.872 3.698-3.886.13.146.267.286.397.434zm-5.943-5.157l.238-.127c.647.421 1.273.892 1.897 1.397 0 .099.677.552.748.614l.971.99c.227.231.435.479.655.716a9.194 9.194 0 0 0-4.118 4.257 58.977 58.977 0 0 1-4.99-3.08c.883-2.114 2.5-3.633 4.6-4.767zM46.42 32.2c-.035-.042-.075-.078-.11-.119.463-.36.965-.654 1.51-.828.41-.131 2.26-.443 2.222-.912-.042-.523-1.845-.353-2.167-.316a6.401 6.401 0 0 0-2.369.76c-.104.056-.204.123-.305.187-.615-.539-1.288-.99-1.982-1.41-.376.353-.752.707-1.13 1.06.413.215.82.444 1.215.699.273.176.52.375.771.57-.637.638-1.196 1.382-1.698 2.071a10.193 10.193 0 0 0-1.204 2.143 35.43 35.43 0 0 0-2.279-2.04c-.095-.077-.19-.145-.286-.22l-1.06.976a48.767 48.767 0 0 1 3.196 2.575c-.032.123-.072.238-.1.366-.035.203-.132 3.484.575 2.777.432-.432.581-1.319.742-2.077.505.444 1.007.887 1.51 1.32.764.658 1.61 1.223 2.473 1.743.488.294 1.323.951 1.932.935.266-.007-.514-.734-.552-.768-.688-.6-1.406-1.163-2.099-1.756-.999-.856-1.932-1.773-2.865-2.689.464-1.062 1.216-2.014 1.892-2.934.322-.438.681-.893 1.076-1.32.683.693 1.304 1.45 1.901 2.257.792 1.069 1.51 2.25 2.014 3.481.245.598.146 1.426.484 1.96.153.242.321-1.039.324-1.106.076-1.429-.699-2.894-1.379-4.104A21.502 21.502 0 0 0 46.42 32.2"/>
        <path fill="#FF0434" d="M68.982 31.982c.008-.088.028-.173.026-.263C68.568 13.041 51.454-.397 33.356.009c-6.87.154-13.06 2.35-18.198 5.954 2.683-.353 5.388-.113 8.02.809a25.784 25.784 0 0 1 10.156-1.864c7.495.143 14.508 2.932 19.872 7.523l-4.166 4.983c-2.014 2.408-1.06 1.515-3.055 3.353l-15.33 14.12c-3.538 3.259-7.26 6.308-10.929 9.419-2.68 2.274-4.969 5.069-7.195 7.861-3.895-4.66-6.423-10.466-6.874-16.822a28.55 28.55 0 0 1-.035-3.32 24.192 24.192 0 0 1-3.537-6.753c-.02-.06-.027-.12-.036-.179-.014-.038-.033-.072-.043-.115-.06-.246-.109-.491-.16-.736A37.857 37.857 0 0 0 .005 35.19c-.36 18.893 17.471 33.508 35.657 33.08 19.261-.454 32.996-17.353 33.35-35.934.002-.129-.019-.238-.03-.354zm-7 10.27a11.23 11.23 0 0 1-1.526 4.248c-4.257 9.793-12.948 17.107-24.77 16.869-7.43-.149-14.37-3.033-19.714-7.693l3.677-4.346 2.675-3.161c-.355.42.438-.401 1.227-1.07 3.67-3.113 7.37-6.18 10.91-9.441 7.815-7.198 14.993-13.615 22.126-21.832 4.021 4.736 6.556 10.725 6.79 17.401a36.276 36.276 0 0 1-1.396 9.025z"/>
    </g>
</svg>
