<svg xmlns="http://www.w3.org/2000/svg" xmlns:xlink="http://www.w3.org/1999/xlink" width="251" height="165" viewBox="0 0 251 165">
    <defs>
        <path id="a" d="M0 0h251v67.151H0z"/>
        <path id="c" d="M0 0h251v71.512H0z"/>
    </defs>
    <g fill="none" fill-rule="evenodd">
        <path fill="#EDC96D" d="M0 0h251v165H0z"/>
        <g>
            <path fill="#996E79" d="M251 71.206l-.054-62.485H.25L0 73.974c1.398.294 4.132.343 5.296.012a2.994 2.994 0 0 0 1.973-1.724c1.878-4.607-.524-9.697 1.398-14.398 2.282-5.583 10.07-5.667 16.792-7.102 1.293-.276 2.786-.527 3.986-.197.261.07.507.17.735.302.364.21.636.485.839.786.165.239.288.496.384.752 1.267 3.43.186 13.48 1.405 17.578.068.233.146.448.231.64.284.64.733 1.252 1.34 1.758a5.26 5.26 0 0 0 1.175.736c1.228.564 4.12.707 5.417.233.999-.365 1.712-1.043 2.216-1.764 2.169-3.09-3.945-9.907 1.386-17.117.565-.766 1.46-1.485 2.643-1.646 1.15-.156 2.281.25 3.386.524 4.714 1.175 9.214-.286 13.373-1.83 4.734-1.758 5.655.932 10.76 2.902 3.399 1.312 5.907 3.551 9.476 4.665 5.572 1.737 9.016-.886 13.978-2.086 5.72-1.383 11.92-1.318 17.176 1.007 1.571.696 2.997 1.554 4.62 2.183 4.012 1.556 8.788 1.564 13.344 1.533 3.96-.025 8.338-.168 11.195-2.144 1.154-.799 1.94-1.829 2.981-2.704 2.724-2.29 7.27-3.367 11.348-2.69 1.476.245 2.87.717 4.091 1.358 1.775.927 3.2 2.209 4.024 3.671.18.315.329.638.45.969.838 2.319.25 4.764.18 7.161-.03 1.029.07 2.104.397 3.116.361 1.115.996 2.153 2.04 2.97.214.17.447.329.7.479 2.623 1.55 6.735 1.388 9.44-.087 2.706-1.473 4.047-4.016 3.939-6.46-.098-2.167-1.057-4.694 1.044-6.246.916-.68 2.229-.984 3.486-1.262 5.685-1.265 12.41-2.41 17.196.042.128.063.254.132.38.202 1.57.888 2.74 2.122 4.156 3.125.605.43 1.255.817 2.003 1.115 3.147 1.262 7.098.617 10.406-.41 3.309-1.025 6.519-2.422 10.108-2.624 3.15-.178 5.979.513 8.306 1.728 2.545 1.328 4.49 3.286 5.597 5.422a9.62 9.62 0 0 1 .648 1.553c.025.077.05.155.08.23.289.755.796 1.452 1.303 2.159.027.04.057.08.085.12.34.476 1.558 1.229 2.088 1.48v-2.788"/>
            <g transform="translate(0 6.977)">
                <mask id="b" fill="#fff">
                    <use xlink:href="#a"/>
                </mask>
                <path fill="#D8648F" d="M251 65.414a4.584 4.584 0 0 1-.216-.081c-.366-.158-.75-.338-1.245-.583-.863-.424-1.438-.778-1.827-1.332a4.94 4.94 0 0 1-.188-.292c-.229-.383-.417-.825-.595-1.388a7.234 7.234 0 0 0-.133-.386c-.853-2.347-2.643-4.484-5.075-6.054-2.85-1.838-6.263-2.882-9.87-2.68-2.843.16-5.449 1.038-7.971 1.889-.753.254-1.531.516-2.297.752-4.124 1.273-7.477 1.595-9.965.604-1.35-.54-2.372-1.381-3.45-2.271-.812-.667-1.647-1.358-2.644-1.917-4.82-2.709-11.516-1.926-18.034-.484-1.188.262-2.668.592-3.698 1.349-1.802 1.327-1.56 3.402-1.33 5.233.065.496.123.966.143 1.424.11 2.473-1.32 4.64-3.737 5.949-2.62 1.42-6.493 1.642-8.818.275a5.556 5.556 0 0 1-2.055-2.073c-.766-1.35-.937-2.9-.899-4.172.018-.626.073-1.272.128-1.894.146-1.692.296-3.439-.256-5.124a5.382 5.382 0 0 0-.07-.206c-1.1-3.022-4.692-5.705-8.938-6.406-4.247-.701-9.004.419-11.84 2.79-.437.366-.828.756-1.21 1.136-.557.555-1.087 1.08-1.74 1.53-2.655 1.829-6.817 2.007-10.85 2.034-4.267.029-9.104.24-13.1-1.302-.918-.354-1.797-.797-2.648-1.225-.63-.316-1.277-.642-1.95-.938-4.992-2.198-11.242-2.745-17.598-1.216-1.405.338-2.678.782-3.91 1.214-3.16 1.102-5.891 2.235-9.709 1.052-1.915-.595-3.61-1.52-5.248-2.414-1.36-.742-2.769-1.51-4.323-2.107-1.651-.635-2.833-1.354-3.875-1.99-2.1-1.276-3.76-2.466-7.219-1.188-4.114 1.52-8.504 3.091-12.976 1.982a34.382 34.382 0 0 1-.58-.151c-.974-.26-1.987-.734-3.065-.565-1.734.272-2.239.987-2.994 2.004-3.329 4.476-2.322 8.732-1.511 12.15.479 2.033.896 3.79.12 4.887-.547.777-1.217 1.135-1.993 1.415-1.112.405-3.825.466-4.922-.034a4.65 4.65 0 0 1-2.01-1.735 4.513 4.513 0 0 1-.294-.552c-.803-1.8-.849-5.665-.891-9.402-.04-3.3-.078-6.43-.605-8.283a4.568 4.568 0 0 0-.136-.425c-.293-.786-.748-1.348-1.393-1.719-1.415-.815-3.326-.743-5.178-.349-1.28.274-2.623.5-3.923.72-5.547.937-11.227 1.737-13.208 6.772-.95 2.417-.86 4.922-.733 7.354.126 2.442.246 4.747-.665 6.97-.293.716-.936 1.093-1.694 1.307-.976.275-2.312.444-3.697.153L0 65.392v.747c1.566.313 3.313.304 4.476-.025 1.041-.295 1.892-1.024 2.271-1.95.956-2.336.828-4.809.703-7.2-.123-2.374-.251-4.829.693-7.124 1.762-4.287 6.967-5.164 12.477-6.096 1.313-.221 2.67-.451 3.978-.728 1.592-.338 3.208-.569 4.265.04.22.127.416.292.582.5.188.23.341.508.467.843.627 1.681.668 5.163.708 8.527.042 3.791.09 7.712.938 9.616.515 1.16 1.484 2.111 2.721 2.676l.1.043c1.439.597 4.423.71 5.816.205.97-.352 1.79-.996 2.438-1.913.92-1.308.479-3.173-.03-5.33-.784-3.311-1.758-7.433 1.408-11.693.351-.475 1.12-1.295 2.294-1.455.808-.108 1.644.115 2.527.35.201.054.402.108.603.159 4.849 1.201 9.46-.252 13.767-1.844 2.861-1.055 4.014-.354 6.107.92 1.082.658 2.307 1.404 4.051 2.073 1.483.57 2.859 1.32 4.19 2.046 1.683.921 3.428 1.872 5.456 2.502 4.242 1.316 7.304.246 10.55-.887 1.202-.419 2.444-.854 3.787-1.178 6.07-1.46 12.02-1.115 16.754.968.645.284 1.28.604 1.898.913.873.441 1.78.896 2.748 1.27 4.222 1.63 9.194 1.597 13.584 1.568 4.237-.029 8.617-.223 11.539-2.233.72-.495 1.298-1.072 1.86-1.63.369-.367.748-.746 1.157-1.088 2.598-2.172 6.96-3.2 10.853-2.557 1.96.324 3.768 1.068 5.208 2.079 1.421.996 2.485 2.253 2.982 3.627.595 1.639.442 3.4.294 5.104-.053.631-.11 1.282-.128 1.924-.093 3.127 1.054 5.485 3.32 6.818.199.117.407.224.623.323 1.225.567 2.696.85 4.2.85 1.827 0 3.702-.418 5.238-1.252 2.673-1.448 4.257-4.025 4.136-6.726-.02-.479-.085-.98-.145-1.466-.224-1.746-.432-3.397 1.049-4.487.85-.626 2.138-.912 3.275-1.163 6.255-1.385 12.66-2.322 17.119.183.323.184.632.383.933.595.55.389 1.065.813 1.57 1.227.898.743 1.824 1.505 2.966 2.084.24.124.492.24.755.344 2.774 1.106 6.424.974 10.849-.39.783-.242 1.568-.508 2.329-.763 2.437-.822 4.96-1.673 7.62-1.822 3.655-.205 6.835.817 9.27 2.44 2.394 1.597 4.063 3.775 4.751 5.94.244.77.51 1.338.866 1.846.502.717 1.26 1.156 2.01 1.532l.144.07c.512.252.908.437 1.292.604.361.159.584.232.738.261v-.795" mask="url(#b)"/>
                <path fill="#FFA9BD" d="M250.945 0H0v65.253c1.398.295 2.877.343 4.04.013a2.996 2.996 0 0 0 1.974-1.725c1.877-4.607-.526-9.696 1.397-14.397 2.283-5.584 10.07-5.668 16.792-7.104 1.574-.336 3.443-.635 4.722.105.651.377 1.006.959 1.221 1.54 1.342 3.623.056 14.645 1.638 18.218.443.998 1.286 1.931 2.514 2.494 1.229.562 4.12.707 5.418.233 1-.365 1.711-1.044 2.216-1.764 2.168-3.092-3.947-9.907 1.384-17.118.566-.766 1.461-1.485 2.645-1.646 1.15-.156 2.28.248 3.386.524 4.713 1.175 9.212-.286 13.373-1.831 4.733-1.758 5.519 1.039 10.625 3.01 3.399 1.312 6.041 3.444 9.61 4.557 5.571 1.738 9.016-.884 13.977-2.084 5.722-1.384 11.92-1.32 17.177 1.006 1.57.695 2.998 1.555 4.621 2.184 4.01 1.555 8.788 1.562 13.342 1.532 3.961-.026 8.338-.168 11.195-2.144 1.154-.798 1.942-1.829 2.983-2.704 2.723-2.29 7.268-3.366 11.347-2.689 4.078.678 7.508 3.08 8.563 5.997.84 2.32.252 4.764.182 7.162-.07 2.397.564 5.044 3.138 6.565 2.623 1.55 6.733 1.387 9.44-.087 2.706-1.474 4.045-4.018 3.937-6.46-.096-2.167-1.055-4.694 1.045-6.248.917-.679 2.23-.982 3.486-1.262 5.837-1.298 12.77-2.47 17.576.245 2.244 1.268 3.667 3.242 6.16 4.24 3.147 1.261 7.098.617 10.406-.41 3.308-1.025 6.517-2.422 10.108-2.624 7.414-.418 13.055 3.97 14.55 8.703.251.797.69 1.57 1.372 2.228.745.72 1.746 1.174 2.805 1.622.039.016.635.213.635.213L250.945 0" mask="url(#b)"/>
            </g>
            <path fill="#FFD4DB" d="M18 49.592s.048-.036.14-.097c.093-.057.226-.153.393-.258.334-.215.805-.507 1.373-.836.57-.327 1.241-.69 2.01-1.033.19-.088.39-.17.594-.25l.31-.122.078-.03.09-.031.153-.054.311-.106.342-.104c.229-.07.46-.124.693-.183.233-.054.475-.1.712-.142.246-.035.486-.073.735-.093.25-.017.492-.039.746-.03l.372.004c.125.004.251.021.374.032a5.71 5.71 0 0 1 1.424.32c.22.085.43.192.623.29.187.121.363.24.52.36.145.14.28.27.397.398.106.14.194.275.272.401.084.123.127.253.171.37.042.116.081.219.107.314.035.198.042.353.053.454.008.103.007.157.007.157l-.14-.1c-.085-.066-.218-.156-.363-.27-.08-.049-.17-.102-.268-.16-.099-.053-.183-.125-.304-.167-.115-.046-.223-.104-.343-.15-.129-.034-.253-.075-.379-.113l-.408-.074c-.15-.004-.287-.03-.44-.03a7.219 7.219 0 0 0-.97.046c-.341.03-.71.1-1.086.168-.188.031-.383.081-.577.114l-.592.135-.6.14-.616.148c-.405.092-.815.19-1.22.275-.809.175-1.603.31-2.304.374-.701.067-1.305.059-1.727.024-.212-.014-.378-.044-.49-.06-.112-.017-.173-.03-.173-.03M224 60.628l.261-.146c.174-.09.423-.23.748-.395.652-.331 1.584-.8 2.806-1.274a20.584 20.584 0 0 1 2.063-.679c.764-.204 1.61-.38 2.52-.477l.172-.02.086-.009.138-.008.318-.018.644-.032c.112-.003.207-.015.334-.011l.374.008.757.028c.26.004.49.043.735.067.242.027.485.055.727.087.478.083.954.184 1.427.284l.686.2c.226.07.462.126.675.213.217.08.434.162.647.247l.32.125.302.144.599.286c.2.092.375.208.559.313l.539.32c.177.105.33.23.493.342.16.115.317.23.474.342.148.119.287.24.425.36l.408.356c.124.123.244.245.359.367.115.122.229.241.34.36.108.12.203.242.298.362.184.242.378.467.516.703.143.233.293.45.408.664.107.219.211.423.3.617.097.191.155.38.215.55l.155.47c.072.288.104.517.135.67l.037.235-.174-.203-.468-.57-.355-.392c-.133-.14-.25-.3-.418-.453-.154-.158-.32-.325-.492-.5-.18-.173-.379-.348-.578-.532-.191-.187-.424-.365-.652-.552-.117-.092-.224-.192-.347-.285l-.381-.276-.385-.285c-.138-.089-.278-.18-.42-.27l-.424-.277-.457-.26c-.154-.084-.303-.177-.463-.26l-.488-.241c-.32-.171-.675-.305-1.017-.456l-.258-.11-.273-.094a23.528 23.528 0 0 1-.542-.191c-.176-.073-.371-.112-.557-.168l-.563-.158c-.384-.084-.768-.172-1.155-.245a22.123 22.123 0 0 1-.587-.084c-.194-.027-.394-.07-.577-.075-.186-.014-.372-.028-.558-.045l-.277-.028c-.09-.01-.212-.005-.316-.008l-.645-.007-.319-.006h-.06c-.016 0 .104-.005.049-.003h-.009l-.071.002-.144.005c-1.525.042-2.993.288-4.266.532-1.275.247-2.36.486-3.13.63-.385.076-.693.125-.9.162l-.323.052M187 56.505s.373-.171 1.042-.433c.332-.133.747-.28 1.226-.446a32.717 32.717 0 0 1 2.593-.761c.335-.081.684-.16 1.044-.24.363-.075.74-.14 1.124-.213.39-.064.79-.116 1.199-.174.412-.045.834-.085 1.263-.12.434-.019.871-.049 1.318-.048.894-.001 1.813.042 2.728.177l.683.107.674.152c.453.087.88.242 1.306.38.106.036.213.07.317.107l.303.129.593.263.146.066.137.076.271.153c.18.1.355.205.528.307l.086.051.162.114.215.15c.156.116.315.236.458.353.272.23.53.455.76.68.463.45.853.879 1.21 1.269.353.391.677.74.977 1.046.297.307.58.558.82.767.247.201.444.367.594.466l.223.164s-.104-.023-.298-.073a7.449 7.449 0 0 1-.824-.26 9.924 9.924 0 0 1-1.19-.549 17.715 17.715 0 0 1-1.39-.847c-.466-.32-.971-.665-1.506-1.03-.263-.176-.526-.352-.803-.52-.136-.079-.265-.152-.397-.232l-.238-.13-.12-.065-.06-.033-.007-.004c.043.026.008.005.015.01l-.014-.006-.029-.013c-.152-.068-.307-.134-.457-.206l-.227-.107-.114-.054-.123-.043-.49-.176-.244-.092c-.085-.027-.173-.049-.259-.073l-.519-.147a2.161 2.161 0 0 0-.265-.065l-.271-.057-.543-.116-.562-.08c-.745-.122-1.524-.163-2.296-.202-.192-.015-.389-.004-.582-.01l-.579-.01c-.386.008-.77.02-1.148.022-.38.018-.753.039-1.123.05-.368.024-.729.053-1.084.07-.706.057-1.381.107-2.006.165l-1.72.152c-.512.048-.965.081-1.34.113-.375.031-.675.044-.875.059-.204.01-.312.017-.312.017M167.45 66.28s.024.058.059.17c.033.112.096.27.166.468.149.396.37.946.744 1.515.184.285.409.572.676.848l.05.052c-.01-.013.026.033-.02-.028l.003.003.008.007.016.015.03.03.123.118.124.12c.041.04.085.087.122.108.16.105.278.22.473.336.172.12.367.226.557.335.093.057.205.098.306.148.102.05.2.103.313.143l.325.133c.115.036.23.074.341.115.11.043.23.074.348.106.12.03.233.072.356.094.478.125.98.192 1.476.255.501.037 1 .069 1.488.049.244-.003.482-.031.72-.044l.348-.04.162-.019.194-.03c.44-.067.89-.168 1.29-.272.812-.21 1.494-.461 1.979-.648.24-.096.438-.17.568-.225l.205-.082s-.035.057-.109.16c-.076.102-.185.256-.349.438A6.984 6.984 0 0 1 178.888 72a8.646 8.646 0 0 1-1.403.67l-.18.068c-.09.03-.145.045-.22.068l-.434.13c-.147.043-.3.07-.453.104-.153.03-.309.069-.467.088-.159.023-.319.048-.481.068-.163.02-.327.025-.492.038-.331.032-.665.019-1.003.016-.672-.03-1.35-.12-2.004-.277-.645-.174-1.283-.378-1.841-.68-.564-.29-1.077-.633-1.483-1.03a5.039 5.039 0 0 1-.58-.634c-.05-.058-.073-.102-.103-.15l-.174-.277-.02-.034-.01-.017-.006-.01-.002-.003c-.05-.065-.015-.021-.027-.037l-.04-.08a4.062 4.062 0 0 1-.413-1.234c-.126-.78.002-1.42.13-1.848.064-.214.14-.382.186-.492.05-.11.082-.169.082-.169M143 55.803l.793-1.077c.255-.342.57-.758 1.007-1.218l.356-.344.18-.172.216-.178c.148-.12.302-.247.465-.366l.507-.351a13.83 13.83 0 0 1 2.53-1.274 16.61 16.61 0 0 1 3.226-.871l.891-.126.916-.08.936-.037c.314.001.63.01.949.017l.956.066.478.058.239.031.12.016.06.008.014.002.059.01.026.005c.289.055.562.1.864.163.321.077.657.151.967.237 1.214.348 2.362.82 3.373 1.403.509.287.986.6 1.419.937.217.169.435.334.628.514.201.175.395.352.568.54a8.444 8.444 0 0 1 1.63 2.305c.186.395.315.78.424 1.172l.058.264.053.288c.03.189.055.364.067.541a8.46 8.46 0 0 1-.069 1.889c-.08.552-.187 1.024-.288 1.41-.097.386-.198.687-.258.892l-.104.314-.048-.321-.122-.904c-.051-.388-.11-.856-.204-1.383a11.371 11.371 0 0 0-.425-1.723c-.054-.151-.108-.31-.17-.459l-.093-.223c-.04-.084-.078-.168-.117-.253-.157-.294-.324-.616-.542-.92a9.17 9.17 0 0 0-1.629-1.785c-.157-.146-.34-.276-.517-.413-.17-.141-.364-.267-.554-.396-.185-.134-.393-.25-.595-.372-.195-.128-.415-.234-.625-.35a14.51 14.51 0 0 0-2.787-1.1c-.24-.069-.47-.12-.706-.184-.263-.058-.562-.111-.84-.167l-.345-.049-.385-.06-.776-.077-.78-.04-.776-.008-.77.028c-.253.022-.507.037-.759.056-1.002.099-1.964.274-2.85.508-.887.232-1.699.52-2.42.832l-.522.24c-.167.08-.313.166-.47.244l-.23.119-.226.138-.22.135-.107.065-.054.032-.014.008-.006.004c.004-.003-.018.013.006-.006l-.025.016c-.524.34-.967.675-1.34.946-.37.274-.679.482-.886.623-.21.141-.327.21-.327.21M93 54.963l.285-.165c.188-.104.459-.264.813-.454.353-.192.787-.42 1.301-.668a20.581 20.581 0 0 1 1.803-.764l.263-.094.279-.09.538-.174.276-.088.3-.081.618-.166c.418-.113.85-.192 1.292-.293.447-.082.905-.166 1.378-.23.472-.063.954-.127 1.449-.158.247-.018.494-.045.745-.055l.758-.023c.253-.012.509-.004.765-.002.256.004.514.001.771.018.515.035 1.033.058 1.546.123 1.03.11 2.044.307 3.016.554.482.135.964.26 1.415.43.228.08.457.156.678.24.22.088.434.181.647.27l.317.135c.104.047.203.098.304.147.202.098.4.196.593.295l.145.074.14.077.27.152c.187.105.359.206.527.31.674.413 1.268.813 1.82 1.17.546.357 1.057.673 1.518.934.472.265.899.476 1.261.649.364.169.655.303.858.388l.311.134s-.125-.007-.356-.03c-.23-.026-.573-.061-1-.138a14.235 14.235 0 0 1-1.524-.352 19.248 19.248 0 0 1-1.877-.671c-.66-.272-1.35-.586-2.061-.896l-.535-.23-.277-.115-.137-.056-.14-.051c-.381-.13-.743-.298-1.147-.415-.78-.273-1.62-.485-2.474-.687-.865-.176-1.747-.347-2.653-.433-.898-.114-1.813-.155-2.715-.178-.904-.016-1.798.01-2.667.06-.435.021-.86.073-1.28.1-.415.047-.832.088-1.223.139a604.153 604.153 0 0 1-.866.115 167.746 167.746 0 0 1-1.124.182l-.26.045c-1.376.255-2.54.555-3.369.74-.413.096-.745.16-.969.21l-.346.066M40.303 59.302s-.036-.128-.09-.371c-.048-.244-.128-.602-.167-1.063a8.73 8.73 0 0 1 .463-3.85c.277-.764.61-1.62 1.282-2.498.34-.437.781-.884 1.437-1.276.083-.047.163-.097.252-.143l.284-.13c.183-.091.409-.15.621-.22.106-.038.227-.054.341-.08l.174-.035.088-.017.044-.009.09-.01.26-.031c.129-.01.267-.016.401-.021.952-.017 1.758.141 2.491.294.728.153 1.41.322 1.983.4l.515.058c.172.017.314.023.473.036a17.793 17.793 0 0 0 3.038-.082c1.367-.142 2.726-.43 4.046-.778.65-.167 1.22-.363 1.875-.597.647-.228 1.33-.478 2.102-.66a9.9 9.9 0 0 1 1.219-.214l.323-.026.04-.003.078-.005.064-.001.13-.003.129-.002.171.003c.113.003.237.004.339.012.83.052 1.59.22 2.248.438.66.221 1.238.481 1.753.754.522.278.954.547 1.382.795.856.503 1.649.96 2.355 1.363.708.402 1.325.755 1.841 1.04l1.622.904-.501-.151c-.322-.105-.804-.249-1.395-.459a58.593 58.593 0 0 1-2.124-.775c-.81-.313-1.709-.683-2.674-1.103-.489-.21-.979-.447-1.465-.641a11.136 11.136 0 0 0-1.542-.51 6.764 6.764 0 0 0-1.608-.208c-.067-.002-.115.004-.173.005l-.085.002-.128.01-.128.01-.065.004c-.04.003.038-.002.026-.001l-.012.002-.024.003-.191.025a6.728 6.728 0 0 0-.8.186c-.551.164-1.132.393-1.761.645-.316.127-.643.258-.998.387l-.287.1-.255.082-.55.165c-1.43.421-2.97.756-4.585.935a21.51 21.51 0 0 1-2.461.12 16.954 16.954 0 0 1-1.246-.059c-.212-.02-.442-.04-.637-.064l-.584-.079c-.88-.14-1.571-.35-2.225-.51-.642-.163-1.242-.278-1.71-.296-.043 0-.081-.002-.127-.006l-.263.019h-.016a.43.43 0 0 1 .041-.004l-.02.004-.038.006-.079.012c-.052.01-.108.008-.158.026-.1.032-.21.044-.31.09l-.155.055c-.051.021-.1.049-.151.072-.41.195-.779.496-1.104.822-.648.664-1.11 1.42-1.524 2.134a11.38 11.38 0 0 0-.906 1.964 12.876 12.876 0 0 0-.452 1.589c-.09.447-.158.803-.191 1.046l-.056.374"/>
            <mask id="d" fill="#fff">
                <use xlink:href="#c"/>
            </mask>
            <path fill="#FFD4DB" d="M32.247 66.28s.035.036.091.107l.238.304c.114.122.214.26.37.417.139.158.313.324.49.498.099.084.192.172.29.26.109.084.212.173.319.26.12.081.226.171.345.254.129.076.24.166.37.241.133.073.25.16.391.226l.199.108.208.097c.272.137.566.237.854.34.297.083.592.168.9.213l.228.04.007.002h.004c.01.002-.07-.002-.034 0l.019.001.038.004.076.008.152.016.212.02c.064.009.151.01.226.015a8.264 8.264 0 0 0 1.791-.107 10.484 10.484 0 0 0 1.396-.334c.087-.028.167-.053.24-.073l.178-.06.155-.05s-.013.044-.045.124c-.033.08-.08.2-.17.34a2.97 2.97 0 0 1-.378.492c-.172.179-.39.372-.668.556-.276.184-.61.363-.998.509a6.25 6.25 0 0 1-1.302.333c-.123.014-.232.035-.369.042-.127.008-.282.02-.392.022l-.153.004-.077.001-.038.001h-.02l-.061-.002-.383-.024a6.983 6.983 0 0 1-1.514-.29c-.477-.162-.935-.358-1.324-.604-.097-.06-.197-.12-.289-.183l-.262-.199c-.176-.13-.319-.278-.465-.417-.143-.142-.26-.294-.376-.438a7.127 7.127 0 0 1-.29-.444c-.074-.151-.15-.295-.208-.437-.049-.146-.097-.284-.134-.418a3.022 3.022 0 0 1-.082-.741c-.007-.216.039-.42.068-.57.036-.15.096-.264.123-.343.032-.08.054-.122.054-.122" mask="url(#d)"/>
            <path fill="#FF9EBD" d="M251 0H0v60.724c1.398.394 2.877.458 4.04.017.997-.378 1.672-1.316 1.974-2.305 1.877-6.153-.526-4.012 1.396-10.292 1.684-5.499 6.885-7.058 12.08-8.343 6.925-1.713 11.705.614 17.107 5.214 3.545 3.019 5.807 1.057 9.477-.52 5.323-2.288 12.543-5.104 18.444-4.869 7.961.318 11.674 7.328 18.436 10.146 5.572 2.321 9.016-1.182 13.978-2.785 5.722-1.848 11.92-1.761 17.176 1.345 1.571.928 2.999 2.077 4.621 2.917 4.011 2.077 8.788 2.087 13.343 2.047 3.96-.035 8.338-.225 11.194-2.864 1.155-1.067 1.942-2.444 2.988-3.617 3.433-3.85 14.067-6.507 16.262-.194 3.29 9.456 9.794 8.176 12.128 8.48 3.465.451 9.535-3.62 15.503-5.074 4.831-1.176 10.567-2.108 14.816 1.098 2.244 1.693 3.667 4.33 6.16 5.664 3.147 1.684 7.098.823 10.406-.547 3.308-1.37 6.517-3.237 10.108-3.507 7.414-.558 13.055-3.634 14.55 2.688.28 1.183.677 2.38 1.468 3.35.271.334 3.34 2.256 3.344 2.077C251 57.83 251 0 251 0" mask="url(#d)"/>
        </g>
    </g>
</svg>
