<?xml version="1.0" encoding="UTF-8"?>
<svg width="251px" height="165px" viewBox="0 0 251 165" version="1.1" xmlns="http://www.w3.org/2000/svg" xmlns:xlink="http://www.w3.org/1999/xlink">
    <!-- Generator: Sketch 54.1 (76490) - https://sketchapp.com -->
    <title>Group 14</title>
    <desc>Created with Sketch.</desc>
    <defs>
        <polygon id="path-1" points="0 -2.05903003e-13 251 -2.05903003e-13 251 67 0 67"></polygon>
        <polygon id="path-3" points="0 0 251 0 251 72 0 72"></polygon>
    </defs>
    <g id="Page-1" stroke="none" stroke-width="1" fill="none" fill-rule="evenodd">
        <g id="homepage-slide-1" transform="translate(-371.000000, -337.000000)">
            <g id="Group-14" transform="translate(371.000000, 337.000000)">
                <rect id="Rectangle" fill="#F3F0E2" x="1.13686838e-13" y="0" width="251" height="165"></rect>
                <g id="Group-12" transform="translate(0.000000, 0.000000)">
                    <path d="M251,71.2219181 L250.945784,9 C250.945784,9 37.630171,9 0.251251,9 L0,73.9780215 C1.39807,74.2713963 4.131711,74.3199921 5.296351,73.9906204 C6.292821,73.7098445 6.968011,73.0097046 7.269211,72.2735678 C9.146691,67.6857617 6.744621,62.6173968 8.667281,57.9359987 C10.948871,52.376276 18.737401,52.2934831 25.459181,50.8644058 C26.751831,50.5890295 28.245281,50.338851 29.445061,50.6682227 C29.706101,50.7384166 29.952081,50.8374081 30.180491,50.9687969 C30.544441,51.1775789 30.815521,51.4511555 31.018831,51.7517297 C31.184491,51.9893093 31.307481,52.2448873 31.402861,52.5004654 C32.670411,55.9147722 31.588601,65.9237129 32.808461,70.0039626 C32.876231,70.2361427 32.954041,70.4503243 33.039381,70.6411079 C33.323011,71.2782532 33.772301,71.8884009 34.379721,72.3923576 C34.721081,72.6749333 35.112641,72.923312 35.554401,73.1248947 C36.781791,73.6864465 39.673311,73.8286343 40.970981,73.3570748 C41.969961,72.993506 42.682801,72.3185639 43.187311,71.6004256 C45.355951,68.5226898 39.241591,61.7354725 44.572831,54.5558889 C45.137581,53.7927544 46.033651,53.0764159 47.215861,52.9162297 C48.365441,52.761443 49.497451,53.1646084 50.601851,53.4381849 C55.315631,54.6080844 59.816061,53.1538093 63.975131,51.6149414 C68.708991,49.8654916 69.62991,52.5440216 74.73525,54.5058532 C78.13379,55.812541 80.641531,58.0421896 84.210751,59.1508944 C89.782951,60.8805459 93.226671,58.2689701 98.188941,57.0738727 C103.909231,55.6969909 110.108931,55.7617854 115.364871,58.0763867 C116.936131,58.7693272 118.361811,59.6242538 119.985781,60.2506 C123.996761,61.800267 128.773291,61.8074663 133.328941,61.776869 C137.289721,61.7516711 141.667161,61.6094833 144.523541,59.6422522 C145.678141,58.8467205 146.463771,57.8208086 147.505421,56.9496834 C150.228771,54.6692792 154.774381,53.5965713 158.853131,54.2715133 C160.329011,54.5144925 161.722061,54.9842521 162.944431,55.6231973 C164.719001,56.546518 166.144681,57.8226085 166.967961,59.2786834 C167.148681,59.5918566 167.296771,59.9140289 167.417251,60.2434006 C168.255591,62.5526024 167.668251,64.9877933 167.597971,67.3743884 C167.567851,68.3985005 167.668251,69.4694085 167.994551,70.477322 C168.355991,71.5878267 168.991021,72.620938 170.035181,73.4344681 C170.248531,73.6036536 170.481961,73.76204 170.735471,73.9114272 C173.358421,75.4556946 177.469801,75.2937085 180.175581,73.8250346 C182.881361,72.3581605 184.221701,69.8257779 184.113771,67.3923869 C184.015881,65.2343721 183.057061,62.7181882 185.157931,61.1721209 C186.074081,60.495379 187.386811,60.1930049 188.644321,59.9158287 C194.329471,58.6559369 201.053761,57.5166347 205.840331,59.9572252 C205.968341,60.0202198 206.093841,60.0886139 206.219341,60.1588079 C207.790601,61.042532 208.960261,62.2718265 210.375901,63.2707407 C210.980811,63.6991039 211.630901,64.0842709 212.378881,64.3812454 C215.526421,65.6375375 219.477161,64.9949927 222.785341,63.9726805 C226.093521,62.9521681 229.303811,61.5608875 232.893111,61.3593048 C236.043161,61.18292 238.871931,61.8704609 241.198701,63.0799571 C243.743841,64.4028435 245.689091,66.3520762 246.796001,68.4794935 C247.062061,68.98705 247.277921,69.5036056 247.443581,70.0255608 C247.468681,70.1029541 247.493781,70.1803475 247.523901,70.255941 C247.812551,71.0064766 248.319571,71.7012169 248.826591,72.4049565 C248.854201,72.4445531 248.884321,72.4841497 248.911931,72.5237463 C249.251283,72.9980056 250.470139,73.7481812 251,73.9974598 L251,71.2219181" id="Fill-143" fill="#996E79"></path>
                    <g id="Group-147" transform="translate(0.000000, 7.000000)">
                        <mask id="mask-2" fill="white">
                            <use xlink:href="#path-1"></use>
                        </mask>
                        <g id="Clip-145"></g>
                        <path d="M251,65.2670746 C250.903867,65.2326242 250.815264,65.1997887 250.784391,65.1859727 C250.417931,65.0280751 250.033901,64.8486461 249.539431,64.6046227 C248.675991,64.1811702 248.101201,63.8276951 247.712151,63.2750537 C247.646891,63.1817506 247.584141,63.0848589 247.523901,62.9843787 C247.295491,62.6021949 247.107241,62.1607995 246.929031,61.5991867 C246.888871,61.4699978 246.843691,61.3408089 246.796001,61.2134143 C245.942601,58.8718657 244.152971,56.740249 241.720781,55.1738338 C238.871931,53.3400692 235.458331,52.2975867 231.851461,52.5003415 C229.007631,52.6600333 226.402251,53.5356469 223.879701,54.3843461 C223.126701,54.637341 222.348601,54.8993074 221.583051,55.1343594 C217.459121,56.4047168 214.105761,56.7258947 211.618351,55.7372409 C210.267971,55.1989538 209.246401,54.359226 208.167101,53.4710524 C207.356371,52.8053708 206.520541,52.1163634 205.524071,51.5583392 C200.704871,48.8561382 194.008191,49.6366544 187.489721,51.0756751 C186.302491,51.3376415 184.821591,51.6659966 183.792491,52.4213927 C181.990311,53.7455788 182.231271,55.8161896 182.462191,57.642777 C182.527451,58.1380011 182.585181,58.6063108 182.605261,59.0638548 C182.715701,61.5310037 181.285001,63.6931233 178.867871,64.9993665 C176.247431,66.4168557 172.374501,66.6375534 170.050241,65.2738929 C169.103971,64.7194572 168.446351,63.9981526 167.994551,63.2050764 C167.229001,61.8593588 167.058321,60.3126807 167.095971,59.0423233 C167.113541,58.4179103 167.168761,57.7737602 167.223981,57.1529358 C167.369561,55.4645088 167.520161,53.722253 166.967961,52.0410032 C166.945371,51.9710259 166.922781,51.9028429 166.897681,51.8346598 C165.798301,48.8202524 162.206491,46.1431715 157.959571,45.4433984 C153.712651,44.7436252 148.956201,45.861468 146.119901,48.2281367 C145.683161,48.5923776 145.291601,48.9817385 144.910081,49.3603337 C144.352861,49.9147694 143.823251,50.4387021 143.170651,50.8872746 C140.515071,52.7120677 136.353491,52.8897024 132.319921,52.9166168 C128.052921,52.9453254 123.216151,53.1552574 119.220231,51.6175507 C118.301571,51.2640756 117.423071,50.8226802 116.572181,50.3956391 C115.942171,50.0798441 115.294591,49.7550776 114.621911,49.4590197 C109.629521,47.2663972 103.379621,46.720933 97.024301,48.2460796 C95.618701,48.5834061 94.346131,49.0265958 93.113721,49.4572254 C89.953631,50.5571253 87.222751,51.687528 83.405041,50.5068851 C81.489911,49.9129751 79.795661,48.99071 78.156631,48.0989478 C76.796211,47.357906 75.388101,46.5917441 73.834411,45.9960398 C72.182831,45.3626553 71.000621,44.6449393 69.958971,44.0115549 C67.858101,42.7376089 66.198991,41.5497888 62.740211,42.8255291 C58.626321,44.3417043 54.236331,45.9099138 49.763511,44.8028368 C49.570241,44.754391 49.376971,44.7041509 49.183701,44.6521164 C48.209821,44.3919444 47.196534,43.9200461 46.118991,44.0887093 C44.385083,44.3598266 43.880071,45.0737746 43.124561,46.0875485 C39.796301,50.5535367 40.802811,54.8006214 41.613541,58.2115669 C42.092951,60.2391148 42.509611,61.9921363 41.734021,63.0866532 C41.186841,63.8617866 40.516671,64.2188503 39.741081,64.4987596 C38.629151,64.9024748 35.915841,64.9634807 34.818971,64.464668 C33.975611,64.08069 33.280341,63.4778085 32.808461,62.7331781 C32.698021,62.5573376 32.600131,62.3725258 32.514791,62.182331 C31.711591,60.3862466 31.666411,56.5303171 31.623741,52.8017822 C31.583581,49.5092598 31.545931,46.3854007 31.018831,44.5372819 C30.978671,44.3883558 30.933491,44.2466069 30.883291,44.1138294 C30.589621,43.3297246 30.135311,42.7681118 29.490241,42.398488 C28.074601,41.5856746 26.164491,41.6574462 24.312111,42.0503958 C23.032011,42.3231279 21.689161,42.5492084 20.388981,42.7681118 C14.841881,43.702937 9.1615,44.5017549 7.181361,49.5254084 C6.230824,51.9363961 6.320431,54.4363805 6.448441,56.8622608 C6.573941,59.2989068 6.694421,61.5991867 5.783291,63.8169293 C5.489621,64.5310568 4.847312,64.9076783 4.089292,65.1211988 C3.112902,65.3957252 1.777331,65.5645679 0.391811,65.2738929 L0,65.2451843 L0,65.9898147 C1.56624,66.3020211 3.313451,66.2930497 4.475581,65.9646946 C5.517231,65.670431 6.368121,64.9437435 6.747131,64.0196841 C7.703441,61.6889012 7.575431,59.2217523 7.449931,56.8353464 C7.326941,54.4668835 7.198931,52.0176774 8.142691,49.7281632 C9.904711,45.4505756 15.110451,44.574962 20.619901,43.6455197 C21.932631,43.424822 23.290541,43.1951529 24.598251,42.9188322 C26.189591,42.5815056 27.806031,42.3518365 28.862741,42.9583066 C29.083621,43.0857012 29.279401,43.2507759 29.445061,43.4571192 C29.633311,43.6867884 29.786421,43.9649033 29.911921,44.2986413 C30.539421,45.9763026 30.579581,49.4500483 30.619741,52.8071651 C30.662411,56.5895287 30.710101,60.5010812 31.558481,62.4012344 C32.073031,63.5585515 33.041891,64.507731 34.279321,65.0711381 C34.311951,65.0854924 34.344581,65.0998468 34.379721,65.1142011 C35.817951,65.7099054 38.802341,65.8229457 40.195391,65.3187501 C41.164251,64.9670693 41.985021,64.3247134 42.632601,63.4096255 C43.553771,62.1051765 43.112011,60.2444977 42.602481,58.0913495 C41.819361,54.7880614 40.845481,50.6755484 44.010591,46.4248751 C44.361991,45.9511825 45.130051,45.1329862 46.304731,44.9732944 C47.112951,44.865637 47.948781,45.0881289 48.832301,45.323181 C49.033101,45.3770097 49.233901,45.4308384 49.434701,45.4810785 C54.284021,46.6796643 58.894891,45.2298779 63.202051,43.6419311 C66.063451,42.5886828 67.215541,43.2884559 69.308881,44.5588134 C70.390691,45.2155235 71.615571,45.960154 73.360021,46.6276299 C74.843431,47.1964198 76.218911,47.9446388 77.549211,48.669532 C79.233421,49.5882086 80.977871,50.5373881 83.005951,51.1653896 C87.247851,52.47881 90.310051,51.4112074 93.555481,50.2808046 C94.757771,49.862735 96.000221,49.4285168 97.343071,49.1055445 C103.412251,47.648581 109.363461,47.9930847 114.097321,50.0708726 C114.742391,50.3543705 115.377421,50.6737541 115.994881,50.982372 C116.868361,51.4219731 117.774471,51.8759285 118.743331,52.2491409 C122.965151,53.8747677 127.937461,53.8424705 132.327451,53.8137618 C136.564331,53.7850532 140.944281,53.5912699 143.865921,51.5852535 C144.586291,51.0918237 145.163591,50.5158566 145.725831,49.9596266 C146.094801,49.5935915 146.473811,49.2149962 146.882941,48.8740811 C149.480791,46.7065786 153.843171,45.6802447 157.736181,46.3226006 C159.696491,46.6455728 161.503691,47.3884089 162.944431,48.3967999 C164.365091,49.3908367 165.429331,50.6450455 165.926311,52.0158831 C166.521181,53.6504814 166.368071,55.4088858 166.219981,57.1080785 C166.167271,57.7378744 166.109541,58.3874074 166.091971,59.027969 C165.999101,62.1482395 167.146171,64.5005539 169.412701,65.8301228 C169.610991,65.9467517 169.819321,66.0544091 170.035181,66.1530951 C171.260061,66.7182964 172.730921,67 174.234411,67 C176.061691,67 177.936661,66.5837247 179.472781,65.7511741 C182.145931,64.3067705 183.729741,61.7355528 183.609261,59.040529 C183.589181,58.5632478 183.523921,58.0626409 183.463681,57.5781825 C183.240291,55.8359268 183.031961,54.1887685 184.512861,53.1014287 C185.363751,52.4770157 186.651381,52.1917236 187.788411,51.9405229 C194.043331,50.5589196 200.448851,49.6240944 204.906611,52.1235405 C205.230401,52.3065581 205.539131,52.5057243 205.840331,52.7174506 C206.390021,53.1050172 206.904571,53.5284697 207.409081,53.9411564 C208.307661,54.6821983 209.233851,55.4429773 210.375901,56.0207387 C210.616861,56.1445447 210.867861,56.2593793 211.131411,56.3634481 C213.904961,57.4669365 217.554501,57.3359534 221.979631,55.9740872 C222.762751,55.7336523 223.548381,55.4680973 224.308911,55.2133081 C226.746121,54.3933176 229.268671,53.5446183 231.929271,53.3956922 C235.583831,53.1911432 238.764001,54.2103 241.198701,55.8305439 C243.593241,57.4238736 245.262391,59.5967589 245.950131,61.7570842 C246.193601,62.5250404 246.459661,63.0920361 246.816081,63.5980259 C247.318081,64.3139477 248.076101,64.7517545 248.826591,65.1267611 C248.874281,65.1500869 248.921971,65.1734126 248.969661,65.1967384 C249.481701,65.447939 249.878281,65.6327509 250.262311,65.7996199 C250.622998,65.9576969 250.845635,66.0310833 251,66.0601508 L251,65.2670746" id="Fill-144" fill="#D8648F" mask="url(#mask-2)"></path>
                        <path d="M250.94478,0 C250.94478,0 37.379673,0 0,0 L0,65.1064869 C1.39807,65.4006229 2.876711,65.4484133 4.039594,65.1189305 C5.036817,64.836697 5.712007,64.1364333 6.013709,63.3975767 C7.89144,58.8014088 5.488115,53.7237308 7.410524,49.0330643 C9.693871,43.4621539 17.480393,43.3782954 24.203428,41.9458477 C25.777449,41.610594 27.645642,41.3117692 28.925491,42.0504455 C29.576083,42.4260955 29.931248,43.0066128 30.146104,43.5860481 C31.487699,47.2011616 30.201826,58.1988899 31.784381,61.7633276 C32.226643,62.7598913 33.070003,63.6902699 34.298397,64.2518515 C35.526791,64.8132526 38.417809,64.9571647 39.716232,64.4843109 C40.715212,64.120383 41.427048,63.4424816 41.93206,62.7243641 C44.100449,59.6398136 37.985336,52.8398801 43.316074,45.6453607 C43.882079,44.881076 44.777145,44.1633193 45.961112,44.0029963 C47.110692,43.8473621 48.241698,44.2506043 49.347102,44.5254438 C54.059627,45.6976596 58.559304,44.2403249 62.720131,42.6985906 C67.453238,40.9449558 68.238868,43.7353704 73.345212,45.7018074 C76.743501,47.0105412 79.38628,49.138203 82.954496,50.2487422 C88.526445,51.9829002 91.970667,49.3661539 96.932435,48.1688708 C102.65398,46.7881809 108.852174,46.8531036 114.108867,49.1733695 C115.679625,49.8665999 117.107062,50.7244815 118.730028,51.3522481 C122.740506,52.9035404 127.51804,52.9111147 132.072435,52.8809978 C136.033215,52.8550287 140.410153,52.7131004 143.266784,50.7417942 C144.421384,49.9450482 145.209022,48.9167444 146.250421,48.0431732 C148.973269,45.7595165 153.518377,44.6850455 157.596625,45.3611435 C161.674873,46.0372415 165.10529,48.4337915 166.160243,51.3437721 C166.999336,53.6588081 166.412247,56.0979186 166.341716,58.4895994 C166.271185,60.8812803 166.905713,63.5229136 169.479718,65.0401215 C172.103421,66.5863643 176.213044,66.4236968 178.919577,64.9531972 C181.62611,63.4825172 182.965195,60.9447603 182.856763,58.5078138 C182.76063,56.3457069 181.802061,53.8247217 183.901676,52.2741507 C184.819081,51.5969707 186.13156,51.293998 187.388066,51.015191 C193.224569,49.7194417 200.15744,48.5506524 204.96409,51.2593726 C207.208281,52.5242835 208.630949,54.4943274 211.123881,55.4903501 C214.271421,56.7480475 218.222161,56.1051322 221.53009,55.0815173 C224.838019,54.0579024 228.047054,52.6640477 231.638111,52.4622463 C239.052149,52.0454785 244.692872,56.4239749 246.187577,61.146201 C246.439079,61.9409633 246.878831,62.7124616 247.559543,63.3685418 C248.305013,64.0868395 249.30575,64.5407576 250.365472,64.9876423 C250.403624,65.0035123 251,65.2000838 251,65.2000838 L250.94478,0" id="Fill-146" fill="#FFA9BD" mask="url(#mask-2)"></path>
                    </g>
                    <path d="M18,48.8995354 C18,48.8995354 18.0478515,48.8679878 18.1396956,48.8158052 C18.2330833,48.7665989 18.3663472,48.6840592 18.5325412,48.5939798 C18.8672447,48.4086623 19.3382993,48.1574717 19.9063433,47.8745352 C20.4756736,47.5933843 21.1471387,47.2808842 21.9153358,46.9868366 C22.1064847,46.9106461 22.3056088,46.8410032 22.5098783,46.7713603 C22.6125275,46.7364397 22.7159486,46.701519 22.8196269,46.6664 L22.8983504,46.6408047 L22.9871073,46.614019 L23.1409525,46.567392 L23.4522447,46.476519 L23.7941516,46.3874317 C24.0228614,46.3261221 24.2549156,46.2802888 24.4867125,46.2298919 C24.7203103,46.1836618 24.9616261,46.1443761 25.1993402,46.1072729 C25.4452868,46.0773125 25.6848017,46.0449713 25.9335782,46.0279078 C26.183641,46.0130268 26.4259859,45.9941776 26.6799077,46.0017173 C26.8046819,46.0027094 26.9286843,46.0038998 27.0519148,46.0048919 C27.1769462,46.0088601 27.303264,46.0233443 27.4264946,46.0330665 C27.9189023,46.068384 28.4089946,46.1725507 28.8504635,46.3080666 C29.070169,46.3810825 29.279841,46.473146 29.4733052,46.5566777 C29.6603378,46.6616381 29.8360507,46.7638206 29.9934977,46.8665984 C30.1380814,46.9872334 30.2728889,47.099535 30.3904596,47.2094557 C30.4956815,47.3290985 30.5841811,47.4459637 30.6621328,47.554297 C30.7462589,47.6594558 30.7892224,47.7719558 30.8332149,47.871559 C30.8751493,47.9717574 30.9142538,48.0602495 30.9397232,48.142194 C30.9749686,48.3124321 30.9824294,48.4461623 30.9932346,48.5330671 C31.0012098,48.6211623 30.9999235,48.6679877 30.9999235,48.6679877 C30.9999235,48.6679877 30.9510429,48.6380274 30.8597133,48.582075 C30.7745582,48.5249322 30.6415515,48.4475512 30.4974824,48.34894 C30.4164435,48.3074718 30.3266576,48.26144 30.2288964,48.21144 C30.1303634,48.1662019 30.0464946,48.104694 29.9250649,48.0687813 C29.8095523,48.0290987 29.7022723,47.9792971 29.5823862,47.9400114 C29.4534957,47.9098526 29.3292361,47.8751304 29.2034329,47.8419955 C29.0724843,47.8217574 28.9358759,47.8007256 28.7946367,47.7789002 C28.6446505,47.7751304 28.5080421,47.753305 28.3554832,47.7523129 C28.0495935,47.749932 27.7326414,47.7556859 27.3848174,47.7925907 C27.0439396,47.8175907 26.6750197,47.878305 26.2988964,47.93644 C26.1105774,47.9634241 25.9158268,48.0064797 25.7223626,48.0352495 C25.5252966,48.0737416 25.3274588,48.1122336 25.129621,48.1507257 C24.9297251,48.1912019 24.7295719,48.2316781 24.5304478,48.2719559 C24.3236057,48.3144162 24.1177926,48.3566781 23.9135232,48.3985432 C23.5093578,48.4779083 23.0985036,48.5624322 22.6943382,48.6352496 C21.885493,48.7858449 21.0913119,48.9023132 20.3897467,48.9566783 C19.6889533,49.0144164 19.0854065,49.0070751 18.6632325,48.9773132 C18.4507306,48.96521 18.2853083,48.9394164 18.1736548,48.9261227 C18.0612294,48.9110433 18,48.8995354 18,48.8995354" id="Fill-148" fill="#FFD4DB"></path>
                    <path d="M224,60.1675933 C224,60.1675933 224.090976,60.115403 224.261366,60.0177567 C224.435024,59.9244127 224.683574,59.7794397 225.009025,59.6094003 C225.661436,59.267825 226.593057,58.7844568 227.815448,58.2949155 C228.427146,58.0517349 229.112731,57.8070577 229.877982,57.5945553 C230.642479,57.3837364 231.48815,57.2028474 232.398912,57.1018339 L232.569805,57.0820054 L232.655503,57.0720911 L232.794229,57.0638603 L233.112392,57.0451541 C233.325506,57.0343045 233.540128,57.023455 233.756007,57.0126054 C233.868093,57.0092382 233.962838,56.9967051 234.090003,57.0008204 L234.46421,57.0094253 C234.715272,57.0191525 234.967591,57.0286927 235.220916,57.0384199 C235.480774,57.0421612 235.711229,57.0820054 235.956009,57.1070717 C236.198024,57.1347569 236.440794,57.1643127 236.68306,57.1974226 C237.161059,57.2821617 237.636545,57.3863553 238.110021,57.4903617 L238.796108,57.69613 C239.02229,57.768523 239.257772,57.8261381 239.470635,57.916489 C239.688272,57.9997316 239.905156,58.0835354 240.118271,58.1707063 L240.438193,58.3003403 L240.740273,58.4484934 C240.94057,58.5474492 241.140113,58.6458438 241.338651,58.7438643 C241.539702,58.839266 241.714114,58.9587986 241.897824,59.0671075 C242.078519,59.1774741 242.258209,59.2874666 242.436642,59.3965237 C242.613818,59.505955 242.766617,59.6337183 242.92972,59.7500709 C243.089053,59.8688553 243.24738,59.9867044 243.403949,60.1034311 C243.552224,60.2253955 243.691452,60.3514753 243.829172,60.4754974 C243.966641,60.5991454 244.102602,60.721484 244.237055,60.842326 C244.360701,60.968967 244.480829,61.0950468 244.595931,61.2211266 C244.711033,61.3462711 244.824627,61.4699191 244.936713,61.5915094 C245.043772,61.7153445 245.13902,61.8421725 245.233514,61.9660076 C245.417979,62.2159224 245.612244,62.4473182 245.750216,62.6908729 C245.893213,62.9316217 246.042745,63.1551608 246.15835,63.3770164 C246.264907,63.6026132 246.369202,63.8134321 246.45867,64.0134014 C246.555174,64.2107518 246.613479,64.4052963 246.673041,64.5816958 C246.729586,64.7579082 246.781608,64.9197168 246.828353,65.0659993 C246.899726,65.3630538 246.931643,65.5991261 246.962806,65.7566323 C246.986932,65.9152609 247,66 247,66 C247,66 246.939182,65.9270458 246.825588,65.7903035 C246.717523,65.6546835 246.559447,65.4556495 246.357893,65.2023676 C246.250582,65.0802161 246.131962,64.9449702 246.002535,64.7977524 C245.870344,64.6529664 245.752478,64.488913 245.585103,64.3297232 C245.430544,64.1675405 245.265934,63.9950693 245.092527,63.813245 C244.913592,63.6355361 244.7143,63.4552083 244.515008,63.2655274 C244.324009,63.0717312 244.091293,62.8887845 243.863351,62.6951753 C243.745987,62.6003349 243.639179,62.4972637 243.516286,62.401488 C243.391132,62.3077699 243.263967,62.2127424 243.135043,62.1164054 C243.008381,62.0196944 242.880211,61.9216739 242.750281,61.822344 C242.611556,61.7304965 242.471574,61.6373396 242.329833,61.5432474 C242.189851,61.4489682 242.048362,61.3537536 241.905615,61.2576037 C241.755078,61.1694975 241.602782,61.0802689 241.44948,60.9904792 C241.294922,60.902373 241.146145,60.8071584 240.986309,60.7220452 C240.824714,60.6393638 240.661863,60.5561212 240.498006,60.4723174 C240.178586,60.2957308 239.823479,60.1582402 239.481441,60.0024176 L239.222588,59.8875615 L238.950163,59.7917858 C238.767961,59.7285588 238.58802,59.6614035 238.408079,59.5938741 C238.231657,59.5194235 238.036889,59.4782698 237.850916,59.4210288 L237.287973,59.2575366 C236.904217,59.1707399 236.520209,59.0802018 236.133185,59.00519 C235.936155,58.9790013 235.740633,58.9494455 235.545613,58.9180191 C235.352102,58.890708 235.151553,58.8463743 234.968848,58.8405754 C234.782624,58.8261716 234.596652,58.812329 234.411434,58.7945581 L234.133732,58.7659376 C234.044264,58.7543398 233.921874,58.7606999 233.81783,58.7571457 C233.6017,58.754901 233.386575,58.7524692 233.17321,58.7502244 L232.854041,58.7444255 L232.814334,58.7434902 L232.79448,58.7431161 C232.778396,58.7433031 232.898021,58.7388137 232.842983,58.7408713 L232.834187,58.7412455 L232.762563,58.7433031 L232.619314,58.7476056 C231.094341,58.791004 229.626165,59.0454083 228.352506,59.2971938 C227.078093,59.5515981 225.993171,59.7988941 225.222642,59.9476084 C224.838383,60.0258003 224.52977,60.07612 224.322184,60.1146548 C224.112086,60.1492613 224,60.1675933 224,60.1675933" id="Fill-149" fill="#FFD4DB"></path>
                    <path d="M187,56.4430544 C187,56.4430544 187.373154,56.2715604 188.041784,56.0087029 C188.373976,55.8750275 188.789091,55.727685 189.267897,55.5612461 C189.748951,55.3993004 190.294446,55.2231259 190.903881,55.0525681 C191.209098,54.9681317 191.526803,54.8806997 191.860993,54.7975739 C192.196183,54.716133 192.544859,54.6382493 192.904776,54.5566211 C193.267939,54.4822946 193.64459,54.4162058 194.029233,54.3430026 C194.418123,54.2791604 194.819501,54.2274876 195.227622,54.1688876 C195.64024,54.1232058 196.062099,54.0838895 196.491201,54.0488793 C196.924549,54.0295956 197.362393,53.9992659 197.808979,54.0000148 C198.7029,53.9990787 199.621799,54.0425138 200.5367,54.1782486 L201.220317,54.2851515 L201.893942,54.4377362 C202.347272,54.5253553 202.773627,54.6799994 203.199731,54.8192914 C203.305883,54.8550505 203.413034,54.8883758 203.517187,54.9263815 L203.820156,55.0553764 C204.018722,55.1439317 204.216539,55.2321125 204.412857,55.3197317 L204.559221,55.3856333 L204.695844,55.4623937 L204.967093,55.6153528 C205.147676,55.7160774 205.321514,55.821108 205.495103,55.9231432 L205.580774,55.9750032 L205.743373,56.0890205 L205.958424,56.2401074 C206.114279,56.3565585 206.273132,56.476754 206.4155,56.593954 C206.688247,56.8247968 206.945759,57.050023 207.175546,57.2763726 C207.638616,57.7268249 208.028505,58.1578064 208.385424,58.5492844 C208.739346,58.9416984 209.063295,59.2927368 209.363018,59.5984677 C209.660242,59.9064454 209.94248,60.1586313 210.183257,60.3679438 C210.429529,60.5701419 210.627096,60.7369553 210.776957,60.8359949 C210.922572,60.9428978 211,61 211,61 C211,61 210.896346,60.9775335 210.702026,60.9277329 C210.506707,60.87943 210.224219,60.797053 209.87779,60.6663732 C209.534109,60.5340083 209.12299,60.353715 208.687894,60.1155706 C208.250799,59.878924 207.781734,59.5894812 207.297682,59.2655898 C206.831614,58.9452556 206.326583,58.5983361 205.792328,58.231384 C205.529322,58.0559585 205.265566,57.8790352 204.989322,57.7109112 C204.853448,57.631717 204.724318,57.5585138 204.592191,57.4778218 L204.354411,57.3475163 L204.234772,57.2819892 L204.174578,57.2492256 L204.167085,57.2451067 C204.209545,57.2709432 204.174828,57.2503489 204.182321,57.2554039 L204.168084,57.2490384 L204.13936,57.2363074 C203.987002,57.1681591 203.832395,57.1015087 203.682034,57.0294288 L203.454995,56.9219643 L203.34135,56.8680448 L203.218464,56.8244224 C203.055615,56.7661968 202.891767,56.7074096 202.72717,56.6484352 L202.483645,56.5553866 C202.399224,56.5288013 202.311305,56.5067093 202.225135,56.4819962 C202.052795,56.4333189 201.879705,56.3844544 201.706116,56.3354026 C201.620945,56.3084429 201.532527,56.2869125 201.440862,56.2702499 L201.169863,56.212586 L200.627366,56.0959476 L200.065138,56.0161917 C199.319828,55.8939368 198.540551,55.8523738 197.769016,55.8132448 C197.576944,55.7986416 197.380377,55.8095004 197.187306,55.8038838 C196.993235,55.8003266 196.800164,55.7969566 196.608342,55.7933994 C196.22195,55.8008882 195.838806,55.8124959 195.459907,55.815117 C195.080259,55.8330901 194.706605,55.8540588 194.337448,55.8660409 C193.968789,55.8896307 193.608124,55.9182754 193.253453,55.9360614 C192.546608,55.9924147 191.871983,56.0431515 191.246563,56.1015643 C190.616897,56.157356 190.039682,56.2086544 189.527906,56.2539617 C189.014632,56.3015157 188.562302,56.3352154 188.18615,56.3666684 C187.812247,56.3986831 187.511776,56.4112269 187.311961,56.4262045 C187.1084,56.4372505 187,56.4430544 187,56.4430544" id="Fill-150" fill="#FFD4DB"></path>
                    <path d="M167.449865,66 C167.449865,66 167.473588,66.0595378 167.509043,66.1711466 C167.54189,66.2835414 167.605239,66.4415229 167.675105,66.6413577 C167.823962,67.0380799 168.045553,67.5902292 168.418607,68.1608489 C168.602658,68.4467482 168.827637,68.7353985 169.094849,69.0116696 L169.144903,69.0637406 C169.135257,69.050772 169.170972,69.0973412 169.124308,69.0356419 L169.128218,69.0391788 L169.136039,69.0464491 L169.151681,69.0609897 L169.182443,69.0902674 L169.304969,69.2095395 L169.4288,69.3303835 C169.47025,69.3696824 169.513786,69.4170376 169.550805,69.4380625 C169.711914,69.5441694 169.829227,69.6597081 170.024487,69.7758363 C170.196024,69.8964839 170.390503,70.0020014 170.581331,70.1116453 C170.674139,70.1686286 170.785977,70.209696 170.886866,70.260195 C170.989058,70.3095151 171.087601,70.3635511 171.199699,70.4038324 C171.307627,70.4480437 171.416076,70.4924514 171.524786,70.5368591 C171.640013,70.5730141 171.754197,70.6109375 171.866296,70.6520049 C171.97657,70.6958231 172.095968,70.7262797 172.214324,70.7588978 C172.333461,70.7891579 172.446864,70.8308148 172.570433,70.8530186 C173.048026,70.9789715 173.550124,71.0453866 174.046487,71.1088543 C174.547021,71.1455988 175.045991,71.1778239 175.533751,71.1577814 C175.778022,71.1554235 176.016036,71.1269318 176.253269,71.1139632 C176.371103,71.1004051 176.487373,71.086847 176.602339,71.0734853 L176.76397,71.0552114 L176.957666,71.0237723 C177.397719,70.9569642 177.847157,70.855966 178.248105,70.751824 C179.059648,70.541968 179.741887,70.2888832 180.226779,70.101624 C180.46714,70.0057348 180.665007,69.9318529 180.794572,69.875459 C180.92857,69.8216195 181,69.7931278 181,69.7931278 C181,69.7931278 180.964806,69.8505042 180.89103,69.9544497 C180.815167,70.0564303 180.706458,70.2110714 180.542481,70.3932217 C180.217655,70.7579153 179.69053,71.2623165 178.888372,71.7409768 C178.483774,71.9797175 178.031989,72.2100089 177.485052,72.4133806 L177.305433,72.4815642 C177.214972,72.5122173 177.159705,72.5267579 177.084103,72.5501407 C176.941503,72.59278 176.796817,72.6358123 176.650828,72.679434 C176.504057,72.7234488 176.351811,72.750958 176.198262,72.7843621 C176.044713,72.8154082 175.889339,72.8533316 175.730576,72.8727845 C175.572334,72.8957744 175.412006,72.9213186 175.249594,72.9405751 C175.087441,72.960421 174.923464,72.9659229 174.758184,72.978695 C174.426841,73.0107236 174.093151,72.9979515 173.755291,72.995004 C173.082959,72.9643509 172.404892,72.8755355 171.75133,72.717554 C171.106371,72.5430669 170.46845,72.3383198 169.910042,72.0351289 C169.346159,71.7445137 168.833373,71.3998625 168.427471,71.0017649 C168.219697,70.8190251 168.021308,70.5838213 167.847164,70.365123 C167.79685,70.3069607 167.77443,70.2631424 167.743929,70.2157873 L167.570306,69.9373547 L167.549451,69.9027717 L167.539283,69.8854802 L167.53407,69.876638 L167.531723,69.8723151 C167.482713,69.8080614 167.516603,69.8516832 167.505132,69.8359636 L167.464464,69.7552044 C167.243395,69.3294011 167.113829,68.9071346 167.051784,68.5170932 C166.925608,67.7340631 167.05387,67.0927053 167.182132,66.6633651 C167.246262,66.4482037 167.321603,66.279808 167.368268,66.1697712 C167.418582,66.0589483 167.449865,66 167.449865,66" id="Fill-151" fill="#FFD4DB"></path>
                    <path d="M143,56.0553202 C143,56.0553202 143.288136,55.6661894 143.792568,54.9852106 C144.048119,54.6455846 144.362939,54.232277 144.799634,53.7746454 C144.914837,53.6645068 145.033376,53.5507225 145.155763,53.4336763 C145.215033,53.3772638 145.275072,53.3202757 145.336137,53.2625201 C145.407209,53.2041889 145.479051,53.145282 145.551919,53.0854157 C145.699708,52.9666426 145.853654,52.8394267 146.016581,52.7219967 C146.182073,52.6080205 146.351158,52.4917418 146.524091,52.3727768 C147.237633,51.915337 148.084851,51.4765096 149.053944,51.1063748 C150.022524,50.7371995 151.109899,50.433263 152.280149,50.2410001 C152.5747,50.1995543 152.871816,50.1577246 153.171242,50.1157031 C153.474517,50.0896075 153.779844,50.0631282 154.087223,50.0366489 C154.397426,50.0243686 154.709167,50.0122803 155.022705,50 C155.337012,50.0011513 155.653629,50.0105533 155.971785,50.0165016 C156.289171,50.0383758 156.608097,50.0604419 156.927792,50.082508 L157.405796,50.1398799 L157.644926,50.1707724 L157.764491,50.1866984 L157.824274,50.1945654 L157.839155,50.1964842 L157.897655,50.2064619 L157.924339,50.2112589 C158.212732,50.2657525 158.48573,50.3112279 158.787722,50.3733967 C159.10947,50.4503402 159.444817,50.523638 159.754762,50.6092161 C160.969143,50.9545985 162.117327,51.4243185 163.128242,52.0030258 C163.637035,52.2885419 164.114269,52.599386 164.546858,52.9345988 C164.763923,53.1019173 164.981757,53.2657821 165.175473,53.4449971 C165.376373,53.6188396 165.570089,53.7946008 165.742509,53.9812992 C166.460669,54.7090965 167.00564,55.4929226 167.373059,56.2725273 C167.559077,56.6647282 167.687623,57.0471432 167.796668,57.4374253 C167.816425,57.5256897 167.835924,57.6129946 167.855168,57.6995321 C167.872872,57.7956635 167.890319,57.8908356 167.907766,57.9852401 C167.938812,58.1732816 167.962674,58.3476997 167.975246,58.5236528 C168.03118,59.2226683 167.985509,59.8522236 167.906227,60.4004221 C167.826688,60.9490044 167.718925,61.4181488 167.618347,61.801907 C167.521104,62.185857 167.420269,62.484229 167.359717,62.6881965 C167.292237,62.8915883 167.256059,63 167.256059,63 C167.256059,63 167.239125,62.8890939 167.207566,62.6809051 C167.179599,62.4736757 167.138547,62.1695473 167.086462,61.7827191 C167.034633,61.3978096 166.97562,60.9321191 166.882226,60.4082892 C166.790371,59.8846511 166.664135,59.3026819 166.456564,58.6959602 C166.40294,58.5461026 166.348802,58.3881862 166.287223,58.2402474 C166.256177,58.1667577 166.224875,58.0926924 166.193572,58.0180514 C166.154829,57.9351596 166.115829,57.8516922 166.076573,57.7674573 C165.919548,57.4750336 165.753286,57.1545955 165.534938,56.8531535 C165.115177,56.2404835 164.566102,55.6387507 163.906441,55.0786557 C163.748646,54.9341707 163.565193,54.8042686 163.389438,54.6680344 C163.218814,54.5283464 163.025098,54.4032413 162.834974,54.2746823 C162.650495,54.1417101 162.441897,54.0265826 162.239971,53.9055069 C162.044972,53.7782911 161.825342,53.6723738 161.614948,53.5570545 C160.754901,53.1155407 159.817623,52.7365795 158.828004,52.4650706 C158.587591,52.3959942 158.357441,52.34553 158.122416,52.2818261 C157.859425,52.2242624 157.559742,52.1707281 157.281099,52.1150832 L156.936516,52.0667296 L156.552419,52.0078228 C156.292763,51.9819191 156.03362,51.9560154 155.775759,51.9303036 C155.51482,51.9172558 155.255164,51.9043999 154.996534,51.8913522 C154.736364,51.888474 154.477221,51.8857877 154.219874,51.8829095 C153.961757,51.8921197 153.70518,51.9013299 153.450398,51.9105401 C153.196643,51.9322224 152.943145,51.9479565 152.691186,51.9659931 C151.688738,52.0644271 150.726829,52.2386533 149.840867,52.4710189 C148.953879,52.7016575 148.142068,52.9877493 147.421086,53.2982096 C147.243277,53.3795664 147.069061,53.4591962 146.89895,53.5369072 C146.732432,53.6167289 146.585669,53.7013476 146.428644,53.7786749 C146.351158,53.8187776 146.274698,53.8581128 146.199264,53.8970642 C146.122804,53.9436909 146.04737,53.98955 145.973219,54.0348334 C145.899068,54.0801169 145.825687,54.1248247 145.753589,54.168765 L145.64557,54.2334283 L145.591689,54.2652802 L145.578346,54.2733391 L145.571675,54.2771767 C145.575524,54.2739148 145.554228,54.2900326 145.57809,54.2710366 L145.553458,54.2869626 C145.028501,54.6252454 144.586162,54.9573881 144.212328,55.2265944 C143.842087,55.4988709 143.534451,55.7059084 143.327393,55.8465558 C143.117512,55.9862437 143,56.0553202 143,56.0553202" id="Fill-152" fill="#FFD4DB"></path>
                    <path d="M93,55.4494871 C93,55.4494871 93.0991619,55.3931005 93.2850593,55.2870711 C93.473442,55.185163 93.7435897,55.0276175 94.0979878,54.8408484 C94.4511432,54.6520187 94.8848211,54.4283453 95.3990213,54.1846276 C95.9144642,53.9420338 96.5131633,53.6822056 97.2020773,53.4334299 C97.2888129,53.4028949 97.376294,53.3723599 97.4647693,53.341263 C97.5569724,53.3120393 97.6496726,53.2826283 97.7436155,53.2526554 C97.9195718,53.1968307 98.0990076,53.1398821 98.2816742,53.0819967 C98.3728832,53.0533351 98.4650864,53.0244861 98.5580351,52.9954498 C98.657197,52.9690361 98.7571044,52.9422477 98.8577574,52.9154594 C99.0608032,52.8618827 99.2668312,52.807744 99.475593,52.7526687 C99.8943593,52.6415813 100.325303,52.5636516 100.767928,52.4641788 C101.215026,52.3841884 101.673308,52.3015754 102.145508,52.2386321 C102.618204,52.1760636 103.100096,52.1138696 103.594663,52.0827727 C103.841698,52.0653509 104.089229,52.0387499 104.340241,52.0293833 C104.5915,52.0217027 104.844251,52.0140222 105.097748,52.0063416 C105.351244,51.9947271 105.606978,52.0022203 105.863208,52.0042809 C106.119438,52.0085896 106.376911,52.0055923 106.634135,52.0222647 C107.148584,52.0567337 107.666761,52.0786514 108.180216,52.142906 C109.209362,52.2511833 110.224093,52.445071 111.196078,52.6876648 C111.677722,52.8206699 112.159614,52.9424351 112.611185,53.1100964 C112.839084,53.1895248 113.067728,53.2638952 113.289413,53.3461336 C113.508613,53.4324932 113.722594,53.5239108 113.93558,53.6119564 C114.041701,53.6563539 114.147324,53.700564 114.2527,53.7443995 C114.356583,53.7902956 114.456242,53.840875 114.557144,53.8886444 C114.758698,53.984558 114.956525,54.0814081 115.150127,54.1788203 L115.295266,54.2511301 L115.435435,54.3271865 C115.526147,54.3770166 115.616113,54.4268467 115.705582,54.4761148 C115.892474,54.5798962 116.063957,54.6786197 116.232209,54.7812771 C116.90646,55.1864743 117.49994,55.5796822 118.051171,55.9301787 C118.598425,56.2821739 119.108897,56.5920195 119.569913,56.8488504 C120.042112,57.1090533 120.468583,57.3171782 120.831431,57.4863381 C121.194527,57.6526881 121.486048,57.7847566 121.688845,57.8679316 C121.891643,57.9541039 122,58 122,58 C122,58 121.87524,57.9934434 121.643862,57.9702144 C121.413479,57.9443627 121.071258,57.9104557 120.643545,57.8351486 C120.21608,57.7628388 119.695419,57.6517515 119.120329,57.4883988 C118.535548,57.3198008 117.905286,57.0965021 117.243213,56.8289933 C116.582631,56.5620465 115.893717,56.2535122 115.181938,55.9487245 C115.005982,55.8745414 114.827789,55.7994216 114.647359,55.7233652 C114.555404,55.6857116 114.462952,55.6480581 114.370004,55.6100299 L114.232817,55.5549545 L114.0924,55.5043751 C113.711658,55.376428 113.349556,55.2113893 112.946447,55.0967427 C112.165827,54.8277352 111.32556,54.619423 110.471625,54.4208521 C109.607003,54.2479455 108.724736,54.0802842 107.819356,53.9957978 C106.920686,53.8839612 106.006359,53.8429357 105.103712,53.8206433 C104.200072,53.8052821 103.305627,53.8300098 102.437277,53.8804019 C102.002357,53.900821 101.577874,53.951213 101.156871,53.9774394 C100.741584,54.0246468 100.325303,54.0645483 99.9338749,54.1141911 C99.7375394,54.1400428 99.5441862,54.1653325 99.3535668,54.1902475 C99.2576357,54.202986 99.1624503,54.2155372 99.0680104,54.2279011 C98.9698427,54.2438242 98.8721719,54.25956 98.7752468,54.2751085 C98.5816451,54.3058308 98.3910256,54.3359911 98.2041341,54.3654021 C98.116653,54.3792646 98.0301659,54.3929398 97.9444244,54.4064276 C97.8566948,54.4214141 97.7697107,54.4364006 97.6837207,54.4510124 C96.3083779,54.7009121 95.1435366,54.9959585 94.3151995,55.1774824 C93.9023978,55.2724592 93.5701186,55.3361518 93.3464452,55.3837339 C93.1205351,55.4266327 93,55.4494871 93,55.4494871" id="Fill-153" fill="#FFD4DB"></path>
                    <path d="M40.3033402,59 C40.3033402,59 40.266895,58.8750387 40.2131192,58.6395871 C40.1652053,58.403114 40.0854336,58.0552993 40.0464398,57.6082307 C39.9562189,56.7169876 39.9452598,55.4125549 40.5087585,53.8733517 C40.7863026,53.1315855 41.1191517,52.3004395 41.7909665,51.4493747 C42.1304419,51.0252894 42.5721168,50.5916703 43.2278754,50.2115087 C43.3114699,50.1650313 43.3914964,50.1165109 43.4804431,50.0722466 L43.7635941,49.9464341 C43.9465847,49.8575652 44.1726468,49.8000217 44.3854561,49.7320931 C44.4909687,49.6963412 44.611773,49.680338 44.725951,49.654801 L44.9002762,49.6209218 L44.9879486,49.6044078 L45.0320396,49.5964062 L45.121496,49.5858509 L45.3814546,49.5560577 C45.5109243,49.5473751 45.6485494,49.5405652 45.7831163,49.5357983 C46.734769,49.5194546 47.5408957,49.6726769 48.274387,49.8207918 C49.0020165,49.9694174 49.683516,50.1338761 50.2569543,50.2092955 L50.7717744,50.2658175 C50.9438059,50.2818207 51.0860186,50.2879496 51.2445424,50.3007181 C51.5661775,50.3177428 51.9079468,50.3298304 52.2428347,50.3311923 C52.9169433,50.3337461 53.6002268,50.2949297 54.2822361,50.2210425 C55.6498226,50.082802 57.0092536,49.8029159 58.3291811,49.4654863 C58.9788229,49.3039219 59.5492029,49.1134155 60.2044517,48.8871572 C60.8510352,48.6654956 61.533809,48.4228936 62.3062941,48.2454962 C62.6924092,48.1567975 63.0991681,48.0832508 63.5245318,48.0386461 L63.8476962,48.0136198 L63.8879643,48.0105553 L63.965697,48.0061289 L64.0304318,48.0047669 L64.1596466,48.0018727 L64.2886065,48 L64.4603831,48.002724 C64.5732867,48.0059586 64.6966397,48.0062991 64.7988391,48.0141305 C65.6296874,48.0650344 66.3881551,48.2272798 67.0474817,48.4395778 C67.7075729,48.6539188 68.2848341,48.9062248 68.8001639,49.170959 C69.3221202,49.441141 69.7543652,49.7017891 70.1822776,49.9425184 C71.0383572,50.4307869 71.8307215,50.8741101 72.5374523,51.2649972 C73.2449477,51.6550331 73.862477,51.9977404 74.3780617,52.2747322 C75.4099957,52.8324615 76,53.1513341 76,53.1513341 C76,53.1513341 75.8256748,53.1000898 75.4986875,53.0042407 C75.1767975,52.9026032 74.6951094,52.7628304 74.1035759,52.5593853 C73.5094939,52.3590045 72.7874714,52.1131678 71.9800703,51.8074042 C71.1706303,51.5035133 70.2709694,51.1449731 69.3055542,50.7365505 C68.8174945,50.5334458 68.3271411,50.3031016 67.8406106,50.1146381 C67.3474536,49.9217483 66.8326335,49.7450319 66.2989536,49.6199003 C65.7662932,49.4951093 65.2224188,49.4156039 64.6912876,49.4181576 C64.6240041,49.4167956 64.576345,49.4227543 64.5182366,49.423265 L64.4333678,49.4254782 L64.3051725,49.4351823 L64.1767223,49.4440352 L64.1122423,49.4484616 C64.0712096,49.4510153 64.149707,49.4462484 64.1377285,49.4474401 L64.12575,49.4489723 L64.101793,49.452207 L63.9109018,49.4763821 C63.6527271,49.5174116 63.3856323,49.5785303 63.1106368,49.6566737 C62.5598812,49.8160249 61.9787971,50.0385377 61.349799,50.2833529 C61.0337708,50.4059308 60.7065287,50.5327648 60.3522713,50.6585774 L60.0645327,50.7549372 L59.8096713,50.8351235 L59.2604448,50.9953259 C57.8306721,51.4035783 56.2907992,51.7287501 54.6754873,51.9025723 C53.8673216,51.9844611 53.0420802,52.0266824 52.2135256,52.0179998 C51.797082,52.0149353 51.3898134,51.9948462 50.9677629,51.9618182 C50.7557181,51.9417291 50.5263428,51.9224912 50.3306092,51.8996781 L49.7472313,51.8227264 C48.8671947,51.6873801 48.1755008,51.4834241 47.522036,51.3276481 C46.8795303,51.1693184 46.2798413,51.0581471 45.8116608,51.0409521 C45.7693538,51.0411224 45.7308697,51.0383984 45.6847398,51.035334 L45.4222325,51.0530397 L45.4059213,51.0540612 C45.351381,51.0598496 45.4612263,51.0475918 45.446954,51.0494645 L45.4275846,51.0528694 L45.3885908,51.0591686 L45.3100934,51.0707454 C45.2583566,51.0806197 45.2020322,51.078066 45.1523342,51.0956014 C45.0514091,51.1265864 44.9428381,51.1386739 44.8429324,51.1827679 L44.687212,51.2363957 C44.63573,51.2571659 44.5867966,51.2837244 44.5355695,51.3065375 C44.1267717,51.4961927 43.7572226,51.787315 43.4320194,52.1038042 C42.7836518,52.7480189 42.3228623,53.4812728 41.9079479,54.1748592 C41.5057765,54.8471646 41.2116664,55.4954652 41.0019154,56.0800935 C40.7891061,56.6650622 40.645874,57.1875503 40.5503009,57.6215099 C40.4605897,58.0556398 40.3915222,58.4009008 40.3586451,58.6366929 C40.3224548,58.8736767 40.3033402,59 40.3033402,59" id="Fill-154" fill="#FFD4DB"></path>
                    <mask id="mask-4" fill="white">
                        <use xlink:href="#path-3"></use>
                    </mask>
                    <g id="Clip-156"></g>
                    <path d="M32.2471626,66 C32.2471626,66 32.2819175,66.0356703 32.3381386,66.1030889 C32.3928265,66.1701341 32.4730694,66.2683674 32.5755452,66.3933067 C32.6902875,66.510589 32.7896967,66.6416913 32.9460938,66.7918425 C33.0848578,66.9429276 33.2586323,67.1014828 33.4359845,67.2680686 C33.5348826,67.3479999 33.6276475,67.4324133 33.7265456,67.5166399 C33.8348991,67.5969447 33.9376305,67.6813581 34.0447063,67.7652112 C34.1650707,67.8423412 34.2706131,67.9282486 34.3899553,68.0076196 C34.5187529,68.0804542 34.6304285,68.1658014 34.7605038,68.2380757 C34.8928791,68.3079222 35.010688,68.3908415 35.1509853,68.4534045 C35.2169174,68.4877675 35.283105,68.5223173 35.3498038,68.5570537 L35.5575665,68.6500579 C35.8299836,68.7804131 36.1236113,68.8762186 36.4118725,68.9738916 C36.7085669,69.0538229 37.0042391,69.1348747 37.3111555,69.1785754 L37.5398734,69.217047 L37.5470288,69.2183543 L37.5506065,69.2191013 C37.5600619,69.2198484 37.4810967,69.2159265 37.5168738,69.217794 L37.5357846,69.2196616 L37.5741172,69.2233967 L37.6502713,69.2308669 L37.8018129,69.2456206 C37.872856,69.2523438 37.9436435,69.2588802 38.01392,69.2654167 C38.0775521,69.2732604 38.165206,69.2741942 38.2398268,69.2796101 C38.8597928,69.3096777 39.4787367,69.2676577 40.0314929,69.1768946 C40.5873157,69.0921077 41.0731176,68.960632 41.4267997,68.8582901 C41.513687,68.8315841 41.5936744,68.8074926 41.6667619,68.7880701 C41.7367828,68.7654727 41.7963261,68.7462369 41.8446252,68.7307362 C41.9458232,68.6999216 42,68.6836739 42,68.6836739 C42,68.6836739 41.987478,68.725507 41.9547675,68.8017032 C41.9218015,68.8777126 41.874269,68.9920069 41.785593,69.1268442 C41.6997279,69.2633623 41.5765525,69.4230381 41.4068668,69.5963471 C41.2353923,69.7672282 41.0174075,69.9524894 40.7393683,70.1276659 C40.4626069,70.3037762 40.1296243,70.4746573 39.7409317,70.6139768 C39.3530057,70.7525492 38.9134585,70.8677772 38.4386453,70.9323946 C38.316492,70.945841 38.2066052,70.9658238 38.0701411,70.9727337 C37.9426213,70.9805774 37.787502,70.990849 37.6778708,70.9938371 L37.5247959,70.9971987 L37.4481307,70.9986927 L37.4095425,70.9996265 L37.3903762,71 L37.3290441,70.9973854 C37.2020354,70.9897285 37.0740044,70.9822582 36.945718,70.9746013 C36.4302722,70.9428529 35.9196819,70.8356553 35.43158,70.6982034 C34.9552335,70.5424495 34.497031,70.3556942 34.1080829,70.120756 C34.0109736,70.0621148 33.9107977,70.0064617 33.819055,69.9453927 C33.7314011,69.8817092 33.6440028,69.8183991 33.5571155,69.7552758 C33.3807855,69.6314571 33.2384438,69.4897098 33.0922688,69.3563665 C32.9489048,69.2211556 32.8326292,69.07586 32.7160981,68.9378478 C32.6110668,68.7940462 32.5116576,68.6534195 32.425537,68.5142868 C32.3521939,68.3693647 32.2768064,68.2322863 32.2175187,68.0967019 C32.1694751,67.9568222 32.120665,67.8249729 32.0838657,67.6970455 C32.0258556,67.4361484 31.992123,67.2004632 32.0015783,66.9886826 C31.9951896,66.7828783 32.0406776,66.587719 32.0695548,66.4439174 C32.1055875,66.3003025 32.1664085,66.1921712 32.1929858,66.1161618 C32.2251852,66.0407127 32.2471626,66 32.2471626,66" id="Fill-155" fill="#FFD4DB" mask="url(#mask-4)"></path>
                    <path d="M251,0 C251,0 37.3795069,0 0,0 L0,60.6778953 C1.39806379,61.0716131 2.87669821,61.135544 4.03957605,60.6947827 C5.03679461,60.3169873 5.71198161,59.3802188 6.01368227,58.3918231 C7.89140493,52.24336 5.48809061,54.3825118 7.41049106,48.1076344 C9.09394058,42.6127139 14.2953905,41.0544889 19.4890594,39.7708049 C26.4151226,38.0589044 31.1946434,40.3840589 36.5973943,44.9810519 C40.1420006,47.9971426 42.4037515,46.0372385 46.0743592,44.4609198 C51.3972926,42.1750889 58.6165225,39.3606821 64.5175063,39.5958996 C72.4794419,39.9133828 76.1924684,46.9185198 82.9541273,49.7338916 C88.5260516,52.0537386 91.9702582,48.5532207 96.9320042,46.9515709 C102.653524,45.1045712 108.85169,45.1914208 114.10836,48.2953259 C115.679111,49.2226857 117.106542,50.3703055 118.7295,51.2100921 C122.73996,53.2853129 127.517473,53.2954454 132.071848,53.2551569 C136.03261,53.2201758 140.409529,53.0305544 143.266147,50.3934654 C144.420742,49.3276289 145.208377,47.9517878 146.253536,46.7790781 C149.686699,42.9314034 160.320517,40.2769445 162.516256,46.5855967 C165.805345,56.0345826 172.310232,54.7549997 174.64402,55.0587318 C178.109059,55.5096255 184.178714,51.4416908 190.146966,49.9891326 C194.978192,48.813528 200.714019,47.8825494 204.963179,51.085849 C207.20736,52.777967 208.630022,55.413126 211.122943,56.7457836 C214.270469,58.4282517 218.221191,57.5682002 221.529105,56.1988729 C224.83702,54.8295456 228.04604,52.9649347 231.637082,52.6947363 C239.051087,52.1374519 244.691784,49.0632203 246.186483,55.3803162 C246.466347,56.5631583 246.863678,57.7587867 247.654575,58.7288475 C247.926156,59.0617706 250.994115,60.9821099 250.998884,60.8033446 C251.001394,57.7865302 251,0 251,0" id="Fill-157" fill="#FBD0DA" mask="url(#mask-4)"></path>
                </g>
            </g>
        </g>
    </g>
</svg>