<?xml version="1.0" encoding="UTF-8"?>
<svg width="251px" height="165px" viewBox="0 0 251 165" version="1.1" xmlns="http://www.w3.org/2000/svg" xmlns:xlink="http://www.w3.org/1999/xlink">
    <!-- Generator: Sketch 54.1 (76490) - https://sketchapp.com -->
    <title>Group 14</title>
    <desc>Created with Sketch.</desc>
    <defs>
        <polygon id="path-1" points="0 -2.05903003e-13 251 -2.05903003e-13 251 77 0 77"></polygon>
        <polygon id="path-3" points="1.42108547e-14 -3.55271368e-14 251 -3.55271368e-14 251 82 1.42108547e-14 82"></polygon>
    </defs>
    <g id="Page-1" stroke="none" stroke-width="1" fill="none" fill-rule="evenodd">
        <g id="homepage-slide-1" transform="translate(-371.000000, -337.000000)">
            <g id="Group-14" transform="translate(371.000000, 337.000000)">
                <rect id="Rectangle" fill="#F2F5FA" x="1.13686838e-13" y="0" width="251" height="165"></rect>
                <g id="Group-12" transform="translate(0.000000, 0.000000)">
                    <path d="M251,81.6494814 L250.945784,10 C250.945784,10 37.630171,10 0.251251,10 L1.13686838e-13,84.8231762 C1.39807,85.1610018 4.131711,85.2169606 5.296351,84.8376841 C6.292821,84.5143664 6.968011,83.7081447 7.269211,82.860472 C9.146691,77.5775437 6.744621,71.7412448 8.667281,66.350544 C10.948871,59.9484391 18.737401,59.8531018 25.459181,58.2074976 C26.751831,57.8903976 28.245281,57.6023132 29.445061,57.9815897 C29.706101,58.0624192 29.952081,58.1764094 30.180491,58.3277055 C30.544441,58.5681212 30.815521,58.8831487 31.018831,59.2292644 C31.184491,59.502841 31.307481,59.797143 31.402861,60.091445 C32.670411,64.0230711 31.588601,75.5485179 32.808461,80.2469873 C32.876231,80.5143462 32.954041,80.7609795 33.039381,80.9806698 C33.323011,81.7143522 33.772301,82.4169465 34.379721,82.9972603 C34.721081,83.3226505 35.112641,83.6086623 35.554401,83.8407878 C36.781791,84.4874232 39.673311,84.6511546 40.970981,84.1081467 C41.969961,83.6894917 42.682801,82.9122857 43.187311,82.0853386 C45.355951,78.5412792 39.241591,70.7256956 44.572831,62.4582963 C45.137581,61.5795354 46.033651,60.7546608 47.215861,60.5702039 C48.365441,60.3919646 49.497451,60.8562157 50.601851,61.1712432 C55.315631,62.5184002 59.816061,60.8437804 63.975131,59.0717507 C68.708991,57.0572327 69.62991,60.1416007 74.73525,62.4006794 C78.13379,63.9053503 80.641531,66.4728244 84.210751,67.7495148 C89.782951,69.7412347 93.226671,66.7339656 98.188941,65.3577928 C103.909231,63.7722926 110.108931,63.8469044 115.364871,66.5122028 C116.936131,67.3101343 118.361811,68.2945953 119.985781,69.0158424 C123.996761,70.8003074 128.773291,70.8085976 133.328941,70.7733643 C137.289721,70.7443486 141.667161,70.5806172 144.523541,68.3153207 C145.678141,67.3992539 146.463771,66.2179008 147.505421,65.2147869 C150.228771,62.5888669 154.774381,61.3536275 158.853131,62.1308335 C160.329011,62.4106277 161.722061,62.9515631 162.944431,63.6873181 C164.719001,64.7505359 166.144681,66.2199734 166.967961,67.8966658 C167.148681,68.2572894 167.296771,68.6282757 167.417251,69.0075522 C168.255591,71.666633 167.668251,74.4707923 167.597971,77.2189927 C167.567851,78.3982733 167.668251,79.6314401 167.994551,80.7920678 C168.355991,82.0708307 168.991021,83.260474 170.035181,84.1972663 C170.248531,84.392086 170.481961,84.5744703 170.735471,84.7464919 C173.358421,86.5247392 177.469801,86.3382098 180.175581,84.6470095 C182.881361,82.9578818 184.221701,80.0418049 184.113771,77.2397182 C184.015881,74.7547315 183.057061,71.8573076 185.157931,70.0769877 C186.074081,69.2977091 187.386811,68.9495208 188.644321,68.6303482 C194.329471,67.1795637 201.053761,65.86764 205.840331,68.6780169 C205.968341,68.7505561 206.093841,68.829313 206.219341,68.9101424 C207.790601,69.9277641 208.960261,71.3433153 210.375901,72.4935802 C210.980811,72.986847 211.630901,73.4303725 212.378881,73.7723432 C215.526421,75.2189826 219.477161,74.4790825 222.785341,73.3018745 C226.093521,72.126739 229.303811,70.5246583 232.893111,70.2925328 C236.043161,70.089423 238.871931,70.8811368 241.198701,72.27389 C243.743841,73.7972137 245.689091,76.0417847 246.796001,78.491538 C247.062061,79.0759969 247.277921,79.6708186 247.443581,80.2718579 C247.468681,80.3609775 247.493781,80.4500971 247.523901,80.5371442 C247.812551,81.4013973 248.319571,82.2014013 248.826591,83.0117681 C248.854201,83.0573642 248.884321,83.1029603 248.911931,83.1485564 C249.251283,83.6946731 250.470139,84.5585117 251,84.8455598 L251,81.6494814" id="Fill-143" fill="#996E79"></path>
                    <g id="Group-147" transform="translate(0.000000, 8.000000)">
                        <mask id="mask-2" fill="white">
                            <use xlink:href="#path-1"></use>
                        </mask>
                        <g id="Clip-145"></g>
                        <path d="M251,75.008429 C250.903867,74.9688368 250.815264,74.9311005 250.784391,74.9152223 C250.417931,74.733758 250.033901,74.5275485 249.539431,74.2471037 C248.675991,73.7604493 248.101201,73.3542167 247.712151,72.7190916 C247.646891,72.6118626 247.584141,72.5005095 247.523901,72.3850322 C247.295491,71.9458061 247.107241,71.4385308 246.929031,70.7930952 C246.888871,70.6446244 246.843691,70.4961536 246.796001,70.3497448 C245.942601,67.6587113 244.152971,65.2089429 241.720781,63.4087343 C238.871931,61.3012736 235.458331,60.1031966 231.851461,60.3362133 C229.007631,60.5197398 226.402251,61.5260419 223.879701,62.5014127 C223.126701,62.792168 222.348601,63.0932338 221.583051,63.3633682 C217.459121,64.8233312 214.105761,65.1924462 211.618351,64.056232 C210.267971,63.4376036 209.246401,62.4725434 208.167101,61.4518065 C207.356371,60.6867694 206.520541,59.8949251 205.524071,59.2536137 C200.704871,56.1480991 194.008191,57.0451103 187.489721,58.6989102 C186.302491,58.999976 184.821591,59.3773393 183.792491,60.2454812 C181.990311,61.767307 182.231271,64.1469642 182.462191,66.2461765 C182.527451,66.8153146 182.585181,67.3535213 182.605261,67.8793555 C182.715701,70.7147356 181.285001,73.1995596 178.867871,74.7007645 C176.247431,76.3298192 172.374501,76.5834569 170.050241,75.016265 C169.103971,74.3790777 168.446351,73.5501157 167.994551,72.6386699 C167.229001,71.0920989 167.058321,69.3145733 167.095971,67.8546103 C167.113541,67.1370014 167.168761,66.3967094 167.223981,65.6832247 C167.369561,63.7427937 167.520161,61.7404998 166.967961,59.8083171 C166.945371,59.7278954 166.922781,59.6495358 166.897681,59.5711762 C165.798301,56.1068573 162.206491,53.0302121 157.959571,52.2259952 C153.712651,51.4217783 148.956201,52.7064632 146.119901,55.426366 C145.683161,55.8449712 145.291601,56.2924458 144.910081,56.7275477 C144.352861,57.364735 143.823251,57.9668666 143.170651,58.4823903 C140.515071,60.5795405 136.353491,60.7836879 132.319921,60.8146193 C128.052921,60.8476128 123.216151,61.0888779 119.220231,59.3216628 C118.301571,58.9154301 117.423071,58.4081549 116.572181,57.9173763 C115.942171,57.5544477 115.294591,57.1812086 114.621911,56.8409629 C109.629521,54.3210833 103.379621,53.6942065 97.024301,55.446987 C95.618701,55.8346608 94.346131,56.3439981 93.113721,56.8389008 C89.953631,58.1029649 87.222751,59.4020845 83.405041,58.0452262 C81.489911,57.3626729 79.795661,56.3027562 78.156631,55.2778952 C76.796211,54.4262501 75.388101,53.5457357 73.834411,52.8611203 C72.182831,52.1332009 71.000621,51.3083631 69.958971,50.5804437 C67.858101,49.1163565 66.198991,47.7512498 62.740211,49.2173991 C58.626321,50.9598691 54.236331,52.7621398 49.763511,51.4898274 C49.570241,51.4341508 49.376971,51.3764122 49.183701,51.3166114 C48.209821,51.0176077 47.196534,50.4752768 46.118991,50.6691137 C44.385083,50.9806962 43.880071,51.8012037 43.124561,52.9662871 C39.796301,58.0988407 40.802811,62.9798186 41.613541,66.8998605 C42.092951,69.2300275 42.509611,71.2446939 41.734021,72.5025716 C41.186841,73.3933965 40.516671,73.8037533 39.741081,74.1254401 C38.629151,74.5894114 35.915841,74.6595226 34.818971,74.0862603 C33.975611,73.644972 33.280341,72.9521082 32.808461,72.096339 C32.698021,71.8942537 32.600131,71.681858 32.514791,71.4632759 C31.711591,69.3991192 31.666411,64.9676779 31.623741,60.6826452 C31.583581,56.8987016 31.545931,53.3085948 31.018831,51.1846374 C30.978671,51.0134835 30.933491,50.8505781 30.883291,50.6979831 C30.589621,49.7968477 30.135311,49.1514121 29.490241,48.7266206 C28.074601,47.7924917 26.164491,47.8749755 24.312111,48.3265742 C23.032011,48.6400126 21.689161,48.8998365 20.388981,49.1514121 C14.841881,50.2257634 9.1615,51.1438079 7.181361,56.9172604 C6.230824,59.688097 6.320431,62.5612134 6.448441,65.3491654 C6.573941,68.1494899 6.694421,70.7930952 5.783291,73.3418441 C5.489621,74.1625578 4.847312,74.5953915 4.089292,74.8407807 C3.112902,75.1562812 1.777331,75.3503243 0.391811,75.016265 L0,74.9832715 L0,75.8390407 C1.56624,76.1978452 3.313451,76.1875347 4.475581,75.8101714 C5.517231,75.4719879 6.368121,74.6368396 6.747131,73.5748608 C7.703441,70.8961999 7.575431,68.0608198 7.449931,65.3182339 C7.326941,62.596269 7.198931,59.7815099 8.142691,57.1502771 C9.904711,52.2342435 15.110451,51.2279414 20.619901,50.1597764 C21.932631,49.9061387 23.290541,49.6421906 24.598251,49.324628 C26.189591,48.9369542 27.806031,48.6730061 28.862741,49.3699941 C29.083621,49.5164028 29.279401,49.7061155 29.445061,49.9432564 C29.633311,50.2072045 29.786421,50.5268292 29.911921,50.9103788 C30.539421,52.8384373 30.579581,56.8306525 30.619741,60.6888315 C30.662411,65.035727 30.710101,69.5310933 31.558481,71.7148515 C32.073031,73.0449025 33.041891,74.1357506 34.279321,74.7832483 C34.311951,74.799745 34.344581,74.8162418 34.379721,74.8327385 C35.817951,75.517354 38.802341,75.6472659 40.195391,75.0678173 C41.164251,74.6636468 41.985021,73.9254169 42.632601,72.8737487 C43.553771,71.3746059 43.112011,69.2362137 42.602481,66.7617002 C41.819361,62.965384 40.845481,58.2390631 44.010591,53.3539609 C44.361991,52.8095679 45.130051,51.8692528 46.304731,51.6857264 C47.112951,51.5620007 47.948781,51.8177004 48.832301,52.0878348 C49.033101,52.1496977 49.233901,52.2115605 49.434701,52.2692992 C54.284021,53.6467784 58.894891,51.9806059 63.202051,50.1556522 C66.063451,48.9452026 67.215541,49.7494195 69.308881,51.2093825 C70.390691,51.9641092 71.615571,52.8198784 73.360021,53.5869776 C74.843431,54.2406616 76.218911,55.1005551 77.549211,55.9336413 C79.233421,56.9894338 80.977871,58.0802818 83.005951,58.8020149 C87.247851,60.3114682 90.310051,59.0845219 93.555481,57.7854023 C94.757771,57.3049342 96.000221,56.8059073 97.343071,56.4347303 C103.412251,54.7603095 109.363461,55.1562316 114.097321,57.5441372 C114.742391,57.8699482 115.377421,58.237001 115.994881,58.5916813 C116.868361,59.0968945 117.774471,59.6186044 118.743331,60.0475201 C122.965151,61.9157778 127.937461,61.8786601 132.327451,61.8456666 C136.564331,61.8126731 140.944281,61.5899669 143.865921,59.2845451 C144.586291,58.717469 145.163591,58.0555367 145.725831,57.4162873 C146.094801,56.99562 146.473811,56.5605181 146.882941,56.1687201 C149.480791,53.6777098 153.843171,52.4981917 157.736181,53.2364215 C159.696491,53.6075986 161.503691,54.4613057 162.944431,55.6202029 C164.365091,56.7626033 165.429331,58.2040075 165.926311,59.7794478 C166.521181,61.658016 166.368071,63.6788687 166.219981,65.6316723 C166.167271,66.3554675 166.109541,67.1019458 166.091971,67.8381136 C165.999101,71.4240961 167.146171,74.1275022 169.412701,75.6555143 C169.610991,75.7895505 169.819321,75.9132761 170.035181,76.0266913 C171.260061,76.6762511 172.730921,77 174.234411,77 C176.061691,77 177.936661,76.521594 179.472781,75.5647821 C182.145931,73.904796 183.729741,70.9498144 183.609261,67.8525482 C183.589181,67.3040311 183.523921,66.7287067 183.463681,66.1719411 C183.240291,64.1696472 183.031961,62.2766444 184.512861,61.027015 C185.363751,60.3094061 186.651381,59.9815331 187.788411,59.6928398 C194.043331,58.1050269 200.448851,57.0306756 204.906611,59.9031735 C205.230401,60.1135071 205.539131,60.3423996 205.840331,60.5857268 C206.390021,61.0311392 206.904571,61.5177936 207.409081,61.9920753 C208.307661,62.8437204 209.233851,63.7180485 210.375901,64.382043 C210.616861,64.5243275 210.867861,64.6563016 211.131411,64.7759031 C213.904961,66.0440913 217.554501,65.8935583 221.979631,64.3284285 C222.762751,64.0521078 223.548381,63.7469178 224.308911,63.4541004 C226.746121,62.5117232 229.268671,61.5363524 231.929271,61.3651985 C235.583831,61.1301198 238.764001,62.3013895 241.198701,64.163461 C243.593241,65.994601 245.262391,68.4917976 245.950131,70.9745595 C246.193601,71.857136 246.459661,72.5087579 246.816081,73.0902686 C247.318081,73.9130443 248.076101,74.4161954 248.826591,74.8471732 C248.874281,74.8739804 248.921971,74.9007877 248.969661,74.9275949 C249.481701,75.2162881 249.878281,75.4286839 250.262311,75.6204587 C250.622998,75.8021292 250.845635,75.8864689 251,75.9198748 L251,75.008429" id="Fill-144" fill="#D8648F" mask="url(#mask-2)"></path>
                        <path d="M250.94478,0 C250.94478,0 37.379673,0 0,0 L0,74.823873 C1.39807,75.1619099 2.876711,75.2168331 4.039594,74.8381738 C5.036817,74.5138159 5.712007,73.7090353 6.013709,72.8599016 C7.89144,67.5777385 5.488115,61.7421981 7.410524,56.3514321 C9.693871,49.9490426 17.480393,49.8526679 24.203428,48.206422 C25.777449,47.8211305 27.645642,47.4777049 28.925491,48.3266314 C29.576083,48.7583486 29.931248,49.4255103 30.146104,50.0914284 C31.487699,54.246111 30.201826,66.8852914 31.784381,70.9817347 C32.226643,72.1270393 33.070003,73.1962804 34.298397,73.84168 C35.526791,74.4868724 38.417809,74.6522639 39.716232,74.1088349 C40.715212,73.6905894 41.427048,72.9115087 41.93206,72.0862095 C44.100449,68.5412783 37.985336,60.7264294 43.316074,52.4581011 C43.882079,51.5797441 44.777145,50.7548595 45.961112,50.5706076 C47.110692,50.3917445 48.241698,50.8551721 49.347102,51.1710324 C54.059627,52.5182058 58.559304,50.8433584 62.720131,49.0715146 C67.453238,47.0561433 68.238868,50.2630376 73.345212,52.5229727 C76.743501,54.0270399 79.38628,56.4722632 82.954496,57.7485545 C88.526445,59.741542 91.970667,56.7342366 96.932435,55.3582545 C102.65398,53.7714915 108.852174,53.8461042 114.108867,56.5126784 C115.679625,57.309376 117.107062,58.2952996 118.730028,59.0167628 C122.740506,60.7995912 127.51804,60.808296 132.072435,60.7736841 C136.033215,60.743839 140.410153,60.5807274 143.266784,58.3151963 C144.421384,57.399533 145.209022,56.217751 146.250421,55.213796 C148.973269,52.5892951 153.518377,51.3544553 157.596625,52.1314634 C161.674873,52.9084715 165.10529,55.6627156 166.160243,59.0070217 C166.999336,61.6675854 166.412247,64.4707422 166.341716,67.2193904 C166.271185,69.9680385 166.905713,73.0039455 169.479718,74.7476023 C172.103421,76.5246276 176.213044,76.3376814 178.919577,74.6477042 C181.62611,72.9575198 182.965195,70.0409931 182.856763,67.2403234 C182.76063,64.755514 181.802061,61.8582622 183.901676,60.0762628 C184.819081,59.2980111 186.13156,58.9498186 187.388066,58.6293986 C193.224569,57.1402539 200.15744,55.7970184 204.96409,58.9100252 C207.208281,60.3637288 208.630949,62.6278091 211.123881,63.7724919 C214.271421,65.2179053 218.222161,64.4790325 221.53009,63.3026393 C224.838019,62.1262461 228.047054,60.5243534 231.638111,60.2924323 C239.052149,59.8134603 244.692872,64.8454637 246.187577,70.2724997 C246.439079,71.1858832 246.878831,72.0725305 247.559543,72.8265331 C248.305013,73.6520395 249.30575,74.1737065 250.365472,74.6872904 C250.403624,74.705529 251,74.9314396 251,74.9314396 L250.94478,0" id="Fill-146" fill="#FFA9BD" mask="url(#mask-2)"></path>
                    </g>
                    <path d="M18,56.8660472 C18,56.8660472 18.0478515,56.8239837 18.1396956,56.754407 C18.2330833,56.6887985 18.3663472,56.5787456 18.5325412,56.4586397 C18.8672447,56.2115497 19.3382993,55.876629 19.9063433,55.4993802 C20.4756736,55.1245124 21.1471387,54.7078457 21.9153358,54.3157821 C22.1064847,54.2141948 22.3056088,54.1213376 22.5098783,54.0284804 C22.6125275,53.9819196 22.7159486,53.9353587 22.8196269,53.8885333 L22.8983504,53.8544063 L22.9871073,53.818692 L23.1409525,53.7565227 L23.4522447,53.6353586 L23.7941516,53.5165756 C24.0228614,53.4348295 24.2549156,53.3737184 24.4867125,53.3065226 C24.7203103,53.2448824 24.9616261,53.1925014 25.1993402,53.1430305 C25.4452868,53.1030834 25.6848017,53.0599617 25.9335782,53.0372104 C26.183641,53.0173691 26.4259859,52.9922368 26.6799077,53.0022897 C26.8046819,53.0036125 26.9286843,53.0051998 27.0519148,53.0065225 C27.1769462,53.0118135 27.303264,53.0311257 27.4264946,53.0440887 C27.9189023,53.0911786 28.4089946,53.2300676 28.8504635,53.4107554 C29.070169,53.5081099 29.279841,53.6308613 29.4733052,53.742237 C29.6603378,53.8821841 29.8360507,54.0184275 29.9934977,54.1554646 C30.1380814,54.3163112 30.2728889,54.4660467 30.3904596,54.6126075 C30.4956815,54.7721314 30.5841811,54.9279515 30.6621328,55.072396 C30.7462589,55.2126077 30.7892224,55.3626077 30.8332149,55.495412 C30.8751493,55.6290099 30.9142538,55.7469993 30.9397232,55.8562586 C30.9749686,56.0832428 30.9824294,56.2615497 30.9932346,56.3774228 C31.0012098,56.4948831 30.9999235,56.557317 30.9999235,56.557317 C30.9999235,56.557317 30.9510429,56.5173699 30.8597133,56.4427667 C30.7745582,56.3665762 30.6415515,56.2634016 30.4974824,56.1319201 C30.4164435,56.076629 30.3266576,56.0152534 30.2288964,55.9485867 C30.1303634,55.8882692 30.0464946,55.8062586 29.9250649,55.758375 C29.8095523,55.7054649 29.7022723,55.6390628 29.5823862,55.5866818 C29.4534957,55.5464702 29.3292361,55.5001739 29.2034329,55.455994 C29.0724843,55.4290099 28.9358759,55.4009675 28.7946367,55.371867 C28.6446505,55.3668405 28.5080421,55.33774 28.3554832,55.3364172 C28.0495935,55.3332426 27.7326414,55.3409146 27.3848174,55.390121 C27.0439396,55.4234543 26.6750197,55.5044067 26.2988964,55.5819199 C26.1105774,55.6178988 25.9158268,55.6753062 25.7223626,55.713666 C25.5252966,55.7649888 25.3274588,55.8163115 25.129621,55.8676343 C24.9297251,55.9216026 24.7295719,55.9755708 24.5304478,56.0292745 C24.3236057,56.0858883 24.1177926,56.1422375 23.9135232,56.1980576 C23.5093578,56.3038778 23.0985036,56.4165762 22.6943382,56.5136662 C21.885493,56.7144599 21.0913119,56.8697509 20.3897467,56.9422377 C19.6889533,57.0192219 19.0854065,57.0094335 18.6632325,56.9697509 C18.4507306,56.9536134 18.2853083,56.9192218 18.1736548,56.901497 C18.0612294,56.8813911 18,56.8660472 18,56.8660472" id="Fill-148" fill="#FFD4DB"></path>
                    <path d="M224,69.5195482 C224,69.5195482 224.090976,69.4615589 224.261366,69.353063 C224.435024,69.2493475 224.683574,69.0882663 225.009025,68.8993337 C225.661436,68.5198056 226.593057,67.9827298 227.815448,67.438795 C228.427146,67.1685943 229.112731,66.8967308 229.877982,66.660617 C230.642479,66.4263738 231.48815,66.225386 232.398912,66.1131488 L232.569805,66.0911171 L232.655503,66.0801012 L232.794229,66.0709559 L233.112392,66.0501713 C233.325506,66.0381162 233.540128,66.0260611 233.756007,66.014006 C233.868093,66.0102647 233.962838,65.996339 234.090003,66.0009116 L234.46421,66.0104726 C234.715272,66.0212806 234.967591,66.0318808 235.220916,66.0426888 C235.480774,66.0468457 235.711229,66.0911171 235.956009,66.1189685 C236.198024,66.1497298 236.440794,66.1825696 236.68306,66.2193585 C237.161059,66.313513 237.636545,66.4292836 238.110021,66.5448464 L238.796108,66.7734777 C239.02229,66.8539144 239.257772,66.9179312 239.470635,67.0183211 C239.688272,67.1108129 239.905156,67.2039282 240.118271,67.3007848 L240.438193,67.4448225 L240.740273,67.6094371 C240.94057,67.719388 241.140113,67.8287154 241.338651,67.937627 C241.539702,68.0436288 241.714114,68.1764429 241.897824,68.2967861 C242.078519,68.4194157 242.258209,68.5416295 242.436642,68.6628041 C242.613818,68.7843944 242.766617,68.9263537 242.92972,69.0556344 C243.089053,69.187617 243.24738,69.3185604 243.403949,69.4482568 C243.552224,69.5837728 243.691452,69.7238615 243.829172,69.8616638 C243.966641,69.9990505 244.102602,70.1349822 244.237055,70.2692512 C244.360701,70.4099634 244.480829,70.550052 244.595931,70.6901407 C244.711033,70.8291901 244.824627,70.9665768 244.936713,71.1016771 C245.043772,71.2392716 245.13902,71.3801917 245.233514,71.5177862 C245.417979,71.7954694 245.612244,72.0525757 245.750216,72.3231921 C245.893213,72.5906908 246.042745,72.8390676 246.15835,73.0855738 C246.264907,73.3362369 246.369202,73.5704801 246.45867,73.7926682 C246.555174,74.0119464 246.613479,74.228107 246.673041,74.4241064 C246.729586,74.619898 246.781608,74.7996854 246.828353,74.9622215 C246.899726,75.292282 246.931643,75.5545846 246.962806,75.7295915 C246.986932,75.9058455 247,76 247,76 C247,76 246.939182,75.9189398 246.825588,75.7670039 C246.717523,75.616315 246.559447,75.3951661 246.357893,75.1137417 C246.250582,74.9780178 246.131962,74.8277447 246.002535,74.6641693 C245.870344,74.503296 245.752478,74.3210145 245.585103,74.1441369 C245.430544,73.9639339 245.265934,73.7722992 245.092527,73.5702722 C244.913592,73.3728179 244.7143,73.1724537 244.515008,72.9616971 C244.324009,72.746368 244.091293,72.5430939 243.863351,72.3279726 C243.745987,72.2225943 243.639179,72.1080708 243.516286,72.0016533 C243.391132,71.8975221 243.263967,71.791936 243.135043,71.6848949 C243.008381,71.5774382 242.880211,71.4685265 242.750281,71.35816 C242.611556,71.2561072 242.471574,71.1525996 242.329833,71.0480527 C242.189851,70.943298 242.048362,70.837504 241.905615,70.7306708 C241.755078,70.632775 241.602782,70.5336321 241.44948,70.4338657 C241.294922,70.3359699 241.146145,70.230176 240.986309,70.1356057 C240.824714,70.0437375 240.661863,69.9512457 240.498006,69.8581304 C240.178586,69.6619231 239.823479,69.5091558 239.481441,69.3360195 L239.222588,69.2084017 L238.950163,69.1019842 C238.767961,69.031732 238.58802,68.957115 238.408079,68.8820824 C238.231657,68.7993594 238.036889,68.7536331 237.850916,68.690032 L237.287973,68.508374 C236.904217,68.4119332 236.520209,68.3113354 236.133185,68.2279889 C235.936155,68.1988903 235.740633,68.1660505 235.545613,68.1311323 C235.352102,68.1007867 235.151553,68.051527 234.968848,68.0450838 C234.782624,68.0290796 234.596652,68.0136989 234.411434,67.9939535 L234.133732,67.9621529 C234.044264,67.9492664 233.921874,67.9563332 233.81783,67.9523841 C233.6017,67.94989 233.386575,67.947188 233.17321,67.9446938 L232.854041,67.9382506 L232.814334,67.9372113 L232.79448,67.9367956 C232.778396,67.9370035 232.898021,67.9320152 232.842983,67.9343015 L232.834187,67.9347172 L232.762563,67.9370035 L232.619314,67.941784 C231.094341,67.9900044 229.626165,68.2726759 228.352506,68.5524375 C227.078093,68.835109 225.993171,69.1098823 225.222642,69.2751205 C224.838383,69.3620004 224.52977,69.4179111 224.322184,69.4607276 C224.112086,69.4991792 224,69.5195482 224,69.5195482" id="Fill-149" fill="#FFD4DB"></path>
                    <path d="M187,64.7920621 C187,64.7920621 187.373154,64.5960691 188.041784,64.2956605 C188.373976,64.1428886 188.789091,63.9744972 189.267897,63.7842812 C189.748951,63.5992004 190.294446,63.3978582 190.903881,63.202935 C191.209098,63.1064362 191.526803,63.006514 191.860993,62.911513 C192.196183,62.8184377 192.544859,62.7294277 192.904776,62.6361384 C193.267939,62.5511939 193.64459,62.4756638 194.029233,62.392003 C194.418123,62.3190405 194.819501,62.2599858 195.227622,62.1930144 C195.64024,62.1408066 196.062099,62.0958737 196.491201,62.055862 C196.924549,62.0338235 197.362393,61.999161 197.808979,62.0000169 C198.7029,61.998947 199.621799,62.0485872 200.5367,62.2037127 L201.220317,62.3258874 L201.893942,62.5002699 C202.347272,62.6004061 202.773627,62.7771422 203.199731,62.9363331 C203.305883,62.9772006 203.413034,63.0152866 203.517187,63.0587217 L203.820156,63.2061445 C204.018722,63.3073505 204.216539,63.4081286 204.412857,63.5082648 L204.559221,63.5835809 L204.695844,63.671307 L204.967093,63.8461174 C205.147676,63.9612313 205.321514,64.0812663 205.495103,64.1978779 L205.580774,64.2571466 L205.743373,64.387452 L205.958424,64.5601227 C206.114279,64.6932097 206.273132,64.830576 206.4155,64.9645189 C206.688247,65.2283392 206.945759,65.4857406 207.175546,65.7444258 C207.638616,66.2592285 208.028505,66.7517788 208.385424,67.1991821 C208.739346,67.6476553 209.063295,68.048842 209.363018,68.3982488 C209.660242,68.7502233 209.94248,69.0384358 210.183257,69.27765 C210.429529,69.5087336 210.627096,69.6993775 210.776957,69.8125656 C210.922572,69.9347403 211,70 211,70 C211,70 210.896346,69.9743241 210.702026,69.917409 C210.506707,69.8622058 210.224219,69.7680606 209.87779,69.6187122 C209.534109,69.4674381 209.12299,69.2613886 208.687894,68.9892236 C208.250799,68.7187703 207.781734,68.3879785 207.297682,68.0178169 C206.831614,67.6517207 206.326583,67.2552413 205.792328,66.8358675 C205.529322,66.6353811 205.265566,66.4331831 204.989322,66.2410414 C204.853448,66.1505337 204.724318,66.0668729 204.592191,65.9746534 L204.354411,65.8257329 L204.234772,65.7508448 L204.174578,65.7134007 L204.167085,65.7086934 C204.209545,65.7382208 204.174828,65.7146845 204.182321,65.7204616 L204.168084,65.7131867 L204.13936,65.698637 C203.987002,65.6207533 203.832395,65.5445813 203.682034,65.4622043 L203.454995,65.3393877 L203.34135,65.2777654 L203.218464,65.2279113 C203.055615,65.1613678 202.891767,65.0941824 202.72717,65.0267831 L202.483645,64.9204419 C202.399224,64.8900586 202.311305,64.8648106 202.225135,64.8365671 C202.052795,64.7809359 201.879705,64.7250907 201.706116,64.6690315 C201.620945,64.6382204 201.532527,64.6136143 201.440862,64.5945713 L201.169863,64.5286697 L200.627366,64.3953687 L200.065138,64.3042191 C199.319828,64.1644992 198.540551,64.1169987 197.769016,64.0722797 C197.576944,64.0555904 197.380377,64.0680004 197.187306,64.0615814 C196.993235,64.0575161 196.800164,64.0536647 196.608342,64.0495993 C196.22195,64.058158 195.838806,64.0714239 195.459907,64.0744194 C195.080259,64.0949602 194.706605,64.1189244 194.337448,64.1326182 C193.968789,64.159578 193.608124,64.1923148 193.253453,64.2126416 C192.546608,64.2770454 191.871983,64.3350303 191.246563,64.4017877 C190.616897,64.4655497 190.039682,64.5241764 189.527906,64.5759562 C189.014632,64.6303037 188.562302,64.6688176 188.18615,64.7047639 C187.812247,64.7413521 187.511776,64.7556879 187.311961,64.7728052 C187.1084,64.7854292 187,64.7920621 187,64.7920621" id="Fill-150" fill="#FFD4DB"></path>
                    <path d="M167.449865,76 C167.449865,76 167.473588,76.0680432 167.509043,76.1955961 C167.54189,76.3240473 167.605239,76.5045976 167.675105,76.7329802 C167.823962,77.186377 168.045553,77.8174048 168.418607,78.4695416 C168.602658,78.7962837 168.827637,79.1261697 169.094849,79.4419081 L169.144903,79.5014179 C169.135257,79.4865966 169.170972,79.5398185 169.124308,79.4693051 L169.128218,79.4733472 L169.136039,79.4816562 L169.151681,79.498274 L169.182443,79.5317342 L169.304969,79.6680451 L169.4288,79.8061526 C169.47025,79.8510656 169.513786,79.9051858 169.550805,79.9292142 C169.711914,80.0504794 169.829227,80.1825236 170.024487,80.3152415 C170.196024,80.4531245 170.390503,80.5737159 170.581331,80.6990232 C170.674139,80.764147 170.785977,80.8110811 170.886866,80.8687943 C170.989058,80.9251601 171.087601,80.9869155 171.199699,81.0329513 C171.307627,81.0834785 171.416076,81.1342302 171.524786,81.1849819 C171.640013,81.2263018 171.754197,81.2696429 171.866296,81.316577 C171.97657,81.366655 172.095968,81.4014626 172.214324,81.4387403 C172.333461,81.4733234 172.446864,81.5209311 172.570433,81.546307 C173.048026,81.6902532 173.550124,81.7661562 174.046487,81.8386907 C174.547021,81.8806843 175.045991,81.917513 175.533751,81.8946074 C175.778022,81.8919126 176.016036,81.8593506 176.253269,81.8445294 C176.371103,81.8290344 176.487373,81.8135394 176.602339,81.798269 L176.76397,81.7773844 L176.957666,81.741454 C177.397719,81.6651019 177.847157,81.5496755 178.248105,81.430656 C179.059648,81.1908206 179.741887,80.9015808 180.226779,80.6875703 C180.46714,80.5779826 180.665007,80.4935462 180.794572,80.429096 C180.92857,80.3675652 181,80.3350032 181,80.3350032 C181,80.3350032 180.964806,80.4005762 180.89103,80.5193711 C180.815167,80.6359204 180.706458,80.8126531 180.542481,81.0208248 C180.217655,81.4376175 179.69053,82.0140759 178.888372,82.5611163 C178.483774,82.8339629 178.031989,83.0971531 177.485052,83.3295779 L177.305433,83.4075019 C177.214972,83.4425341 177.159705,83.4591519 177.084103,83.4858751 C176.941503,83.5346057 176.796817,83.5837855 176.650828,83.6336389 C176.504057,83.6839415 176.351811,83.7153806 176.198262,83.7535566 C176.044713,83.7890379 175.889339,83.832379 175.730576,83.8546109 C175.572334,83.880885 175.412006,83.9100785 175.249594,83.9320858 C175.087441,83.9547669 174.923464,83.9610547 174.758184,83.9756514 C174.426841,84.0122555 174.093151,83.9976588 173.755291,83.9942903 C173.082959,83.9592582 172.404892,83.8577548 171.75133,83.6772045 C171.106371,83.4777908 170.46845,83.243794 169.910042,82.8972902 C169.346159,82.5651585 168.833373,82.1712715 168.427471,81.7163027 C168.219697,81.5074572 168.021308,81.2386529 167.847164,80.988712 C167.79685,80.9222408 167.77443,80.8721628 167.743929,80.8180426 L167.570306,80.499834 L167.549451,80.4603105 L167.539283,80.4405488 L167.53407,80.4304434 L167.531723,80.425503 C167.482713,80.3520702 167.516603,80.4019236 167.505132,80.3839584 L167.464464,80.2916622 C167.243395,79.8050298 167.113829,79.3224396 167.051784,78.876678 C166.925608,77.9817863 167.05387,77.2488061 167.182132,76.7581315 C167.246262,76.5122328 167.321603,76.3197806 167.368268,76.1940242 C167.418582,76.0673695 167.449865,76 167.449865,76" id="Fill-151" fill="#FFD4DB"></path>
                    <path d="M143,63.9869079 C143,63.9869079 143.288136,63.5379109 143.792568,62.752166 C144.048119,62.3602899 144.362939,61.8833966 144.799634,61.3553601 C144.914837,61.2282771 145.033376,61.0969875 145.155763,60.9619341 C145.215033,60.8968429 145.275072,60.8310874 145.336137,60.7644463 C145.407209,60.697141 145.479051,60.6291715 145.551919,60.5600951 C145.699708,60.4230491 145.853654,60.2762616 146.016581,60.1407654 C146.182073,60.0092545 146.351158,59.8750867 146.524091,59.7378194 C147.237633,59.2100043 148.084851,58.7036649 149.053944,58.2765863 C150.022524,57.8506148 151.109899,57.4999188 152.280149,57.2780771 C152.5747,57.2302549 152.871816,57.1819899 153.171242,57.1335036 C153.474517,57.1033933 153.779844,57.0728403 154.087223,57.0422872 C154.397426,57.0281177 154.709167,57.0141695 155.022705,57 C155.337012,57.0013284 155.653629,57.0121769 155.971785,57.0190403 C156.289171,57.0442798 156.608097,57.0697407 156.927792,57.0952015 L157.405796,57.1613998 L157.644926,57.1970451 L157.764491,57.2154212 L157.824274,57.2244985 L157.839155,57.2267125 L157.897655,57.2382253 L157.924339,57.2437602 C158.212732,57.3066375 158.48573,57.3591091 158.787722,57.4308423 C159.10947,57.5196233 159.444817,57.6041977 159.754762,57.7029417 C160.969143,58.1014598 162.117327,58.6434444 163.128242,59.3111836 C163.637035,59.6406252 164.114269,59.9992915 164.546858,60.3860755 C164.763923,60.5791354 164.981757,60.7682101 165.175473,60.9749967 C165.376373,61.1755841 165.570089,61.3783856 165.742509,61.5938067 C166.460669,62.4335729 167.00564,63.3379876 167.373059,64.2375315 C167.559077,64.690071 167.687623,65.1313191 167.796668,65.5816446 C167.816425,65.6834881 167.835924,65.7842246 167.855168,65.8840755 C167.872872,65.9949964 167.890319,66.1048103 167.907766,66.2137385 C167.938812,66.4307095 167.962674,66.6319612 167.975246,66.834984 C168.03118,67.6415403 167.985509,68.3679503 167.906227,69.0004871 C167.826688,69.6334667 167.718925,70.1747871 167.618347,70.617585 C167.521104,71.0606043 167.420269,71.4048796 167.359717,71.6402267 C167.292237,71.8749096 167.256059,72 167.256059,72 C167.256059,72 167.239125,71.8720314 167.207566,71.6318136 C167.179599,71.3927027 167.138547,71.0417854 167.086462,70.5954451 C167.034633,70.1513188 166.97562,69.6139836 166.882226,69.0095644 C166.790371,68.4053667 166.664135,67.7338637 166.456564,67.0338002 C166.40294,66.8608877 166.348802,66.6786763 166.287223,66.5079777 C166.256177,66.4231819 166.224875,66.337722 166.193572,66.2515978 C166.154829,66.1559534 166.115829,66.0596449 166.076573,65.9624507 C165.919548,65.6250387 165.753286,65.2553025 165.534938,64.9074848 C165.115177,64.2005579 164.566102,63.5062508 163.906441,62.8599873 C163.748646,62.6932739 163.565193,62.5433868 163.389438,62.3861936 C163.218814,62.2250151 163.025098,62.080663 162.834974,61.9323257 C162.650495,61.7788963 162.441897,61.6460569 162.239971,61.5063541 C162.044972,61.3595666 161.825342,61.2373544 161.614948,61.1042937 C160.754901,60.5948547 159.817623,60.1575918 158.828004,59.8443123 C158.587591,59.7646086 158.357441,59.7063807 158.122416,59.6328763 C157.859425,59.5664566 157.559742,59.5046863 157.281099,59.4404806 L156.936516,59.384688 L156.552419,59.3167186 C156.292763,59.2868297 156.03362,59.2569409 155.775759,59.2272734 C155.51482,59.2122183 155.255164,59.1973845 154.996534,59.1823294 C154.736364,59.1790084 154.477221,59.1759088 154.219874,59.1725879 C153.961757,59.183215 153.70518,59.1938422 153.450398,59.2044693 C153.196643,59.2294874 152.943145,59.2476421 152.691186,59.2684536 C151.688738,59.3820313 150.726829,59.5830615 149.840867,59.8511756 C148.953879,60.1172972 148.142068,60.447403 147.421086,60.8056265 C147.243277,60.8994996 147.069061,60.9913802 146.89895,61.0810468 C146.732432,61.1731487 146.585669,61.2707857 146.428644,61.3600094 C146.351158,61.4062818 146.274698,61.4516686 146.199264,61.4966126 C146.122804,61.5504125 146.04737,61.6033269 145.973219,61.655577 C145.899068,61.7078272 145.825687,61.7594131 145.753589,61.8101135 L145.64557,61.8847249 L145.591689,61.9214772 L145.578346,61.9307759 L145.571675,61.9352039 C145.575524,61.9314401 145.554228,61.9500376 145.57809,61.9281191 L145.553458,61.9464953 C145.028501,62.3368216 144.586162,62.7200632 144.212328,63.0306859 C143.842087,63.344851 143.534451,63.5837405 143.327393,63.7460259 C143.117512,63.9072043 143,63.9869079 143,63.9869079" id="Fill-152" fill="#FFD4DB"></path>
                    <path d="M93,63.0244017 C93,63.0244017 93.0991619,62.9586172 93.2850593,62.8349162 C93.473442,62.7160234 93.7435897,62.5322204 94.0979878,62.3143231 C94.4511432,62.0940218 94.8848211,61.8330695 95.3990213,61.5487322 C95.9144642,61.2657061 96.5131633,60.9625732 97.2020773,60.6723349 C97.2888129,60.6367107 97.376294,60.6010866 97.4647693,60.5648068 C97.5569724,60.5307126 97.6496726,60.4963997 97.7436155,60.4614313 C97.9195718,60.3963025 98.0990076,60.3298624 98.2816742,60.2623295 C98.3728832,60.2288909 98.4650864,60.1952338 98.5580351,60.1613581 C98.657197,60.1305421 98.7571044,60.099289 98.8577574,60.068036 C99.0608032,60.0055298 99.2668312,59.942368 99.475593,59.8781135 C99.8943593,59.7485116 100.325303,59.6575935 100.767928,59.5415419 C101.215026,59.4482198 101.673308,59.351838 102.145508,59.2784042 C102.618204,59.2054075 103.100096,59.1328479 103.594663,59.0965681 C103.841698,59.0762427 104.089229,59.0452082 104.340241,59.0342805 C104.5915,59.0253199 104.844251,59.0163592 105.097748,59.0073985 C105.351244,58.9938482 105.606978,59.0025904 105.863208,59.0049944 C106.119438,59.0100212 106.376911,59.0065243 106.634135,59.0259755 C107.148584,59.0661893 107.666761,59.09176 108.180216,59.1667236 C109.209362,59.2930472 110.224093,59.5192495 111.196078,59.8022756 C111.677722,59.9574482 112.159614,60.0995076 112.611185,60.2951125 C112.839084,60.3877789 113.067728,60.4745444 113.289413,60.5704892 C113.508613,60.6712421 113.722594,60.7778959 113.93558,60.8806158 C114.041701,60.9324129 114.147324,60.9839914 114.2527,61.0351327 C114.356583,61.0886782 114.456242,61.1476875 114.557144,61.2034185 C114.758698,61.3153176 114.956525,61.4283095 115.150127,61.541957 L115.295266,61.6263185 L115.435435,61.715051 C115.526147,61.773186 115.616113,61.8313211 115.705582,61.8888006 C115.892474,62.0098789 116.063957,62.1250563 116.232209,62.2448233 C116.90646,62.7175533 117.49994,63.1762959 118.051171,63.5852085 C118.598425,63.9958695 119.108897,64.3573561 119.569913,64.6569922 C120.042112,64.9605622 120.468583,65.2033745 120.831431,65.4007278 C121.194527,65.5948028 121.486048,65.7488827 121.688845,65.8459202 C121.891643,65.9464545 122,66 122,66 C122,66 121.87524,65.9923506 121.643862,65.9652501 C121.413479,65.9350898 121.071258,65.8955317 120.643545,65.8076734 C120.21608,65.723312 119.695419,65.5937101 119.120329,65.4031319 C118.535548,65.2064343 117.905286,64.9459191 117.243213,64.6338255 C116.582631,64.3223876 115.893717,63.9624309 115.181938,63.6068453 C115.005982,63.5202983 114.827789,63.4326586 114.647359,63.3439261 C114.555404,63.2999969 114.462952,63.2560678 114.370004,63.2117015 L114.232817,63.147447 L114.0924,63.0884377 C113.711658,62.939166 113.349556,62.7466209 112.946447,62.6128665 C112.165827,62.2990244 111.32556,62.0559936 110.471625,61.8243274 C109.607003,61.6226031 108.724736,61.4269982 107.819356,61.3284308 C106.920686,61.1979547 106.006359,61.1500916 105.103712,61.1240838 C104.200072,61.1061625 103.305627,61.1350114 102.437277,61.1938022 C102.002357,61.2176245 101.577874,61.2764152 101.156871,61.3070126 C100.741584,61.362088 100.325303,61.4086397 99.9338749,61.4665563 C99.7375394,61.4967166 99.5441862,61.5262212 99.3535668,61.5552888 C99.2576357,61.5701504 99.1624503,61.5847934 99.0680104,61.5992179 C98.9698427,61.6177949 98.8721719,61.6361533 98.7752468,61.6542932 C98.5816451,61.6901359 98.3910256,61.7253229 98.2041341,61.7596358 C98.116653,61.7758087 98.0301659,61.791763 97.9444244,61.8074989 C97.8566948,61.8249831 97.7697107,61.8424673 97.6837207,61.8595145 C96.3083779,62.1510641 95.1435366,62.495285 94.3151995,62.7070628 C93.9023978,62.8178691 93.5701186,62.8921771 93.3464452,62.9476896 C93.1205351,62.9977382 93,63.0244017 93,63.0244017" id="Fill-153" fill="#FFD4DB"></path>
                    <path d="M40.3033402,68 C40.3033402,68 40.266895,67.8523185 40.2131192,67.5740575 C40.1652053,67.2945892 40.0854336,66.8835356 40.0464398,66.3551817 C39.9562189,65.3018944 39.9452598,63.7602922 40.5087585,61.9412338 C40.7863026,61.064601 41.1191517,60.0823376 41.7909665,59.0765338 C42.1304419,58.575342 42.5721168,58.0628831 43.2278754,57.6136012 C43.3114699,57.5586733 43.3914964,57.501331 43.4804431,57.4490188 L43.7635941,57.3003312 C43.9465847,57.1953043 44.1726468,57.1272983 44.3854561,57.0470191 C44.4909687,57.0047669 44.611773,56.985854 44.725951,56.9556739 L44.9002762,56.9156349 L44.9879486,56.8961184 L45.0320396,56.8866619 L45.121496,56.8741875 L45.3814546,56.8389773 C45.5109243,56.828716 45.6485494,56.820668 45.7831163,56.8150344 C46.734769,56.7957191 47.5408957,56.9768 48.274387,57.1518449 C49.0020165,57.3274933 49.683516,57.5218535 50.2569543,57.6109856 L50.7717744,57.6777843 C50.9438059,57.6966972 51.0860186,57.7039404 51.2445424,57.7190305 C51.5661775,57.7391506 51.9079468,57.7534359 52.2428347,57.7550455 C52.9169433,57.7580635 53.6002268,57.7121897 54.2822361,57.6248684 C55.6498226,57.4614932 57.0092536,57.1307188 58.3291811,56.7319383 C58.9788229,56.5409986 59.5492029,56.3158546 60.2044517,56.0484585 C60.8510352,55.7864948 61.533809,55.4997833 62.3062941,55.2901319 C62.6924092,55.1853061 63.0991681,55.0983873 63.5245318,55.0456726 L63.8476962,55.0160961 L63.8879643,55.0124745 L63.965697,55.0072432 L64.0304318,55.0056336 L64.1596466,55.0022132 L64.2886065,55 L64.4603831,55.0032192 C64.5732867,55.007042 64.6966397,55.0074444 64.7988391,55.0166997 C65.6296874,55.0768588 66.3881551,55.2686034 67.0474817,55.519501 C67.7075729,55.7728131 68.2848341,56.070993 68.8001639,56.3838606 C69.3221202,56.7031666 69.7543652,57.0112053 70.1822776,57.2957036 C71.0383572,57.8727481 71.8307215,58.3966755 72.5374523,58.8586331 C73.2449477,59.3195846 73.862477,59.7246022 74.3780617,60.0519563 C75.4099957,60.7110908 76,61.0879403 76,61.0879403 C76,61.0879403 75.8256748,61.0273788 75.4986875,60.9141026 C75.1767975,60.7939856 74.6951094,60.6287996 74.1035759,60.3883644 C73.5094939,60.1515508 72.7874714,59.8610165 71.9800703,59.4996595 C71.1706303,59.1405157 70.2709694,58.7167864 69.3055542,58.2341051 C68.8174945,57.9940723 68.3271411,57.7218473 67.8406106,57.4991178 C67.3474536,57.2711571 66.8326335,57.0623104 66.2989536,56.9144277 C65.7662932,56.7669473 65.2224188,56.6729864 64.6912876,56.6760045 C64.6240041,56.6743948 64.576345,56.6814369 64.5182366,56.6820405 L64.4333678,56.6846561 L64.3051725,56.6961246 L64.1767223,56.706587 L64.1122423,56.7118182 C64.0712096,56.7148363 64.149707,56.7092026 64.1377285,56.710611 L64.12575,56.7124218 L64.101793,56.7162447 L63.9109018,56.7448152 C63.6527271,56.7933046 63.3856323,56.8655358 63.1106368,56.9578871 C62.5598812,57.1462112 61.9787971,57.409181 61.349799,57.698508 C61.0337708,57.8433727 60.7065287,57.9932675 60.3522713,58.1419551 L60.0645327,58.2558348 L59.8096713,58.3506005 L59.2604448,58.5399307 C57.8306721,59.0224107 56.2907992,59.4067046 54.6754873,59.6121309 C53.8673216,59.7089086 53.0420802,59.7588064 52.2135256,59.7485452 C51.797082,59.7449235 51.3898134,59.7211818 50.9677629,59.6821488 C50.7557181,59.6584071 50.5263428,59.6356714 50.3306092,59.6087105 L49.7472313,59.5177676 C48.8671947,59.3578128 48.1755008,59.116774 47.522036,58.932675 C46.8795303,58.7455581 46.2798413,58.6141738 45.8116608,58.5938525 C45.7693538,58.5940537 45.7308697,58.5908345 45.6847398,58.5872129 L45.4222325,58.6081378 L45.4059213,58.609345 C45.351381,58.6161858 45.4612263,58.6016994 45.446954,58.6039126 L45.4275846,58.6079366 L45.3885908,58.615381 L45.3100934,58.6290627 C45.2583566,58.6407324 45.2020322,58.6377144 45.1523342,58.6584381 C45.0514091,58.6950566 44.9428381,58.7093419 44.8429324,58.761453 L44.687212,58.8248313 C44.63573,58.8493778 44.5867966,58.8807652 44.5355695,58.9077261 C44.1267717,59.1318641 43.7572226,59.4759178 43.4320194,59.8499505 C42.7836518,60.6112951 42.3228623,61.4778679 41.9079479,62.2975608 C41.5057765,63.0921036 41.2116664,63.8582771 41.0019154,64.5492014 C40.7891061,65.2405281 40.645874,65.858014 40.5503009,66.3708754 C40.4605897,66.883938 40.3915222,67.2919736 40.3586451,67.570637 C40.3224548,67.8507088 40.3033402,68 40.3033402,68" id="Fill-154" fill="#FFD4DB"></path>
                    <mask id="mask-4" fill="white">
                        <use xlink:href="#path-3"></use>
                    </mask>
                    <g id="Clip-156"></g>
                    <path d="M32.2471626,76 C32.2471626,76 32.2819175,76.0428043 32.3381386,76.1237067 C32.3928265,76.2041609 32.4730694,76.3220409 32.5755452,76.471968 C32.6902875,76.6127068 32.7896967,76.7700295 32.9460938,76.950211 C33.0848578,77.1315131 33.2586323,77.3217794 33.4359845,77.5216823 C33.5348826,77.6175998 33.6276475,77.7188959 33.7265456,77.8199679 C33.8348991,77.9163336 33.9376305,78.0176297 34.0447063,78.1182535 C34.1650707,78.2108094 34.2706131,78.3138983 34.3899553,78.4091435 C34.5187529,78.496545 34.6304285,78.5989616 34.7605038,78.6856908 C34.8928791,78.7695066 35.010688,78.8690098 35.1509853,78.9440855 C35.2169174,78.985321 35.283105,79.0267807 35.3498038,79.0684645 L35.5575665,79.1800695 C35.8299836,79.3364957 36.1236113,79.4514623 36.4118725,79.5686699 C36.7085669,79.6645875 37.0042391,79.7618496 37.3111555,79.8142905 L37.5398734,79.8604564 L37.5470288,79.8620252 L37.5506065,79.8629216 C37.5600619,79.863818 37.4810967,79.8591118 37.5168738,79.8613529 L37.5357846,79.8635939 L37.5741172,79.868076 L37.6502713,79.8770403 L37.8018129,79.8947447 C37.872856,79.9028125 37.9436435,79.9106563 38.01392,79.9185 C38.0775521,79.9279124 38.165206,79.929033 38.2398268,79.9355321 C38.8597928,79.9716132 39.4787367,79.9211893 40.0314929,79.8122736 C40.5873157,79.7105293 41.0731176,79.5527584 41.4267997,79.4299481 C41.513687,79.3979009 41.5936744,79.3689911 41.6667619,79.3456841 C41.7367828,79.3185672 41.7963261,79.2954843 41.8446252,79.2768834 C41.9458232,79.2399059 42,79.2204086 42,79.2204086 C42,79.2204086 41.987478,79.2706084 41.9547675,79.3620439 C41.9218015,79.4532551 41.874269,79.5904082 41.785593,79.7522131 C41.6997279,79.9160348 41.5765525,80.1076458 41.4068668,80.3156165 C41.2353923,80.5206738 41.0174075,80.7429873 40.7393683,80.9531991 C40.4626069,81.1645314 40.1296243,81.3695888 39.7409317,81.5367721 C39.3530057,81.7030591 38.9134585,81.8413327 38.4386453,81.9188735 C38.316492,81.9350092 38.2066052,81.9589885 38.0701411,81.9672805 C37.9426213,81.9766929 37.787502,81.9890188 37.6778708,81.9926045 L37.5247959,81.9966384 L37.4481307,81.9984313 L37.4095425,81.9995518 L37.3903762,82 L37.3290441,81.9968625 C37.2020354,81.9876741 37.0740044,81.9787099 36.945718,81.9695215 C36.4302722,81.9314234 35.9196819,81.8027864 35.43158,81.6378441 C34.9552335,81.4509394 34.497031,81.226833 34.1080829,80.9449072 C34.0109736,80.8745378 33.9107977,80.8077541 33.819055,80.7344713 C33.7314011,80.658051 33.6440028,80.582079 33.5571155,80.506331 C33.3807855,80.3577485 33.2384438,80.1876517 33.0922688,80.0276398 C32.9489048,79.8653868 32.8326292,79.691032 32.7160981,79.5254174 C32.6110668,79.3528555 32.5116576,79.1841034 32.425537,79.0171441 C32.3521939,78.8432376 32.2768064,78.6787435 32.2175187,78.5160423 C32.1694751,78.3481866 32.120665,78.1899675 32.0838657,78.0364546 C32.0258556,77.723378 31.992123,77.4405558 32.0015783,77.1864192 C31.9951896,76.9394539 32.0406776,76.7052628 32.0695548,76.5327009 C32.1055875,76.3603631 32.1664085,76.2306055 32.1929858,76.1393942 C32.2251852,76.0488552 32.2471626,76 32.2471626,76" id="Fill-155" fill="#FFD4DB" mask="url(#mask-4)"></path>
                    <path d="M251,1.42108547e-14 C251,1.42108547e-14 37.3795069,1.42108547e-14 0,1.42108547e-14 L0,69.6303717 C1.39806379,70.082179 2.87669821,70.1555423 4.03957605,69.6497507 C5.03679461,69.216215 5.71198161,68.1412347 6.01368227,67.0070101 C7.89140493,59.9513968 5.48809061,62.4061611 7.41049106,55.2054821 C9.09394058,48.8998357 14.2953905,47.1117086 19.4890594,45.6386285 C26.4151226,43.6741526 31.1946434,46.3423627 36.5973943,51.6176006 C40.1420006,55.0786882 42.4037515,52.829618 46.0743592,51.0207277 C51.3972926,48.397643 58.6165225,45.1679959 64.5175063,45.4379176 C72.4794419,45.8022426 76.1924684,53.8409244 82.9541273,57.0716789 C88.5260516,59.7337984 91.9702582,55.7168106 96.9320042,53.8788519 C102.653524,51.7593441 108.85169,51.8590074 114.10836,55.4208658 C115.679111,56.4850492 117.106542,57.8019899 118.7295,58.7656794 C122.73996,61.1470804 127.517473,61.1587078 132.071848,61.1124751 C136.03261,61.0723329 140.409529,60.8547345 143.266147,57.8285668 C144.420742,56.6054757 145.208377,55.0266417 146.253536,53.6809093 C149.686699,49.2655449 160.320517,46.2194445 162.516256,53.4588815 C165.805345,64.30198 172.310232,62.8336062 174.64402,63.1821512 C178.109059,63.6995702 184.178714,59.0314484 190.146966,57.3645784 C194.978192,56.0155239 200.714019,54.9471879 204.963179,58.6231054 C207.20736,60.5648802 208.630022,63.5888332 211.122943,65.1181123 C214.270469,67.0488134 218.221191,66.0618691 221.529105,64.4905099 C224.83702,62.9191506 228.04604,60.7794333 231.637082,60.4693695 C239.051087,59.8298628 244.691784,56.3020561 246.186483,63.5511825 C246.466347,64.9085424 246.863678,66.2805748 247.654575,67.3937594 C247.926156,67.7758023 250.994115,69.9794703 250.998884,69.7743299 C251.001394,66.3124118 251,1.42108547e-14 251,1.42108547e-14" id="Fill-157" fill="#FBD0DA" mask="url(#mask-4)"></path>
                </g>
            </g>
        </g>
    </g>
</svg>