<?xml version="1.0" encoding="UTF-8"?>
<svg width="10px" height="13px" viewBox="0 0 10 13" version="1.1" xmlns="http://www.w3.org/2000/svg" xmlns:xlink="http://www.w3.org/1999/xlink">
    <!-- Generator: Sketch 54.1 (76490) - https://sketchapp.com -->
    <title>Fill 181</title>
    <desc>Created with Sketch.</desc>
    <g id="Page-1" stroke="none" stroke-width="1" fill="none" fill-rule="evenodd">
        <g id="homepage-slide-1" transform="translate(-192.000000, -404.000000)" fill="#272624">
            <g id="Group-26" transform="translate(150.000000, 361.000000)">
                <g id="Group-11" transform="translate(0.000000, 41.000000)">
                    <path d="M51.1652848,3.02484437 L49.8581856,2.22529561 C49.1363756,1.78343972 48.1933319,2.01138125 47.7522646,2.73518329 L46.954143,4.04532108 C46.5130758,4.76842176 46.7406105,5.71245039 47.4624205,6.15430628 C48.1856307,6.59616218 48.4131654,7.54089216 47.9720981,8.2646942 L47.2348858,9.47383637 C46.7938186,10.196937 45.851475,10.4255799 45.1289649,9.98372404 C44.4071549,9.54186815 43.4641112,9.77051104 43.0230439,10.4943131 L42.2249223,11.8037495 C41.7838551,12.5268502 42.0113898,13.4715802 42.7331998,13.9134361 L44.0416992,14.7129848 L44.1418144,14.7747044 C44.8636244,15.2165603 45.8066681,14.9886188 46.2477354,14.2648167 L51.7750777,5.19625049 C52.2161449,4.47244845 51.9886102,3.52771846 51.2668002,3.08586257 L51.1652848,3.02484437" id="Fill-181"></path>
                </g>
            </g>
        </g>
    </g>
</svg>