<?xml version="1.0" encoding="UTF-8"?>
<svg width="251px" height="165px" viewBox="0 0 251 165" version="1.1" xmlns="http://www.w3.org/2000/svg" xmlns:xlink="http://www.w3.org/1999/xlink">
    <!-- Generator: Sketch 54.1 (76490) - https://sketchapp.com -->
    <title>Group 27</title>
    <desc>Created with Sketch.</desc>
    <g id="Page-1" stroke="none" stroke-width="1" fill="none" fill-rule="evenodd">
        <g id="homepage-slide-1" transform="translate(-622.000000, -337.000000)">
            <g id="Group-27" transform="translate(622.000000, 337.000000)">
                <rect id="Rectangle" fill="#FFA8BD" x="0" y="0" width="251" height="165"></rect>
                <g id="Group-9" transform="translate(10.000000, 10.000000)">
                    <path d="M109.321529,5.37516407 C110.84678,5.00418219 111.751388,5.13495997 113.05404,5.9148226 C112.624902,4.59654694 112.776048,3.81526088 113.678802,2.68932643 C112.153139,3.06048624 111.248531,2.92953052 109.945879,2.1496679 C110.375429,3.46812148 110.223872,4.2497634 109.321529,5.37516407 Z M113.949999,6.99983339 C113.820681,7.07936763 113.645855,7.07474148 113.522509,6.98826801 C111.536613,5.5959739 110.876021,5.50024812 108.473961,6.25840342 C108.32508,6.30555459 108.157667,6.26071649 108.065621,6.14915504 C107.973574,6.03741565 107.978722,5.88617604 108.0788,5.77977452 C109.690538,4.0641835 109.800911,3.4933874 108.923691,1.41784609 C108.869122,1.28902552 108.920808,1.14454721 109.050126,1.06483504 C109.179444,0.985122861 109.354476,0.989749014 109.477616,1.07622249 C111.463512,2.46851659 112.123898,2.56406444 114.525959,1.80608708 C114.675045,1.7589359 114.842252,1.803774 114.934298,1.91533546 C115.026551,2.02689692 115.021197,2.17813653 114.92112,2.28471598 C113.309793,4.00048493 113.199214,4.5711031 114.076434,6.64682233 C114.131003,6.7756429 114.079111,6.92012122 113.949999,6.99983339 L113.949999,6.99983339 Z" id="Fill-4" fill-opacity="0.9" fill="#000000"></path>
                    <path d="M2.07668799,122.197854 C4.4735121,121.579551 5.8950388,121.797514 7.94206313,123.097285 C7.26770355,120.900159 7.50521791,119.598015 8.92383231,117.721458 C6.52636104,118.340058 5.10483433,118.121798 3.05781,116.822027 C3.73281676,119.01945 3.49465522,120.322186 2.07668799,122.197854 Z M9.34999909,124.905636 C9.14678517,125.038193 8.87205807,125.030483 8.67822822,124.886361 C5.55753542,122.56587 4.51946174,122.406328 0.744795461,123.66992 C0.510840577,123.748505 0.247762678,123.673775 0.103118372,123.487839 C-0.0415259333,123.301607 -0.0334362071,123.049541 0.123828072,122.872205 C2.65655957,120.012886 2.83000331,119.06156 1.45151395,115.602324 C1.36576285,115.387623 1.4469837,115.146826 1.65019763,115.013972 C1.85341155,114.881119 2.12846224,114.888829 2.3219685,115.032951 C5.4426613,117.353442 6.48041139,117.512688 10.2550777,116.249392 C10.4893561,116.170807 10.7521105,116.245537 10.8967548,116.431473 C11.0417227,116.617409 11.0333093,116.869475 10.8760451,117.047107 C8.34396073,119.906722 8.17019341,120.857752 9.54868277,124.317285 C9.63443387,124.531985 9.55288943,124.772783 9.34999909,124.905636 L9.34999909,124.905636 Z" id="Fill-4-Copy" fill="#0073B1"></path>
                    <path d="M229.919406,16.1290323 L229.860312,16.1265248 C229.483841,16.0970617 229.204568,15.7936553 229.236739,15.4486662 L229.584233,11.7250411 L225.631286,10.7972692 C225.307293,10.7212086 225.090765,10.4418322 225.119286,10.1365451 L225.467008,6.41354691 L221.514746,5.48619292 C221.190525,5.41013234 220.973997,5.13075598 221.002517,4.82546887 L221.399751,0.573598863 C221.432151,0.228818762 221.760707,-0.0271543441 222.140145,0.00230868275 C222.516616,0.0319806672 222.795889,0.335596114 222.763718,0.680585173 L222.415995,4.40337444 L226.368257,5.33072843 C226.692479,5.40678901 226.909007,5.68616538 226.880486,5.99145248 L226.532764,9.71445071 L230.485482,10.6422226 C230.809475,10.7184922 231.026003,10.9978685 230.997483,11.3029467 L230.600705,15.5554435 C230.570131,15.8822533 230.271236,16.1290323 229.919406,16.1290323" id="Fill-47" fill="#000000"></path>
                    <path d="M222.411646,121.21573 L222.364371,121.213709 C222.063194,121.189961 221.839775,120.945416 221.865512,120.667355 L222.143508,117.666113 L218.981151,116.918329 C218.721956,116.857024 218.548734,116.631846 218.57155,116.385785 L218.849728,113.385049 L215.687918,112.637601 C215.428541,112.576296 215.255319,112.351119 215.278135,112.105058 L215.595923,108.67805 C215.621842,108.400158 215.884687,108.193843 216.188237,108.21759 C216.489414,108.241506 216.712832,108.48622 216.687095,108.764281 L216.408918,111.764849 L219.570727,112.512297 C219.830104,112.573602 220.003327,112.798779 219.98051,113.04484 L219.702332,116.045577 L222.864507,116.793361 C223.123702,116.854834 223.296924,117.080012 223.274108,117.325905 L222.956685,120.753417 C222.932226,121.016826 222.69311,121.21573 222.411646,121.21573" id="Fill-47" fill="#5A5A5A" transform="translate(219.276121, 114.715730) rotate(76.000000) translate(-219.276121, -114.715730) "></path>
                    <path d="M21.080569,16.1290323 C20.7287477,16.1290323 20.4298593,15.8822547 20.399286,15.5554468 L20.0025173,11.3029739 C19.9739974,10.9978975 20.1905204,10.7185227 20.5145063,10.6422536 L24.4673626,9.71448694 L24.11942,5.99150975 C24.0909001,5.68622436 24.3074231,5.40684958 24.6316372,5.33078943 L28.5840371,4.40344067 L28.2360945,0.680672437 C28.2039241,0.335685326 28.4831908,0.0320715941 28.8596533,0.00239977721 C29.2336061,-0.0276899526 29.5678592,0.22869962 29.6002577,0.573686731 L29.9974827,4.82553272 C30.0260026,5.1308181 29.8094796,5.41019288 29.4852656,5.48625303 L25.5328656,6.41360179 L25.88058,10.136579 C25.9090999,10.4418644 25.692577,10.7212392 25.368591,10.7972993 L21.4157347,11.7252749 L21.763221,15.44867 C21.7956196,15.7936571 21.5161247,16.0970619 21.1396622,16.1265248 L21.080569,16.1290323" id="Fill-48" fill="#087889"></path>
                </g>
            </g>
        </g>
    </g>
</svg>