<?xml version="1.0" encoding="UTF-8"?>
<svg width="251px" height="165px" viewBox="0 0 251 165" version="1.1" xmlns="http://www.w3.org/2000/svg" xmlns:xlink="http://www.w3.org/1999/xlink">
    <!-- Generator: Sketch 54.1 (76490) - https://sketchapp.com -->
    <title>Group 27</title>
    <desc>Created with Sketch.</desc>
    <g id="Page-1" stroke="none" stroke-width="1" fill="none" fill-rule="evenodd">
        <g id="homepage-slide-1" transform="translate(-622.000000, -337.000000)">
            <g id="Group-27" transform="translate(622.000000, 337.000000)">
                <rect id="Rectangle" fill="#E1E9EE" x="0" y="0" width="251" height="165"></rect>
                <path d="M230.446541,25.7913685 C231.431866,24.8270079 232.616851,24.3448276 233.999501,24.3448276 C235.383149,24.3448276 236.557153,24.8270079 237.521513,25.7913685 C238.507837,26.7766934 239,27.9606806 239,29.3443284 C239,30.7279762 238.507837,31.9019804 237.521513,32.866341 C236.557153,33.851666 235.383149,34.3448276 233.999501,34.3448276 C232.616851,34.3448276 231.431866,33.851666 230.446541,32.866341 C229.48218,31.9019804 229,30.7279762 229,29.3443284 C229,27.9606806 229.48218,26.7766934 230.446541,25.7913685" id="Fill-5" fill-opacity="0.4" fill="#7777AB" opacity="0.3"></path>
                <path d="M224.446541,118.791368 C225.431866,117.827008 226.616851,117.344828 227.999501,117.344828 C229.383149,117.344828 230.557153,117.827008 231.521513,118.791368 C232.507837,119.776693 233,120.960681 233,122.344328 C233,123.727976 232.507837,124.90198 231.521513,125.866341 C230.557153,126.851666 229.383149,127.344828 227.999501,127.344828 C226.616851,127.344828 225.431866,126.851666 224.446541,125.866341 C223.48218,124.90198 223,123.727976 223,122.344328 C223,120.960681 223.48218,119.776693 224.446541,118.791368" id="Fill-5-Copy" fill-opacity="0.4" fill="#7777AB" opacity="0.3"></path>
                <path d="M23.4465409,120.791368 C24.4318658,119.827008 25.6168514,119.344828 26.9995008,119.344828 C28.3831486,119.344828 29.5571528,119.827008 30.5215134,120.791368 C31.5078367,121.776693 32,122.960681 32,124.344328 C32,125.727976 31.5078367,126.90198 30.5215134,127.866341 C29.5571528,128.851666 28.3831486,129.344828 26.9995008,129.344828 C25.6168514,129.344828 24.4318658,128.851666 23.4465409,127.866341 C22.4821803,126.90198 22,125.727976 22,124.344328 C22,122.960681 22.4821803,121.776693 23.4465409,120.791368" id="Fill-5" fill-opacity="0.4" fill="#7777AB" opacity="0.3"></path>
                <path d="M224.446541,12.4465409 C225.432864,11.4821803 226.615853,11 228.000499,11 C229.384147,11 230.557153,11.4821803 231.521513,12.4465409 C232.507837,13.4318658 233,14.615853 233,16.0004992 C233,17.3831486 232.507837,18.5581511 231.521513,19.5215134 C230.557153,20.5078367 229.384147,21 228.000499,21 C226.615853,21 225.432864,20.5078367 224.446541,19.5215134 C223.48218,18.5581511 223,17.3831486 223,16.0004992 C223,14.615853 223.48218,13.4318658 224.446541,12.4465409" id="Fill-6" fill-opacity="0.4" fill="#EEA13D" opacity="0.3"></path>
                <path d="M16.4465409,42.7913685 C17.4328641,41.8270079 18.615853,41.3448276 20.0004992,41.3448276 C21.384147,41.3448276 22.5571528,41.8270079 23.5215134,42.7913685 C24.5078367,43.7766934 25,44.9606806 25,46.3453267 C25,47.7279762 24.5078367,48.9029787 23.5215134,49.866341 C22.5571528,50.8526643 21.384147,51.3448276 20.0004992,51.3448276 C18.615853,51.3448276 17.4328641,50.8526643 16.4465409,49.866341 C15.4821803,48.9029787 15,47.7279762 15,46.3453267 C15,44.9606806 15.4821803,43.7766934 16.4465409,42.7913685" id="Fill-6" fill-opacity="0.4" fill="#EEA13D" opacity="0.3"></path>
                <path d="M234.446541,105.791368 C235.432864,104.827008 236.615853,104.344828 238.000499,104.344828 C239.384147,104.344828 240.557153,104.827008 241.521513,105.791368 C242.507837,106.776693 243,107.960681 243,109.345327 C243,110.727976 242.507837,111.902979 241.521513,112.866341 C240.557153,113.852664 239.384147,114.344828 238.000499,114.344828 C236.615853,114.344828 235.432864,113.852664 234.446541,112.866341 C233.48218,111.902979 233,110.727976 233,109.345327 C233,107.960681 233.48218,106.776693 234.446541,105.791368" id="Fill-6-Copy" fill-opacity="0.4" fill="#EEA13D" opacity="0.3"></path>
                <path d="M12.4465409,108.791368 C13.4328641,107.827008 14.615853,107.344828 16.0004992,107.344828 C17.384147,107.344828 18.5571528,107.827008 19.5215134,108.791368 C20.5078367,109.776693 21,110.960681 21,112.345327 C21,113.727976 20.5078367,114.902979 19.5215134,115.866341 C18.5571528,116.852664 17.384147,117.344828 16.0004992,117.344828 C14.615853,117.344828 13.4328641,116.852664 12.4465409,115.866341 C11.4821803,114.902979 11,113.727976 11,112.345327 C11,110.960681 11.4821803,109.776693 12.4465409,108.791368" id="Fill-6-Copy-2" fill-opacity="0.4" fill="#EEA13D" opacity="0.3"></path>
                <path d="M31.4626177,17.1517839 C33.0096217,18.0328787 33.3894339,19.3384662 32.6005933,21.0680024 L28.6992411,29.626431 C27.9108875,31.355423 26.7427217,31.7799158 25.1952308,30.8988211 L17.5376341,26.5379735 C15.9901432,25.6568788 15.610818,24.3512912 16.3991716,22.6222993 L20.3010107,14.0638707 C21.0893644,12.3337903 22.2570432,11.9098416 23.805021,12.7909364 L31.4626177,17.1517839" id="Fill-8" fill-opacity="0.4" fill="#7777AB" opacity="0.3"></path>
                <path d="M20,30.3448276 L23,23.3448276 C23.138426,22.9512956 23.0031492,22.4608014 22,22.3448276 L16,18.3448276 C15.8978962,18.1812121 15.4824032,18.3410849 15,19.3448276 L12,26.3448276 C11.8616782,26.7387593 11.9964949,27.2292536 13,27.3448276 L19,31.3448276 C19.1026681,31.5082991 19.517701,31.34897 20,30.3448276 Z M26,24.3448276 L22,31.3448276 C21.40303,33.3586804 19.9560981,33.8873563 18,32.3448276 L12,29.3448276 C9.98782294,28.1734279 9.51788728,26.5451064 10,24.3448276 L14,17.3448276 C14.5974218,15.3313634 16.0443537,14.8021589 18,16.3448276 L24,19.3448276 C26.012159,20.5166159 26.4820947,22.1444088 26,24.3448276 L26,24.3448276 Z" id="Fill-9" fill-opacity="0.4" fill="#C4C0D5" opacity="0.689313616"></path>
            </g>
        </g>
    </g>
</svg>