<svg xmlns="http://www.w3.org/2000/svg" width="251" height="145" viewBox="0 0 251 145">
    <g fill="none" fill-rule="evenodd">
        <path fill="#FF0434" d="M0 0h251v145H0z"/>
        <path fill="#000" fill-opacity=".9" d="M119.322 15.375c1.525-.37 2.43-.24 3.732.54-.43-1.318-.278-2.1.625-3.226-1.526.371-2.43.24-3.733-.54.43 1.32.278 2.1-.624 3.226zM123.95 17a.398.398 0 0 1-.427-.012c-1.986-1.392-2.647-1.488-5.049-.73a.386.386 0 0 1-.408-.109.273.273 0 0 1 .013-.37c1.612-1.715 1.722-2.286.845-4.361-.055-.129-.003-.273.126-.353a.398.398 0 0 1 .428.011c1.986 1.393 2.646 1.488 5.048.73a.386.386 0 0 1 .408.11.273.273 0 0 1-.013.369c-1.611 1.715-1.722 2.286-.845 4.362.055.129.003.273-.126.353z"/>
        <path fill="#0073B1" d="M12.077 132.198c2.397-.618 3.818-.4 5.865.9-.674-2.198-.437-3.5.982-5.377-2.398.62-3.82.4-5.866-.899.675 2.197.437 3.5-.981 5.376zm7.273 2.708a.596.596 0 0 1-.672-.02c-3.12-2.32-4.159-2.48-7.933-1.216a.584.584 0 0 1-.642-.182.475.475 0 0 1 .02-.616c2.534-2.86 2.707-3.81 1.329-7.27a.485.485 0 0 1 .198-.588.595.595 0 0 1 .672.019c3.12 2.32 4.158 2.48 7.933 1.216a.584.584 0 0 1 .642.182.475.475 0 0 1-.021.616c-2.532 2.86-2.706 3.81-1.327 7.27a.485.485 0 0 1-.199.589z"/>
        <path fill="#000" d="M239.92 26.129l-.06-.002c-.376-.03-.655-.333-.623-.678l.347-3.724-3.953-.928c-.324-.076-.54-.355-.512-.66l.348-3.723-3.952-.928c-.324-.076-.541-.355-.512-.66l.397-4.252c.032-.345.36-.601.74-.572.377.03.656.334.624.679l-.348 3.722 3.952.928c.324.076.541.355.512.66l-.347 3.723 3.952.928c.324.076.541.356.512.66l-.396 4.253c-.03.327-.33.574-.682.574"/>
        <path fill="#5A5A5A" d="M223.728 129.33l-.01-.046c-.05-.298.134-.574.41-.616l2.98-.456-.04-3.25c-.004-.266.173-.489.417-.526l2.98-.456-.04-3.249c-.004-.266.173-.489.417-.526l3.402-.52c.276-.043.54.162.59.463.05.298-.134.574-.41.616l-2.978.456.04 3.249c.003.266-.174.489-.418.526l-2.98.456.04 3.25c.003.266-.173.488-.417.525l-3.403.522c-.261.04-.512-.144-.58-.417"/>
        <path fill="#087889" d="M31.08 26.129c-.351 0-.65-.247-.68-.574l-.397-4.252c-.029-.305.188-.584.512-.66l3.952-.929-.348-3.722c-.028-.306.188-.585.513-.661l3.952-.928-.348-3.722c-.032-.345.247-.649.624-.679.374-.03.708.227.74.572l.397 4.252c.029.305-.188.584-.512.66l-3.952.928.348 3.723c.028.305-.188.584-.512.66l-3.953.928.347 3.724c.033.345-.247.648-.623.678l-.06.002"/>
    </g>
</svg>
