<svg xmlns="http://www.w3.org/2000/svg" width="16" height="16" viewBox="0 0 16 16">
    <g fill="none" fill-rule="evenodd">
        <path fill="#484848" d="M1.17 1.992c.672.672.749.276 1.557 1.63.063.107.124.203.184.29l-.707.706a.198.198 0 0 0 0 .28l8.899 8.898a.198.198 0 0 0 .28 0l.706-.707c.087.06.182.121.289.184 1.354.808.958.885 1.63 1.557a.581.581 0 0 0 .822-.822c-.672-.672-.749-.276-1.557-1.63a5.734 5.734 0 0 0-.184-.29l.707-.705a.198.198 0 0 0 0-.28L4.898 2.203a.198.198 0 0 0-.28 0l-.707.707a5.943 5.943 0 0 0-.289-.184c-1.354-.808-.958-.885-1.63-1.557a.582.582 0 0 0-.822.822"/>
        <path stroke="#FFF" stroke-linecap="round" stroke-linejoin="round" stroke-width=".8" d="M1.17 1.992c.672.672.749.276 1.557 1.63.063.107.124.203.184.29l-.707.706a.198.198 0 0 0 0 .28l8.899 8.898a.198.198 0 0 0 .28 0l.706-.707c.087.06.182.121.289.184 1.354.808.958.885 1.63 1.557a.581.581 0 0 0 .822-.822c-.672-.672-.749-.276-1.557-1.63a5.734 5.734 0 0 0-.184-.29l.707-.705a.198.198 0 0 0 0-.28L4.898 2.203a.198.198 0 0 0-.28 0l-.707.707a5.943 5.943 0 0 0-.289-.184c-1.354-.808-.958-.885-1.63-1.557a.582.582 0 0 0-.822.822z"/>
        <path fill="#533019" d="M1.17 1.992c.672.672.749.276 1.557 1.63.063.107.124.203.184.29l-.707.706a.198.198 0 0 0 0 .28l8.899 8.898a.198.198 0 0 0 .28 0l.706-.707c.087.06.182.121.289.184 1.354.808.958.885 1.63 1.557a.581.581 0 0 0 .822-.822c-.672-.672-.749-.276-1.557-1.63a5.734 5.734 0 0 0-.184-.29l.707-.705a.198.198 0 0 0 0-.28L4.898 2.203a.198.198 0 0 0-.28 0l-.707.707a5.943 5.943 0 0 0-.289-.184c-1.354-.808-.958-.885-1.63-1.557a.582.582 0 0 0-.822.822"/>
        <path stroke="#533019" stroke-linecap="round" stroke-linejoin="round" stroke-width=".8" d="M3.545 2.273L2.273 3.545m11.454 8.91l-1.272 1.272"/>
        <path fill="#FFF" d="M13.133 5.215c-1.242.454-2.665 1.325-3.86 2.149 1.104-.877 2.382-1.825 3.418-2.407.254-.142.495-.323.716-.538.408-.397.698-.863.818-1.314a1.87 1.87 0 0 0 .04-.196 1.799 1.799 0 0 1-.454 1.883 1.879 1.879 0 0 1-.678.423zm-.042-3.482c-.063.01-.128.023-.194.041-.45.12-.917.41-1.314.818a3.422 3.422 0 0 0-.539.717c-.583 1.035-1.53 2.314-2.408 3.418.825-1.195 1.695-2.618 2.15-3.86.092-.257.234-.485.424-.68a1.804 1.804 0 0 1 1.88-.454zm.59 1.214c-.1.393-.348.804-.698 1.158-.191.194-.4.357-.618.484-1.14.668-2.58 1.808-3.729 2.775l5.027-5.091c.079.175.086.407.018.674zm.046-1.246l-5.09 5.026C9.602 5.58 10.743 4.14 11.41 3c.128-.22.29-.427.484-.619.354-.35.765-.597 1.158-.697.267-.068.499-.061.674.018zM1.162 14.253l.584.585a.55.55 0 0 0 .783 0l5.325-5.325a.55.55 0 0 0 .086-.671c1.215-.971 3.679-2.827 5.617-3.555.3-.111.567-.283.795-.51.418-.419.648-.974.648-1.565s-.23-1.147-.648-1.565a2.216 2.216 0 0 0-3.64.796C9.984 4.38 8.13 6.844 7.158 8.059a.55.55 0 0 0-.671.086l-5.325 5.326a.555.555 0 0 0 0 .782z"/>
        <path stroke="#FFF" stroke-linecap="round" stroke-linejoin="round" stroke-width=".8" d="M13.133 5.215c-1.242.454-2.665 1.325-3.86 2.149 1.104-.877 2.382-1.825 3.418-2.407.254-.142.495-.323.716-.538.408-.397.698-.863.818-1.314a1.87 1.87 0 0 0 .04-.196 1.799 1.799 0 0 1-.454 1.883 1.879 1.879 0 0 1-.678.423zm-.042-3.482c-.063.01-.128.023-.194.041-.45.12-.917.41-1.314.818a3.422 3.422 0 0 0-.539.717c-.583 1.035-1.53 2.314-2.408 3.418.825-1.195 1.695-2.618 2.15-3.86.092-.257.234-.485.424-.68a1.804 1.804 0 0 1 1.88-.454zm.59 1.214c-.1.393-.348.804-.698 1.158-.191.194-.4.357-.618.484-1.14.668-2.58 1.808-3.729 2.775l5.027-5.091c.079.175.086.407.018.674zm.046-1.246l-5.09 5.026C9.602 5.58 10.743 4.14 11.41 3c.128-.22.29-.427.484-.619.354-.35.765-.597 1.158-.697.267-.068.499-.061.674.018zM1.162 14.253l.584.585a.55.55 0 0 0 .783 0l5.325-5.325a.55.55 0 0 0 .086-.671c1.215-.971 3.679-2.827 5.617-3.555.3-.111.567-.283.795-.51.418-.419.648-.974.648-1.565s-.23-1.147-.648-1.565a2.216 2.216 0 0 0-3.64.796C9.984 4.38 8.13 6.844 7.158 8.059a.55.55 0 0 0-.671.086l-5.325 5.326a.555.555 0 0 0 0 .782z"/>
        <path stroke="#533019" stroke-linecap="round" stroke-linejoin="round" stroke-width=".8" d="M6.727 8.85s3.215-3.737 4.251-6.496a2.075 2.075 0 1 1 2.668 2.668c-2.76 1.036-6.495 4.25-6.495 4.25m6.974-7.636c.482.482.21 1.534-.608 2.35-.22.22-.459.402-.698.538-2.428 1.402-6.092 4.749-6.092 4.749m7.637-7.398c-.482-.482-1.534-.21-2.35.608-.22.22-.401.459-.538.698-1.402 2.428-4.749 6.092-4.749 6.092m0 0l7.637-7.637"/>
        <path fill="#533019" d="M6.892 8.093a.317.317 0 0 1 .449 0l.566.566a.317.317 0 0 1 0 .45L2.744 14.27a.317.317 0 0 1-.448 0l-.567-.567a.317.317 0 0 1 0-.448l5.163-5.163"/>
        <path d="M6.892 8.093a.317.317 0 0 1 .449 0l.566.566a.317.317 0 0 1 0 .45L2.744 14.27a.317.317 0 0 1-.448 0l-.567-.567a.317.317 0 0 1 0-.448l5.163-5.163z"/>
    </g>
</svg>
