<svg xmlns="http://www.w3.org/2000/svg" width="156" height="24" viewBox="0 0 156 24">
    <g fill="none" fill-rule="evenodd">
        <path fill="#533019" fill-rule="nonzero" d="M43.62 4.08c0 .4-.1 1.14-.82 1.38-.18.06-.38.1-.58.1-1.04 0-2.36-.7-3.38-1.06-.58-.2-1.3-.34-2-.34-1.02 0-2 .3-2.48 1.2-.22.42-.32.82-.32 1.16 0 .84.52 1.42.9 1.64.42.24.9.34 1.36.34.3 0 .58-.04.86-.12.3-.08.44-.06.48 0 .08.12-.08.36-.22.52-.2.18-1.2 1.02-2.44 1.02-.38 0-.76-.08-1.16-.26-.88-.42-1.36-1.3-1.36-2.32 0-.26.02-.54.1-.82.44-1.78 2.4-3.04 4.42-3 2 .06 4.26.78 5.02.68.78-.08 1.1-.3 1.22-.42.1-.14.4-.08.4.3zM41.8 5.92c.1.06.14.22-.02.52-.32.64-.68 1.54-.76 2.84-.02.2-.02.38-.02.58 0 .84.08 1.76.08 2.72 0 1.06-.1 2.18-.54 3.32-.64 1.68-2.46 3.5-5.16 3.5-.22 0-.44-.02-.66-.04-3.04-.32-3.68-2.3-3.46-3.3.2-.88.7-1.2.94-1.3.22-.1 1.12-.06 1.5.18.38.26.34.58.04.82-.3.26-.72.8-.72 1.36 0 .58.28 1.34 1.46 1.62.24.06.5.08.76.08 1.02 0 2.1-.44 2.7-1.66 1.1-2.26.58-5.7 2-9 .56-1.32 1.16-1.94 1.4-2.16.14-.1.34-.16.46-.08zm9.277 11c-.2.58-.7 1.22-1.18 1.6-.44.36-1.12.78-1.88.6-.74-.18-1.18-1.02-1.08-1.84.12-1.04.62-2.86.78-3.36.1-.36.16-.8-.3-.8-.46 0-1.38 1.32-2.1 2.44-.7 1.12-1.42 2.86-1.52 3.08-.08.22-.24.26-.66.28-.4.04-.82.1-.82-.28 0-.4.4-4.08 1.12-7.42.72-3.26 1.88-6.7 3.98-6.34.82.14 1.12.72 1.12 1.5 0 1-.52 2.32-1.12 3.42-.88 1.6-2.32 3.66-3.12 4.72-.22 1.3-.28 1.94-.3 2.06-.02.1-.02.18.02.18.02 0 .06-.04.1-.14.28-.58.68-1.18 1.3-2.06.6-.84 1.54-2.26 2.54-1.98 1 .3 1.16 1.28 1.12 1.98-.06.7-.4 2.22-.58 2.74-.2.5-.3 1.1-.04 1.2.36.12 1.08-.28 1.5-.76.4-.48.56-.78.68-1.08.12-.3.64-.3.44.26zm-3.76-11.48c-1.34-.1-1.78 2.66-2.44 5.9-.14.66-.24 1.26-.34 1.82.58-.7 1.5-1.92 2.32-3.4.74-1.38 1.12-2.54 1.12-3.32 0-.6-.22-.96-.66-1zm10.796 11.4c-.22.42-.64 1.22-1.86 1.82-.7.34-1.48.52-2.2.52-.78 0-1.52-.2-2.1-.58-1.12-.72-1.28-1.76-1.18-2.48.22-1.58 1.28-2.5 2.28-3.06.52-.28 1.3-.5 2-.5.64 0 1.22.18 1.52.66.12.2.2.42.2.66 0 .9-.9 1.94-2.38 2.66-.8.4-1.48.6-1.86.68.12.7.5 1.06.9 1.22.32.14.6.2.92.2.5 0 1.04-.18 1.76-.54.92-.46 1.56-1.36 1.68-1.66.08-.14.24-.14.32-.04.08.1.1.26 0 .44zm-3.14-3.62c-.74-.34-1.92.4-2.34 2.26-.12.46-.16.84-.16 1.18.46-.06 1.22-.24 1.82-.74.6-.52 1.02-1.4 1.02-2.04 0-.3-.1-.56-.34-.66zm21.894-9.18c.02.38-.1 1.14-.82 1.4-.18.06-.38.1-.6.1-1.1 0-2.6-.7-3.62-1.04-.58-.18-1.3-.32-1.98-.32-1 0-1.98.3-2.46 1.16-.24.42-.34.82-.34 1.18 0 .84.54 1.42.9 1.64.42.24.9.34 1.36.34.3 0 .58-.04.86-.12.3-.1.44-.06.48.02.04.12-.1.34-.24.5-.2.24-1.22 1-2.44 1-.36 0-.76-.06-1.14-.24-.86-.4-1.34-1.3-1.34-2.32 0-.26.02-.54.1-.82.44-1.8 2.4-3.06 4.38-3 2 .06 4.44.8 5.3.66.76-.12 1.08-.3 1.2-.44.1-.12.38-.08.4.3zm-.7 6.3c.34.2-.04 1.08-.08 1.48-.08.44-.14 1.3-.18 1.58 0 .12-.12.22-.26.28-.18.06-.4.04-.4-.22 0-.22.08-.6.08-.94 0-.3-.06-.6-.3-.74-.22-.14-.58-.22-1-.28.02.36.02.72.02 1.1 0 1.06-.1 2.18-.52 3.3-.66 1.68-2.46 3.5-5.12 3.5-.22 0-.44-.02-.68-.04-2.98-.34-3.62-2.22-3.42-3.3.16-.92.7-1.22.92-1.3.22-.08 1.12-.06 1.5.18.38.26.32.58.02.82-.3.26-.7.8-.7 1.36 0 .58.28 1.34 1.44 1.62.24.06.52.1.78.1 1 0 2.08-.46 2.66-1.68.72-1.5.74-3.5 1.08-5.62-.96.14-1.92.4-2.24.5-.22.06-.42-.04-.42-.22 0-.1.1-.24.34-.36.62-.3 1.74-.52 2.44-.6.16-.9.4-1.8.8-2.7.56-1.32 1.14-1.94 1.38-2.16.14-.12.34-.16.46-.08.1.06.12.22-.02.52-.32.62-.68 1.52-.76 2.84-.02.2-.02.4-.02.62 0 .28 0 .58.02.88.58 0 1.08 0 1.24-.04.46-.12.6-.6.94-.4zm7.596 4.84c.04.06 0 .16-.1.3-.26.34-.68.66-1.08.78-.24.06-.46.1-.66.1-.34 0-.62-.08-.86-.2-.52-.3-.84-.94-.78-1.7.02-.34-.06-.26-.2-.1-.12.16-.6.76-1.08 1.72-.48.98-.92 2.48-.98 2.68-.08.2-.28.26-.74.26-.44.02-.8-.04-.78-.28.02-.24.14-1.76.34-2.94.2-1.32.62-2.82.7-2.94.1-.12.36-.2.74-.18.36.02.62.2.58.42-.06.22-.16 1-.26 1.48-.1.5-.14 1.06-.16 1.22 0 .1.04.12.08.08.04-.04.08-.1.12-.18.12-.22.64-1.12 1.06-1.76.44-.66.78-1.04.9-1.14.16-.1.96-.38 1.26-.16.38.28.08.94-.08 1.36-.16.42-.58 1.28-.3 1.64.16.22.56.28 1 .18.36-.1.74-.38.96-.66.1-.12.26-.06.32.02zm6.557 1.66c-.22.42-.64 1.22-1.86 1.82-.7.34-1.48.52-2.2.52-.78 0-1.52-.2-2.1-.58-1.12-.72-1.28-1.76-1.18-2.48.22-1.58 1.28-2.5 2.28-3.06.52-.28 1.3-.5 2-.5.64 0 1.22.18 1.52.66.12.2.2.42.2.66 0 .9-.9 1.94-2.38 2.66-.8.4-1.48.6-1.86.68.12.7.5 1.06.9 1.22.32.14.6.2.92.2.5 0 1.04-.18 1.76-.54.92-.46 1.56-1.36 1.68-1.66.08-.14.24-.14.32-.04.08.1.1.26 0 .44zm-3.14-3.62c-.74-.34-1.92.4-2.34 2.26-.12.46-.16.84-.16 1.18.46-.06 1.22-.24 1.82-.74.6-.52 1.02-1.4 1.02-2.04 0-.3-.1-.56-.34-.66zm11.517 3.56c-.18.48-.7 1.2-1.08 1.58-.4.38-1.1.94-1.82.76-.84-.18-1.38-1.08-1.2-2.04.18-.98.64-2.7.7-2.96.06-.28.18-.74-.14-.84-.32-.1-1.3.62-2.06 1.94-.74 1.3-1.42 3.2-1.5 3.48-.08.26-.44.32-.76.32-.34 0-.78.06-.76-.32.04-.36.1-1.84.3-3.2.2-1.32.5-2.46.7-2.66.2-.2.48-.14.74-.14.26.02.64.14.56.44-.06.28-.64 2.8-.7 3.08-.04.16.02.26.08.26.06.02.16-.04.22-.16.16-.26.56-1.22 1.2-2.1.6-.86 1.46-1.8 2.38-1.58.86.24 1.1 1.1 1.1 1.6 0 .64-.42 2.52-.52 3.16-.04.26-.2 1.04.06 1.12.34.08.82-.26 1.24-.74.4-.46.68-.88.86-1.26.06-.18.26-.22.36-.14.08.06.12.18.04.4zm6.996-.4c.08.06.12.22-.02.46-.28.6-.78 1.36-1.94 1.94-.58.28-1.22.4-1.9.4-.46 0-.94-.06-1.44-.18a2.692 2.692 0 0 1-1.98-3c.22-1.78 1.96-3.46 3.68-3.46 1.6 0 1.98.9 1.9 1.42-.06.44-.36.94-1 .9-.68-.04-.82-.54-.74-.94.1-.38.1-.74-.3-.78-.58-.06-1.3.92-1.62 2.26-.1.48-.18.94-.18 1.36 0 .78.24 1.42.94 1.7.34.14.68.2 1 .2.58 0 1.14-.18 1.58-.42 1.08-.6 1.56-1.54 1.72-1.8.06-.12.2-.14.3-.06zm8.397.54c-.2.58-.7 1.22-1.18 1.6-.44.36-1.12.78-1.88.6-.74-.18-1.18-1.02-1.08-1.84.12-1.04.62-2.86.78-3.36.1-.36.16-.8-.3-.8-.46 0-1.38 1.32-2.1 2.44-.7 1.12-1.42 2.86-1.52 3.08-.08.22-.24.26-.66.28-.4.04-.82.1-.82-.28 0-.4.4-4.08 1.12-7.42.72-3.26 1.88-6.7 3.98-6.34.82.14 1.12.72 1.12 1.5 0 1-.52 2.32-1.12 3.42-.88 1.6-2.32 3.66-3.12 4.72-.22 1.3-.28 1.94-.3 2.06-.02.1-.02.18.02.18.02 0 .06-.04.1-.14.28-.58.68-1.18 1.3-2.06.6-.84 1.54-2.26 2.54-1.98 1 .3 1.16 1.28 1.12 1.98-.06.7-.4 2.22-.58 2.74-.2.5-.3 1.1-.04 1.2.36.12 1.08-.28 1.5-.76.4-.48.56-.78.68-1.08.12-.3.64-.3.44.26zm-3.76-11.48c-1.34-.1-1.78 2.66-2.44 5.9-.14.66-.24 1.26-.34 1.82.58-.7 1.5-1.92 2.32-3.4.74-1.38 1.12-2.54 1.12-3.32 0-.6-.22-.96-.66-1zm21.233.04c.06.24-.06.36-.18.36-.16.02-.36-.18-.48-.44-.28-.58-.7-1.18-1.86-1.26-1.88-.14-4.48 1.42-5.96 6.42-.48 1.58-.7 3.06-.7 4.3 0 2.4.86 3.96 2.52 3.94 2.78-.04 4.54-2.5 5.22-6.62.18-1.18.28-2.16.28-2.96 0-1.8-.5-2.66-1.64-2.76-1.62-.14-3.3 2.52-3.84 5.1-.18.9-.24 1.7-.24 2.36 0 1.22.2 2.02.3 2.44.08.36-.04.56-.18.6-.12.02-.26-.08-.36-.3-.1-.3-.34-1.32-.34-2.7 0-.98.12-2.14.48-3.36.8-2.56 2.3-4.72 4.14-4.72.2 0 .38.04.58.08 1.46.36 2.5 1.88 2.5 4.26 0 .96-.16 2.04-.54 3.24-1.18 3.82-3.72 6-6.32 6-.28 0-.58-.02-.86-.08-2.14-.38-3.92-2.56-3.92-5.62 0-1.06.22-2.22.7-3.46 1.52-3.9 4.9-6.8 7.82-6.8.4 0 .8.06 1.18.18 1.26.38 1.64 1.38 1.7 1.8zm8.777 10.54c.06.08.04.2-.04.32-.3.42-.78.64-1.28.76-.28.06-.54.08-.8.08s-.5-.02-.68-.06c-.72 1.34-1.8 2.02-2.88 1.98-1.18-.02-2.1-1.08-2.1-2.8 0-.22 0-.46.04-.7.22-1.58.66-2.68.88-2.86.22-.16.38-.16.62-.16s.68.04.6.4c-.08.36-.3 1.04-.5 2.54-.08.54-.12 1.04-.12 1.48 0 .78.16 1.34.72 1.46.7.12 1.68-.52 2.28-1.5-.42-.2-.8-.54-1.04-1.14-.14-.32-.2-.72-.2-1.12 0-1.02.42-2.1 1.28-2.12.78-.02 1.18.64 1.18 1.66 0 .56-.12 1.22-.36 1.92-.06.18-.12.34-.2.5.28.06.66.06 1.04 0 .48-.1 1-.3 1.3-.66.08-.1.2-.06.26.02zm-2.9.22c.16-.48.24-.92.24-1.32 0-.76-.28-1.28-.78-1.18-.42.06-.58.52-.58 1.02 0 .38.1.78.22 1.02.18.34.46.58.78.74.04-.1.08-.2.12-.28zm9.537.6c-.22.42-.64 1.22-1.86 1.82-.7.34-1.48.52-2.2.52-.78 0-1.52-.2-2.1-.58-1.12-.72-1.28-1.76-1.18-2.48.22-1.58 1.28-2.5 2.28-3.06.52-.28 1.3-.5 2-.5.64 0 1.22.18 1.52.66.12.2.2.42.2.66 0 .9-.9 1.94-2.38 2.66-.8.4-1.48.6-1.86.68.12.7.5 1.06.9 1.22.32.14.6.2.92.2.5 0 1.04-.18 1.76-.54.92-.46 1.56-1.36 1.68-1.66.08-.14.24-.14.32-.04.08.1.1.26 0 .44zm-3.14-3.62c-.74-.34-1.92.4-2.34 2.26-.12.46-.16.84-.16 1.18.46-.06 1.22-.24 1.82-.74.6-.52 1.02-1.4 1.02-2.04 0-.3-.1-.56-.34-.66zm11.516 3.56c-.18.48-.7 1.2-1.08 1.58-.4.38-1.1.94-1.82.76-.84-.18-1.38-1.08-1.2-2.04.18-.98.64-2.7.7-2.96.06-.28.18-.74-.14-.84-.32-.1-1.3.62-2.06 1.94-.74 1.3-1.42 3.2-1.5 3.48-.08.26-.44.32-.76.32-.34 0-.78.06-.76-.32.04-.36.1-1.84.3-3.2.2-1.32.5-2.46.7-2.66.2-.2.48-.14.74-.14.26.02.64.14.56.44-.06.28-.64 2.8-.7 3.08-.04.16.02.26.08.26.06.02.16-.04.22-.16.16-.26.56-1.22 1.2-2.1.6-.86 1.46-1.8 2.38-1.58.86.24 1.1 1.1 1.1 1.6 0 .64-.42 2.52-.52 3.16-.04.26-.2 1.04.06 1.12.34.08.82-.26 1.24-.74.4-.46.68-.88.86-1.26.06-.18.26-.22.36-.14.08.06.12.18.04.4z"/>
        <path fill="#484848" d="M1.268 2.56c1.056 1.055 1.176.432 2.446 2.561.1.167.195.318.288.454l-1.11 1.11a.311.311 0 0 0 0 .44l13.983 13.983a.312.312 0 0 0 .44 0l1.11-1.11c.137.093.287.19.454.289 2.129 1.27 1.506 1.39 2.561 2.446a.914.914 0 0 0 1.292-1.293c-1.055-1.055-1.176-.432-2.446-2.56a9.01 9.01 0 0 0-.288-.455l1.11-1.11a.311.311 0 0 0 0-.44L7.124 2.893a.31.31 0 0 0-.44 0l-1.11 1.11a9.34 9.34 0 0 0-.454-.29C2.992 2.445 3.615 2.324 2.56 1.269A.914.914 0 0 0 1.268 2.56"/>
        <path stroke="#FFF" stroke-linecap="round" stroke-linejoin="round" stroke-width="1.025" d="M1.268 2.56c1.056 1.055 1.176.432 2.446 2.561.1.167.195.318.288.454l-1.11 1.11a.311.311 0 0 0 0 .44l13.983 13.983a.312.312 0 0 0 .44 0l1.11-1.11c.137.093.287.19.454.289 2.129 1.27 1.506 1.39 2.561 2.446a.914.914 0 0 0 1.292-1.293c-1.055-1.055-1.176-.432-2.446-2.56a9.01 9.01 0 0 0-.288-.455l1.11-1.11a.311.311 0 0 0 0-.44L7.124 2.893a.31.31 0 0 0-.44 0l-1.11 1.11a9.34 9.34 0 0 0-.454-.29C2.992 2.445 3.615 2.324 2.56 1.269A.914.914 0 0 0 1.268 2.56z"/>
        <path fill="#533019" d="M1.268 2.56c1.056 1.055 1.176.432 2.446 2.561.1.167.195.318.288.454l-1.11 1.11a.311.311 0 0 0 0 .44l13.983 13.983a.312.312 0 0 0 .44 0l1.11-1.11c.137.093.287.19.454.289 2.129 1.27 1.506 1.39 2.561 2.446a.914.914 0 0 0 1.292-1.293c-1.055-1.055-1.176-.432-2.446-2.56a9.01 9.01 0 0 0-.288-.455l1.11-1.11a.311.311 0 0 0 0-.44L7.124 2.893a.31.31 0 0 0-.44 0l-1.11 1.11a9.34 9.34 0 0 0-.454-.29C2.992 2.445 3.615 2.324 2.56 1.269A.914.914 0 0 0 1.268 2.56"/>
        <path stroke="#533019" stroke-linecap="round" stroke-linejoin="round" stroke-width=".845" d="M5 3L3 5m18 14l-2 2"/>
        <path fill="#FFF" d="M20.067 7.624C18.114 8.338 15.877 9.705 14 11c1.735-1.377 3.744-2.867 5.371-3.782a5.38 5.38 0 0 0 1.126-.846c.64-.623 1.097-1.356 1.285-2.064A2.94 2.94 0 0 0 21.846 4a2.826 2.826 0 0 1-.714 2.958c-.305.297-.664.521-1.065.666zM20 2.152c-.1.016-.2.037-.305.064-.708.188-1.441.645-2.065 1.285a5.378 5.378 0 0 0-.846 1.127C15.868 6.256 14.378 8.264 13 10c1.295-1.878 2.663-4.115 3.377-6.067a2.95 2.95 0 0 1 .667-1.067A2.834 2.834 0 0 1 20 2.152zm.927 1.908c-.158.617-.547 1.264-1.096 1.82-.301.305-.628.56-.971.76C17.067 7.688 14.804 9.48 13 11l7.9-8c.123.276.134.64.027 1.06zM21 2.1L13 10c1.52-1.804 3.311-4.067 4.36-5.86.2-.344.456-.67.76-.97.557-.55 1.203-.94 1.82-1.097.42-.107.784-.096 1.06.028zM1.254 21.828l.919.918a.865.865 0 0 0 .615.255c.232 0 .45-.09.615-.255l8.367-8.368a.865.865 0 0 0 .136-1.054c1.909-1.526 5.781-4.443 8.827-5.587.47-.174.89-.444 1.249-.802A3.454 3.454 0 0 0 23 4.475c0-.928-.362-1.802-1.018-2.458a3.482 3.482 0 0 0-5.72 1.25c-1.144 3.045-4.06 6.917-5.586 8.826a.865.865 0 0 0-1.054.135l-8.368 8.369a.871.871 0 0 0 0 1.23z"/>
        <path stroke="#FFF" stroke-linecap="round" stroke-linejoin="round" stroke-width="1.025" d="M20.067 7.624C18.114 8.338 15.877 9.705 14 11c1.735-1.377 3.744-2.867 5.371-3.782a5.38 5.38 0 0 0 1.126-.846c.64-.623 1.097-1.356 1.285-2.064A2.94 2.94 0 0 0 21.846 4a2.826 2.826 0 0 1-.714 2.958c-.305.297-.664.521-1.065.666zM20 2.152c-.1.016-.2.037-.305.064-.708.188-1.441.645-2.065 1.285a5.378 5.378 0 0 0-.846 1.127C15.868 6.256 14.378 8.264 13 10c1.295-1.878 2.663-4.115 3.377-6.067a2.95 2.95 0 0 1 .667-1.067A2.834 2.834 0 0 1 20 2.152zm.927 1.908c-.158.617-.547 1.264-1.096 1.82-.301.305-.628.56-.971.76C17.067 7.688 14.804 9.48 13 11l7.9-8c.123.276.134.64.027 1.06zM21 2.1L13 10c1.52-1.804 3.311-4.067 4.36-5.86.2-.344.456-.67.76-.97.557-.55 1.203-.94 1.82-1.097.42-.107.784-.096 1.06.028zM1.254 21.828l.919.918a.865.865 0 0 0 .615.255c.232 0 .45-.09.615-.255l8.367-8.368a.865.865 0 0 0 .136-1.054c1.909-1.526 5.781-4.443 8.827-5.587.47-.174.89-.444 1.249-.802A3.454 3.454 0 0 0 23 4.475c0-.928-.362-1.802-1.018-2.458a3.482 3.482 0 0 0-5.72 1.25c-1.144 3.045-4.06 6.917-5.586 8.826a.865.865 0 0 0-1.054.135l-8.368 8.369a.871.871 0 0 0 0 1.23z"/>
        <path stroke="#533019" stroke-linecap="round" stroke-linejoin="round" stroke-width=".563" d="M10 13.334s5.051-5.87 6.68-10.207a3.261 3.261 0 1 1 4.192 4.192C16.536 8.95 10.665 14 10.665 14m10.96-12c.758.756.33 2.41-.956 3.693a5.27 5.27 0 0 1-1.096.845C15.757 8.74 10 14 10 14M22 2.375c-.756-.758-2.41-.33-3.693.956-.346.346-.63.72-.845 1.096C15.26 8.243 10 14 10 14m0 0L22 2"/>
        <path fill="#533019" d="M10.259 12.146a.499.499 0 0 1 .705 0l.89.89a.499.499 0 0 1 0 .705L3.74 21.854a.499.499 0 0 1-.705 0l-.89-.89a.499.499 0 0 1 0-.705l8.113-8.113"/>
        <path d="M10.259 12.146a.499.499 0 0 1 .705 0l.89.89a.499.499 0 0 1 0 .705L3.74 21.854a.499.499 0 0 1-.705 0l-.89-.89a.499.499 0 0 1 0-.705l8.113-8.113z"/>
    </g>
</svg>
